<?xml version="1.0" encoding="utf-8"?>
<!-- Generator: Adobe Illustrator 24.1.1, SVG Export Plug-In . SVG Version: 6.00 Build 0)  -->
<svg version="1.1" id="Layer_1" xmlns="http://www.w3.org/2000/svg" xmlns:xlink="http://www.w3.org/1999/xlink" x="0px" y="0px"
	 viewBox="0 0 361.8 175.43" style="enable-background:new 0 0 361.8 175.43;" xml:space="preserve">
<style type="text/css">
	.st0{fill:#58595B;}
	.st1{fill:#49B9E4;}
	.st2{fill:#79AF51;}
	.st3{fill:#A6A8AB;}
	.st4{fill-rule:evenodd;clip-rule:evenodd;fill:#79AF51;}
	.st5{fill-rule:evenodd;clip-rule:evenodd;fill:#49B9E4;}
</style>
<g>
	<g>
		<path class="st0" d="M136.36,108.12v6.52c0,0.52-0.16,0.96-0.48,1.32c-0.4,0.48-0.91,0.73-1.53,0.73h-10.43
			c-0.81,0-1.5-0.26-2.09-0.78c-0.78-0.66-1.17-1.52-1.17-2.57v-2.94l1.15-0.93h1.12v3.87c0,0.43,0.15,0.79,0.45,1.06
			c0.29,0.26,0.61,0.39,0.99,0.39h9.26c0.31,0,0.47-0.16,0.47-0.47v-6.2H136.36z M127.1,107.61c0.34,0,0.62,0.12,0.86,0.35
			c0.24,0.24,0.35,0.52,0.35,0.86s-0.12,0.62-0.35,0.86c-0.24,0.24-0.52,0.35-0.86,0.35c-0.32,0-0.6-0.12-0.84-0.35
			c-0.24-0.24-0.35-0.52-0.35-0.86s0.12-0.62,0.35-0.86C126.49,107.73,126.77,107.61,127.1,107.61z M129.95,107.61
			c0.32,0,0.6,0.12,0.84,0.35c0.24,0.24,0.35,0.52,0.35,0.86s-0.12,0.62-0.35,0.86c-0.24,0.24-0.52,0.35-0.84,0.35
			c-0.34,0-0.62-0.12-0.86-0.35c-0.24-0.24-0.35-0.52-0.35-0.86s0.12-0.62,0.35-0.86C129.33,107.73,129.61,107.61,129.95,107.61z
			 M141.2,103.35v10.97c0,0.12,0.04,0.22,0.11,0.3c0.07,0.11,0.19,0.17,0.35,0.17h0.48v1.9h-1.21c-0.51,0-0.96-0.18-1.34-0.54
			c-0.45-0.41-0.67-0.91-0.67-1.51v-11.29H141.2z M145.35,111.34c0-1.18,0.41-2.07,1.23-2.68c0.65-0.5,1.53-0.75,2.65-0.75
			c1.09,0,2.02,0.32,2.78,0.97c0.96,0.82,1.43,1.98,1.43,3.48c0,1.42-0.38,2.59-1.14,3.52c-0.73,0.91-1.68,1.36-2.85,1.36
			c-1.03,0-1.84-0.39-2.44-1.15c-0.4,0.4-0.88,0.6-1.45,0.6H142v-1.9h2.87c0.14,0,0.25-0.05,0.35-0.15
			c0.09-0.09,0.13-0.19,0.13-0.32V111.34z M147.61,114.58c0.46,0.5,0.99,0.75,1.58,0.75c0.58,0,1.06-0.26,1.43-0.77
			c0.37-0.52,0.56-1.18,0.56-2c0-0.89-0.2-1.6-0.61-2.11c-0.37-0.43-0.86-0.65-1.45-0.65c-0.45,0-0.8,0.14-1.06,0.43
			c-0.3,0.27-0.45,0.65-0.45,1.12V114.58z M159.55,116.69c-1.37,0-2.44-0.47-3.22-1.4c-0.66-0.79-0.99-1.78-0.99-2.94
			c0-1.39,0.39-2.48,1.17-3.26c0.82-0.79,1.87-1.19,3.15-1.19c0.93,0,1.74,0.23,2.42,0.69c0.89,0.65,1.34,1.56,1.34,2.76v3.45h0.6
			v1.9h-0.61c-0.09,1.34-0.56,2.39-1.42,3.15c-0.6,0.53-1.31,0.9-2.14,1.1c-0.58,0.14-1.15,0.2-1.71,0.2c-0.19,0-0.45-0.01-0.8-0.04
			h-0.06l-0.95-1.17v-0.82c0.51,0.09,0.99,0.13,1.43,0.13c2.04,0,3.15-0.85,3.33-2.55H159.55z M161.15,111.34
			c0-0.5-0.16-0.89-0.48-1.17c-0.29-0.25-0.62-0.37-1.01-0.37c-0.63,0-1.14,0.22-1.51,0.67c-0.37,0.45-0.56,1.06-0.56,1.84
			c0,0.76,0.2,1.36,0.61,1.81c0.41,0.45,0.97,0.67,1.68,0.67h1.27V111.34z M169.5,103.35v11.16v0.28h0.95v1.9h-0.63l-0.71-0.76
			h-0.04c-0.42,0.51-0.95,0.76-1.58,0.76h-3.6v-1.9h2.87c0.15,0,0.27-0.05,0.37-0.15c0.07-0.12,0.11-0.23,0.11-0.32v-10.97H169.5z
			 M172.9,111.4c0.42-1.22,1.19-2.14,2.31-2.78c0.83-0.47,1.73-0.71,2.7-0.71s1.86,0.26,2.66,0.78c1.01,0.61,1.73,1.51,2.16,2.7
			l-0.22,0.52c-0.5,0.22-1.02,0.61-1.56,1.15c-0.52,0.57-0.86,1.14-1.02,1.71h3v1.9h-4.1c-0.35,0-0.66-0.16-0.95-0.48h-0.09
			c-0.29,0.32-0.61,0.48-0.99,0.48h-6.48v-1.9h5.4c-0.15-0.51-0.47-1.05-0.95-1.62c-0.53-0.6-1.09-1.01-1.66-1.25L172.9,111.4z
			 M179.07,112.27c0.46-0.51,0.89-0.85,1.29-1.02c-0.3-0.52-0.7-0.91-1.21-1.15c-0.39-0.19-0.81-0.28-1.29-0.28
			c-0.5,0-0.97,0.11-1.42,0.32c-0.5,0.25-0.88,0.62-1.15,1.12c0.42,0.19,0.87,0.56,1.34,1.12c0.52,0.58,0.91,1.22,1.15,1.9h0.07
			C178.1,113.57,178.5,112.9,179.07,112.27L179.07,112.27z M186.11,114.79c-0.3-0.72-0.45-1.53-0.45-2.42c0-1.47,0.45-2.6,1.36-3.41
			c0.76-0.68,1.73-1.03,2.91-1.04c1.06,0,1.92,0.25,2.59,0.75c0.82,0.62,1.23,1.52,1.23,2.68v2.98c0,0.11,0.03,0.22,0.09,0.32
			c0.1,0.1,0.21,0.15,0.34,0.15h0.17v1.9h-0.82c-0.56,0-1.04-0.2-1.43-0.6c-0.61,0.77-1.42,1.15-2.42,1.15c-1.08,0-2-0.4-2.76-1.19
			h-0.04l-0.52,0.63h-3.56v-1.9H186.11z M191.48,111.34c0-0.46-0.14-0.83-0.43-1.12c-0.26-0.29-0.63-0.43-1.12-0.43
			c-0.61,0-1.1,0.24-1.46,0.71c-0.37,0.47-0.55,1.11-0.55,1.9c0,0.87,0.19,1.58,0.56,2.12c0.37,0.55,0.85,0.82,1.43,0.82
			c0.53,0,1.06-0.25,1.56-0.76V111.34z M199.82,103.35v11.29c0,0.52-0.17,0.97-0.5,1.34c-0.39,0.47-0.89,0.71-1.51,0.71h-3.6v-1.9
			h2.87c0.14,0,0.25-0.05,0.35-0.15c0.09-0.09,0.13-0.19,0.13-0.32v-10.97H199.82z M204.67,103.35v12.87l-1.15,0.93h-1.12v-13.8
			H204.67z M218.49,107.61v6.71c0,0.15,0.04,0.26,0.13,0.34c0.07,0.09,0.17,0.13,0.3,0.13h0.52v1.9h-1.17
			c-0.57,0-1.09-0.23-1.55-0.69c-0.71,0.58-1.5,0.88-2.37,0.88c-0.98,0-1.83-0.31-2.53-0.93c-0.94-0.88-1.42-2.06-1.42-3.54
			c0-1.35,0.43-2.48,1.3-3.37c0.79-0.81,1.77-1.21,2.92-1.21c0.65,0,1.29,0.14,1.94,0.41l0.8-0.61H218.49z M216.22,110.02
			c-0.43-0.16-0.85-0.24-1.25-0.24c-0.67,0-1.22,0.25-1.66,0.74c-0.43,0.49-0.65,1.13-0.65,1.91c0,0.78,0.2,1.41,0.59,1.88
			c0.39,0.47,0.92,0.71,1.57,0.71c0.45,0,0.91-0.1,1.4-0.3V110.02z M214.45,104.02c0.34,0,0.62,0.12,0.86,0.35
			c0.24,0.24,0.35,0.52,0.35,0.86c0,0.32-0.12,0.6-0.35,0.84c-0.24,0.24-0.52,0.35-0.86,0.35c-0.34,0-0.62-0.12-0.86-0.35
			c-0.24-0.24-0.35-0.52-0.35-0.84c0-0.34,0.12-0.62,0.35-0.86C213.83,104.14,214.11,104.02,214.45,104.02z M217.28,104.02
			c0.34,0,0.62,0.12,0.86,0.35c0.24,0.24,0.35,0.52,0.35,0.86c0,0.32-0.12,0.6-0.35,0.84c-0.24,0.24-0.52,0.35-0.86,0.35
			c-0.32,0-0.6-0.12-0.84-0.35c-0.24-0.24-0.35-0.52-0.35-0.84c0-0.34,0.12-0.62,0.35-0.86
			C216.68,104.14,216.95,104.02,217.28,104.02z M224.92,108.12v6.39v0.28h0.95v1.9h-0.65l-0.69-0.76h-0.04
			c-0.42,0.51-0.95,0.76-1.58,0.76h-3.6v-1.9h2.81c0.17,0,0.3-0.05,0.37-0.15c0.11-0.1,0.17-0.22,0.17-0.37v-6.15H224.92z
			 M220.87,118.05c0.34,0,0.62,0.12,0.86,0.35c0.24,0.24,0.35,0.52,0.35,0.86c0,0.34-0.12,0.62-0.35,0.86
			c-0.24,0.24-0.52,0.35-0.86,0.35c-0.34,0-0.62-0.12-0.86-0.35c-0.24-0.24-0.35-0.52-0.35-0.86c0-0.34,0.12-0.62,0.35-0.86
			C220.25,118.16,220.54,118.05,220.87,118.05z M223.7,118.05c0.34,0,0.62,0.12,0.86,0.35c0.24,0.24,0.35,0.52,0.35,0.86
			c0,0.34-0.12,0.62-0.35,0.86c-0.24,0.24-0.52,0.35-0.86,0.35c-0.32,0-0.6-0.12-0.84-0.35c-0.24-0.24-0.35-0.52-0.35-0.86
			c0-0.34,0.12-0.62,0.35-0.86C223.1,118.16,223.38,118.05,223.7,118.05z M231.34,108.12v6.39v0.28h0.95v1.9h-0.65l-0.69-0.76h-0.04
			c-0.42,0.51-0.95,0.76-1.58,0.76h-3.6v-1.9h2.81c0.17,0,0.3-0.05,0.37-0.15c0.11-0.1,0.17-0.22,0.17-0.37v-6.15H231.34z
			 M230.21,104.02c0.34,0,0.62,0.12,0.86,0.35c0.24,0.24,0.35,0.52,0.35,0.86c0,0.32-0.12,0.6-0.35,0.84
			c-0.24,0.24-0.52,0.35-0.86,0.35c-0.32,0-0.6-0.12-0.84-0.35c-0.24-0.24-0.35-0.52-0.35-0.84c0-0.34,0.12-0.62,0.35-0.86
			C229.6,104.14,229.88,104.02,230.21,104.02z M235.87,114.79c-0.56-0.75-0.84-1.65-0.84-2.7c0-0.96,0.24-1.78,0.73-2.48
			c0.78-1.14,1.91-1.71,3.39-1.71c1.12,0,2.06,0.35,2.81,1.04c0.88,0.81,1.32,1.86,1.32,3.15c0,1.02-0.28,1.92-0.84,2.7h1.29v1.9
			h-2.79c-0.81,0-1.39-0.08-1.75-0.24h-0.09c-0.35,0.16-0.93,0.24-1.75,0.24h-5.18v-1.9H235.87z M237.77,104.02
			c0.34,0,0.62,0.12,0.86,0.35c0.24,0.24,0.35,0.52,0.35,0.86c0,0.32-0.12,0.6-0.35,0.84c-0.24,0.24-0.52,0.35-0.86,0.35
			c-0.32,0-0.6-0.12-0.84-0.35c-0.24-0.24-0.35-0.52-0.35-0.84c0-0.34,0.12-0.62,0.35-0.86
			C237.17,104.14,237.45,104.02,237.77,104.02z M239.15,114.77c0.56-0.06,1.01-0.32,1.35-0.77c0.34-0.45,0.51-1.03,0.51-1.74
			c0-0.75-0.17-1.34-0.5-1.79c-0.34-0.45-0.79-0.67-1.36-0.67c-0.56,0-1.01,0.22-1.35,0.67c-0.34,0.45-0.51,1.04-0.51,1.79
			c0,0.71,0.17,1.29,0.51,1.74C238.14,114.45,238.59,114.71,239.15,114.77z M240.6,104.02c0.34,0,0.62,0.12,0.86,0.35
			c0.24,0.24,0.35,0.52,0.35,0.86c0,0.32-0.12,0.6-0.35,0.84c-0.24,0.24-0.52,0.35-0.86,0.35c-0.34,0-0.62-0.11-0.85-0.34
			c-0.23-0.23-0.34-0.51-0.34-0.85s0.11-0.62,0.34-0.86C239.98,104.14,240.26,104.02,240.6,104.02z M249.21,108.12v6.39v0.28h0.95
			v1.9h-0.65l-0.69-0.76h-0.04c-0.42,0.51-0.95,0.76-1.58,0.76h-3.6v-1.9h2.81c0.17,0,0.3-0.05,0.37-0.15
			c0.11-0.1,0.17-0.22,0.17-0.37v-6.15H249.21z M245.41,104.02c0.34,0,0.62,0.12,0.86,0.35c0.24,0.24,0.35,0.52,0.35,0.86
			c0,0.32-0.12,0.6-0.35,0.84c-0.24,0.24-0.52,0.35-0.86,0.35c-0.34,0-0.62-0.12-0.86-0.35c-0.24-0.24-0.35-0.52-0.35-0.84
			c0-0.34,0.12-0.62,0.35-0.86C244.79,104.14,245.07,104.02,245.41,104.02z M248.24,104.02c0.34,0,0.62,0.12,0.86,0.35
			c0.24,0.24,0.35,0.52,0.35,0.86c0,0.32-0.12,0.6-0.35,0.84c-0.24,0.24-0.52,0.35-0.86,0.35c-0.32,0-0.6-0.12-0.84-0.35
			c-0.24-0.24-0.35-0.52-0.35-0.84c0-0.34,0.12-0.62,0.35-0.86C247.64,104.14,247.91,104.02,248.24,104.02z M255.63,103.35v11.29
			c0,0.52-0.17,0.97-0.5,1.34c-0.39,0.47-0.89,0.71-1.51,0.71h-3.6v-1.9h2.87c0.14,0,0.25-0.05,0.35-0.15
			c0.09-0.09,0.13-0.19,0.13-0.32v-10.97H255.63z M269.46,107.61v6.71c0,0.15,0.04,0.26,0.13,0.34c0.07,0.09,0.17,0.13,0.3,0.13
			h0.52v1.9h-1.17c-0.57,0-1.09-0.23-1.55-0.69c-0.71,0.58-1.5,0.88-2.37,0.88c-0.98,0-1.83-0.31-2.53-0.93
			c-0.94-0.88-1.42-2.06-1.42-3.54c0-1.35,0.43-2.48,1.3-3.37c0.79-0.81,1.77-1.21,2.92-1.21c0.65,0,1.29,0.14,1.94,0.41l0.8-0.61
			H269.46z M267.18,110.02c-0.43-0.16-0.85-0.24-1.25-0.24c-0.67,0-1.22,0.25-1.66,0.74c-0.43,0.49-0.65,1.13-0.65,1.91
			c0,0.78,0.2,1.41,0.59,1.88c0.39,0.47,0.92,0.71,1.57,0.71c0.45,0,0.91-0.1,1.4-0.3V110.02z M265.41,104.02
			c0.34,0,0.62,0.12,0.86,0.35c0.24,0.24,0.35,0.52,0.35,0.86c0,0.32-0.12,0.6-0.35,0.84c-0.24,0.24-0.52,0.35-0.86,0.35
			c-0.34,0-0.62-0.12-0.86-0.35c-0.24-0.24-0.35-0.52-0.35-0.84c0-0.34,0.12-0.62,0.35-0.86
			C264.79,104.14,265.08,104.02,265.41,104.02z M268.24,104.02c0.34,0,0.62,0.12,0.86,0.35c0.24,0.24,0.35,0.52,0.35,0.86
			c0,0.32-0.12,0.6-0.35,0.84c-0.24,0.24-0.52,0.35-0.86,0.35c-0.32,0-0.6-0.12-0.84-0.35c-0.24-0.24-0.35-0.52-0.35-0.84
			c0-0.34,0.12-0.62,0.35-0.86C267.64,104.14,267.92,104.02,268.24,104.02z M275.88,108.12v6.39v0.28h0.95v1.9h-0.65l-0.69-0.76
			h-0.04c-0.42,0.51-0.95,0.76-1.58,0.76h-3.6v-1.9h2.81c0.17,0,0.3-0.05,0.37-0.15c0.11-0.1,0.17-0.22,0.17-0.37v-6.15H275.88z
			 M271.84,118.05c0.34,0,0.62,0.12,0.86,0.35c0.24,0.24,0.35,0.52,0.35,0.86c0,0.34-0.12,0.62-0.35,0.86
			c-0.24,0.24-0.52,0.35-0.86,0.35c-0.34,0-0.62-0.12-0.86-0.35c-0.24-0.24-0.35-0.52-0.35-0.86c0-0.34,0.12-0.62,0.35-0.86
			C271.22,118.16,271.5,118.05,271.84,118.05z M274.67,118.05c0.34,0,0.62,0.12,0.86,0.35c0.24,0.24,0.35,0.52,0.35,0.86
			c0,0.34-0.12,0.62-0.35,0.86c-0.24,0.24-0.52,0.35-0.86,0.35c-0.32,0-0.6-0.12-0.84-0.35c-0.24-0.24-0.35-0.52-0.35-0.86
			c0-0.34,0.12-0.62,0.35-0.86C274.07,118.16,274.35,118.05,274.67,118.05z M282.31,108.12v6.39v0.28h0.95v1.9h-0.65l-0.69-0.76
			h-0.04c-0.42,0.51-0.95,0.76-1.58,0.76h-3.6v-1.9h2.81c0.17,0,0.3-0.05,0.37-0.15c0.11-0.1,0.17-0.22,0.17-0.37v-6.15H282.31z
			 M281.17,104.02c0.34,0,0.62,0.12,0.86,0.35c0.24,0.24,0.35,0.52,0.35,0.86c0,0.32-0.12,0.6-0.35,0.84
			c-0.24,0.24-0.52,0.35-0.86,0.35c-0.32,0-0.6-0.12-0.84-0.35c-0.24-0.24-0.35-0.52-0.35-0.84c0-0.34,0.12-0.62,0.35-0.86
			C280.57,104.14,280.85,104.02,281.17,104.02z M286.84,114.79c-0.56-0.75-0.84-1.65-0.84-2.7c0-0.96,0.24-1.78,0.73-2.48
			c0.78-1.14,1.91-1.71,3.39-1.71c1.12,0,2.06,0.35,2.81,1.04c0.88,0.81,1.32,1.86,1.32,3.15c0,1.02-0.28,1.92-0.84,2.7h1.29v1.9
			h-2.79c-0.81,0-1.39-0.08-1.75-0.24h-0.09c-0.35,0.16-0.93,0.24-1.75,0.24h-5.18v-1.9H286.84z M288.74,104.02
			c0.34,0,0.62,0.12,0.86,0.35c0.24,0.24,0.35,0.52,0.35,0.86c0,0.32-0.12,0.6-0.35,0.84c-0.24,0.24-0.52,0.35-0.86,0.35
			c-0.32,0-0.6-0.12-0.84-0.35c-0.24-0.24-0.35-0.52-0.35-0.84c0-0.34,0.12-0.62,0.35-0.86
			C288.13,104.14,288.41,104.02,288.74,104.02z M290.11,114.77c0.56-0.06,1.01-0.32,1.35-0.77c0.34-0.45,0.51-1.03,0.51-1.74
			c0-0.75-0.17-1.34-0.5-1.79c-0.34-0.45-0.79-0.67-1.36-0.67c-0.56,0-1.01,0.22-1.35,0.67c-0.34,0.45-0.51,1.04-0.51,1.79
			c0,0.71,0.17,1.29,0.51,1.74C289.11,114.45,289.56,114.71,290.11,114.77z M291.57,104.02c0.34,0,0.62,0.12,0.86,0.35
			c0.24,0.24,0.35,0.52,0.35,0.86c0,0.32-0.12,0.6-0.35,0.84c-0.24,0.24-0.52,0.35-0.86,0.35c-0.34,0-0.62-0.11-0.85-0.34
			c-0.23-0.23-0.34-0.51-0.34-0.85s0.11-0.62,0.34-0.86C290.95,104.14,291.23,104.02,291.57,104.02z M300.17,108.12v6.39v0.28h0.95
			v1.9h-0.65l-0.69-0.76h-0.04c-0.42,0.51-0.95,0.76-1.58,0.76h-3.6v-1.9h2.81c0.17,0,0.3-0.05,0.37-0.15
			c0.11-0.1,0.17-0.22,0.17-0.37v-6.15H300.17z M296.37,104.02c0.34,0,0.62,0.12,0.86,0.35c0.24,0.24,0.35,0.52,0.35,0.86
			c0,0.32-0.12,0.6-0.35,0.84c-0.24,0.24-0.52,0.35-0.86,0.35c-0.34,0-0.62-0.12-0.86-0.35c-0.24-0.24-0.35-0.52-0.35-0.84
			c0-0.34,0.12-0.62,0.35-0.86C295.75,104.14,296.04,104.02,296.37,104.02z M299.21,104.02c0.34,0,0.62,0.12,0.86,0.35
			c0.24,0.24,0.35,0.52,0.35,0.86c0,0.32-0.12,0.6-0.35,0.84c-0.24,0.24-0.52,0.35-0.86,0.35c-0.32,0-0.6-0.12-0.84-0.35
			c-0.24-0.24-0.35-0.52-0.35-0.84c0-0.34,0.12-0.62,0.35-0.86C298.6,104.14,298.88,104.02,299.21,104.02z M306.6,103.35v11.29
			c0,0.52-0.17,0.97-0.5,1.34c-0.39,0.47-0.89,0.71-1.51,0.71h-3.6v-1.9h2.87c0.14,0,0.25-0.05,0.35-0.15
			c0.09-0.09,0.13-0.19,0.13-0.32v-10.97H306.6z M311.44,103.35v12.87l-1.15,0.93h-1.12v-13.8H311.44z M318.77,108.01
			c0.42-0.07,0.91-0.11,1.47-0.11c1.43,0,2.58,0.46,3.46,1.38c0.78,0.83,1.17,1.86,1.17,3.09v2.27c0,0.58-0.21,1.07-0.63,1.47
			c-0.39,0.39-0.84,0.58-1.38,0.58h-5.98v-1.9h5.25c0.31,0,0.47-0.16,0.47-0.47v-1.73c0-0.86-0.26-1.55-0.78-2.07
			c-0.48-0.48-1.19-0.75-2.11-0.78c-0.42,0-0.74,0.03-0.95,0.07V108.01z M329.55,103.35v10.97c0,0.12,0.04,0.22,0.11,0.3
			c0.07,0.11,0.19,0.17,0.35,0.17h0.48v1.9h-1.21c-0.51,0-0.96-0.18-1.34-0.54c-0.45-0.41-0.67-0.91-0.67-1.51v-11.29H329.55z
			 M332.83,108.43c1.18-0.36,2.25-0.54,3.22-0.54c1.5,0,2.71,0.47,3.63,1.42c0.83,0.84,1.25,1.91,1.25,3.2v1.99v0.28h0.61v1.9h-0.39
			l-0.61-0.76h-0.04c-0.42,0.51-0.95,0.76-1.58,0.76h-8.57v-1.9h7.84c0.31,0,0.47-0.16,0.47-0.47v-1.68c0-0.84-0.28-1.52-0.85-2.04
			c-0.57-0.52-1.31-0.77-2.23-0.77c-0.61,0-1.53,0.14-2.76,0.41V108.43z M335.44,118.05c0.34,0,0.62,0.12,0.86,0.35
			c0.24,0.24,0.35,0.52,0.35,0.86c0,0.34-0.12,0.62-0.35,0.86c-0.24,0.24-0.52,0.35-0.86,0.35c-0.32,0-0.6-0.12-0.84-0.35
			c-0.24-0.24-0.35-0.52-0.35-0.86c0-0.34,0.12-0.62,0.35-0.86C334.84,118.16,335.11,118.05,335.44,118.05z M347.02,108.12v6.52
			c0,0.48-0.16,0.93-0.48,1.34c-0.41,0.47-0.92,0.71-1.53,0.71h-3.6v-1.9h2.87c0.14,0,0.25-0.05,0.35-0.15
			c0.09-0.09,0.13-0.19,0.13-0.32v-6.2H347.02z M342.94,118.05c0.34,0,0.62,0.12,0.86,0.35c0.24,0.24,0.35,0.52,0.35,0.86
			c0,0.34-0.12,0.62-0.35,0.86c-0.24,0.24-0.52,0.35-0.86,0.35c-0.32,0-0.6-0.12-0.84-0.35c-0.24-0.24-0.35-0.52-0.35-0.86
			c0-0.34,0.12-0.62,0.35-0.86C342.34,118.16,342.62,118.05,342.94,118.05z M345.8,118.05c0.34,0,0.62,0.12,0.85,0.35
			c0.23,0.24,0.34,0.52,0.34,0.86c0,0.34-0.11,0.62-0.34,0.86c-0.23,0.24-0.51,0.35-0.85,0.35c-0.34,0-0.62-0.12-0.86-0.35
			c-0.24-0.24-0.35-0.52-0.35-0.86c0-0.34,0.12-0.62,0.35-0.86C345.17,118.16,345.46,118.05,345.8,118.05z M349.28,121.29
			c-0.21-0.31-0.32-0.66-0.32-1.06c0-0.53,0.16-0.96,0.48-1.29c0.32-0.32,0.74-0.48,1.28-0.48c0.29,0,0.6,0.06,0.95,0.17v0.99
			c-0.25-0.07-0.48-0.11-0.69-0.11c-0.55,0-0.82,0.3-0.82,0.89c0,0.25,0.06,0.45,0.19,0.6c0.15,0.2,0.37,0.3,0.67,0.3h1.25v0.47
			l-0.43,0.54h-3.3v-1.01H349.28z M351.89,103.35v12.87l-1.15,0.93h-1.12v-13.8H351.89z"/>
		<g>
			<path class="st1" d="M127.73,76.26v8.34h17.49v5.55H121.1V57.86h23.31v5.54h-16.68v7.3h15.46v5.55H127.73z"/>
			<path class="st1" d="M161.99,57.86h6.67v23.35c0,3.22-1.02,5.64-3.07,7.26c-1.8,1.44-4.25,2.16-7.35,2.16
				c-3.04,0-5.5-0.86-7.39-2.57c-1.77-1.65-2.66-4.06-2.66-7.21v-2.93h6.63v2.84c0,2.8,1.2,4.19,3.61,4.19
				c2.37,0,3.56-1.25,3.56-3.74V57.86z"/>
			<path class="st1" d="M194.04,83.65h-12.08l-2.16,6.49h-6.76l11.45-32.28h7.35l11.18,32.28h-6.85L194.04,83.65z M192.24,78.1
				l-4.19-12.62l-4.24,12.62H192.24z"/>
			<path class="st1" d="M207.21,90.14V57.86h12.62c4.72,0,8.11,1.25,10.19,3.74c2.61,3.13,3.92,7.26,3.92,12.4
				c0,5.17-1.31,9.3-3.92,12.4c-2.1,2.5-5.5,3.74-10.19,3.74H207.21z M213.84,84.6h6c4.99,0,7.48-3.53,7.48-10.59
				c0-7.06-2.5-10.59-7.48-10.59h-6V84.6z"/>
		</g>
		<g>
			<path class="st2" d="M253.19,60.61v29.53h-3.2V60.61h-10.28v-2.75h23.76v2.75H253.19z"/>
			<path class="st2" d="M289.21,57.86v2.75h-18.35v11.68h16.86v2.57h-16.86v12.53h18.8v2.75h-22V57.86H289.21z"/>
			<path class="st2" d="M321.63,67.01h-3.38c-0.54-2.22-1.67-3.97-3.38-5.23c-1.71-1.26-3.79-1.89-6.22-1.89
				c-3.73,0-6.6,1.44-8.61,4.33c-1.77,2.52-2.66,5.83-2.66,9.92c0,4.57,1.14,8.13,3.43,10.68c1.98,2.19,4.57,3.29,7.75,3.29
				c2.95,0,5.36-0.96,7.26-2.89c1.65-1.68,2.67-3.91,3.07-6.67h3.16c-0.39,2.77-1.22,5.03-2.48,6.81c-2.53,3.67-6.22,5.5-11.09,5.5
				c-4.69,0-8.32-1.71-10.91-5.14c-2.25-2.98-3.38-6.88-3.38-11.72c0-5.56,1.49-9.86,4.46-12.89c2.55-2.64,5.94-3.97,10.14-3.97
				c3.55,0,6.49,0.99,8.84,2.97C319.66,61.86,321,64.16,321.63,67.01z"/>
			<path class="st2" d="M348.68,74.41h-17.72v15.73h-3.2V57.86h3.2v13.79h17.72V57.86h3.2v32.28h-3.2V74.41z"/>
		</g>
		<path class="st3" d="M127.91,131.55v4.99c0,0.11,0.03,0.19,0.1,0.25c0.06,0.06,0.13,0.1,0.22,0.1h0.39v1.41h-0.87
			c-0.42,0-0.81-0.17-1.15-0.51c-0.53,0.43-1.11,0.65-1.76,0.65c-0.73,0-1.36-0.23-1.88-0.69c-0.7-0.66-1.05-1.53-1.05-2.63
			c0-1.01,0.32-1.84,0.97-2.51c0.59-0.6,1.32-0.9,2.17-0.9c0.48,0,0.96,0.1,1.44,0.3l0.6-0.46H127.91z M126.22,133.34
			c-0.32-0.12-0.63-0.18-0.93-0.18c-0.5,0-0.91,0.18-1.23,0.55c-0.32,0.36-0.48,0.84-0.48,1.42s0.15,1.05,0.44,1.4
			c0.29,0.35,0.68,0.53,1.17,0.53c0.33,0,0.68-0.07,1.04-0.22V133.34z M124.9,128.88c0.25,0,0.46,0.09,0.64,0.26
			c0.18,0.18,0.26,0.39,0.26,0.64c0,0.24-0.09,0.45-0.26,0.62c-0.18,0.18-0.39,0.26-0.64,0.26s-0.46-0.09-0.64-0.26
			c-0.18-0.18-0.26-0.38-0.26-0.62c0-0.25,0.09-0.46,0.26-0.64C124.44,128.97,124.65,128.88,124.9,128.88z M127.01,128.88
			c0.25,0,0.46,0.09,0.64,0.26c0.18,0.18,0.26,0.39,0.26,0.64c0,0.24-0.09,0.45-0.26,0.62c-0.18,0.18-0.39,0.26-0.64,0.26
			c-0.24,0-0.45-0.09-0.62-0.26c-0.18-0.18-0.26-0.38-0.26-0.62c0-0.25,0.09-0.46,0.26-0.64
			C126.56,128.97,126.77,128.88,127.01,128.88z M132.68,131.93v4.75v0.21h0.71v1.41h-0.48l-0.51-0.57h-0.03
			c-0.31,0.38-0.71,0.57-1.18,0.57h-2.67v-1.41h2.09c0.13,0,0.22-0.04,0.28-0.11c0.08-0.07,0.12-0.17,0.12-0.28v-4.57H132.68z
			 M129.68,139.31c0.25,0,0.46,0.09,0.64,0.26c0.18,0.18,0.26,0.39,0.26,0.64s-0.09,0.46-0.26,0.64c-0.18,0.18-0.39,0.26-0.64,0.26
			s-0.46-0.09-0.64-0.26c-0.18-0.18-0.26-0.39-0.26-0.64s0.09-0.46,0.26-0.64C129.22,139.4,129.43,139.31,129.68,139.31z
			 M131.78,139.31c0.25,0,0.46,0.09,0.64,0.26c0.18,0.18,0.26,0.39,0.26,0.64s-0.09,0.46-0.26,0.64c-0.18,0.18-0.39,0.26-0.64,0.26
			c-0.24,0-0.45-0.09-0.62-0.26c-0.18-0.18-0.26-0.39-0.26-0.64s0.09-0.46,0.26-0.64C131.34,139.4,131.54,139.31,131.78,139.31z
			 M137.46,131.93v4.75v0.21h0.71v1.41h-0.48l-0.51-0.57h-0.03c-0.31,0.38-0.71,0.57-1.18,0.57h-2.67v-1.41h2.09
			c0.13,0,0.22-0.04,0.28-0.11c0.08-0.07,0.12-0.17,0.12-0.28v-4.57H137.46z M136.62,128.88c0.25,0,0.46,0.09,0.64,0.26
			c0.18,0.18,0.26,0.39,0.26,0.64c0,0.24-0.09,0.45-0.26,0.62c-0.18,0.18-0.39,0.26-0.64,0.26c-0.24,0-0.45-0.09-0.62-0.26
			c-0.18-0.18-0.26-0.38-0.26-0.62c0-0.25,0.09-0.46,0.26-0.64C136.17,128.97,136.38,128.88,136.62,128.88z M140.83,136.89
			c-0.42-0.55-0.62-1.22-0.62-2.01c0-0.71,0.18-1.32,0.54-1.84c0.58-0.85,1.42-1.27,2.52-1.27c0.83,0,1.53,0.26,2.09,0.78
			c0.66,0.6,0.98,1.38,0.98,2.34c0,0.76-0.21,1.43-0.62,2.01h0.96v1.41h-2.08c-0.6,0-1.03-0.06-1.3-0.18h-0.07
			c-0.26,0.12-0.69,0.18-1.3,0.18h-3.85v-1.41H140.83z M142.24,128.88c0.25,0,0.46,0.09,0.64,0.26c0.18,0.18,0.26,0.39,0.26,0.64
			c0,0.24-0.09,0.45-0.26,0.62c-0.18,0.18-0.39,0.26-0.64,0.26c-0.24,0-0.45-0.09-0.62-0.26c-0.18-0.18-0.26-0.38-0.26-0.62
			c0-0.25,0.09-0.46,0.26-0.64C141.79,128.97,142,128.88,142.24,128.88z M143.26,136.87c0.42-0.05,0.75-0.24,1-0.57
			c0.25-0.34,0.38-0.77,0.38-1.29c0-0.55-0.12-1-0.37-1.33s-0.59-0.5-1.01-0.5c-0.42,0-0.75,0.17-1,0.5
			c-0.25,0.33-0.38,0.78-0.38,1.33c0,0.53,0.13,0.96,0.38,1.29C142.51,136.63,142.85,136.83,143.26,136.87z M144.34,128.88
			c0.25,0,0.46,0.09,0.64,0.26c0.18,0.18,0.26,0.39,0.26,0.64c0,0.24-0.09,0.45-0.26,0.62c-0.18,0.18-0.39,0.26-0.64,0.26
			s-0.46-0.09-0.63-0.26c-0.17-0.17-0.26-0.38-0.26-0.63s0.09-0.46,0.26-0.64C143.88,128.97,144.1,128.88,144.34,128.88z
			 M150.74,131.93v4.75v0.21h0.71v1.41h-0.48l-0.51-0.57h-0.03c-0.31,0.38-0.71,0.57-1.18,0.57h-2.67v-1.41h2.09
			c0.13,0,0.22-0.04,0.28-0.11c0.08-0.07,0.12-0.17,0.12-0.28v-4.57H150.74z M147.92,128.88c0.25,0,0.46,0.09,0.64,0.26
			c0.18,0.18,0.26,0.39,0.26,0.64c0,0.24-0.09,0.45-0.26,0.62c-0.18,0.18-0.39,0.26-0.64,0.26s-0.46-0.09-0.64-0.26
			c-0.18-0.18-0.26-0.38-0.26-0.62c0-0.25,0.09-0.46,0.26-0.64C147.46,128.97,147.67,128.88,147.92,128.88z M150.02,128.88
			c0.25,0,0.46,0.09,0.64,0.26c0.18,0.18,0.26,0.39,0.26,0.64c0,0.24-0.09,0.45-0.26,0.62c-0.18,0.18-0.39,0.26-0.64,0.26
			c-0.24,0-0.45-0.09-0.62-0.26c-0.18-0.18-0.26-0.38-0.26-0.62c0-0.25,0.09-0.46,0.26-0.64
			C149.57,128.97,149.78,128.88,150.02,128.88z M155.52,128.38v8.39c0,0.39-0.12,0.72-0.37,1c-0.29,0.35-0.66,0.53-1.12,0.53h-2.67
			v-1.41h2.13c0.1,0,0.19-0.04,0.26-0.11c0.06-0.06,0.1-0.14,0.1-0.24v-8.16H155.52z M159.12,128.38v9.57l-0.86,0.69h-0.83v-10.26
			H159.12z M172.76,131.93v4.96h0.69v1.41h-0.71c-0.07,1.09-0.48,1.92-1.23,2.49c-0.7,0.54-1.6,0.82-2.69,0.82h-1.37
			c-1.18,0-2.12-0.3-2.83-0.91c-0.74-0.65-1.11-1.56-1.11-2.73v-2.48l0.86-0.69h0.83v3.02c0,0.88,0.22,1.49,0.66,1.85
			c0.44,0.36,1.2,0.53,2.28,0.53c1.04,0,1.78-0.16,2.2-0.48c0.48-0.37,0.72-1,0.72-1.9v-5.89H172.76z M168.05,131.76
			c0.25,0,0.46,0.09,0.64,0.26c0.18,0.18,0.26,0.39,0.26,0.64s-0.09,0.46-0.26,0.64c-0.18,0.18-0.39,0.26-0.64,0.26
			c-0.24,0-0.45-0.09-0.62-0.26c-0.18-0.18-0.26-0.39-0.26-0.64s0.09-0.46,0.26-0.64C167.6,131.85,167.81,131.76,168.05,131.76z
			 M177.59,131.93v4.75v0.21h0.71v1.41h-0.48l-0.51-0.57h-0.03c-0.31,0.38-0.71,0.57-1.18,0.57h-2.67v-1.41h2.09
			c0.13,0,0.22-0.04,0.28-0.11c0.08-0.07,0.12-0.17,0.12-0.28v-4.57H177.59z M174.59,139.31c0.25,0,0.46,0.09,0.64,0.26
			c0.18,0.18,0.26,0.39,0.26,0.64s-0.09,0.46-0.26,0.64c-0.18,0.18-0.39,0.26-0.64,0.26c-0.25,0-0.46-0.09-0.64-0.26
			c-0.18-0.18-0.26-0.39-0.26-0.64s0.09-0.46,0.26-0.64C174.13,139.4,174.34,139.31,174.59,139.31z M176.69,139.31
			c0.25,0,0.46,0.09,0.64,0.26c0.18,0.18,0.26,0.39,0.26,0.64s-0.09,0.46-0.26,0.64c-0.18,0.18-0.39,0.26-0.64,0.26
			c-0.24,0-0.45-0.09-0.62-0.26c-0.18-0.18-0.26-0.39-0.26-0.64s0.09-0.46,0.26-0.64C176.25,139.4,176.45,139.31,176.69,139.31z
			 M182.36,128.38v5.87c1.24-1.67,2.77-2.51,4.61-2.51c1.1,0,2,0.35,2.71,1.05c0.66,0.64,0.98,1.43,0.98,2.37v1.61
			c0,0.43-0.16,0.8-0.48,1.11c-0.3,0.28-0.63,0.42-1.01,0.42h-10.98v-1.41h2.49v-8.5H182.36z M188.98,135.25
			c-0.01-0.57-0.2-1.03-0.57-1.38c-0.42-0.44-1-0.66-1.73-0.66c-0.74,0-1.44,0.24-2.12,0.73c-0.87,0.63-1.6,1.61-2.2,2.95h6.27
			c0.23,0,0.35-0.12,0.35-0.35V135.25z M195.33,138.3c-1.02,0-1.81-0.35-2.4-1.04c-0.49-0.59-0.73-1.32-0.73-2.19
			c0-1.03,0.29-1.84,0.87-2.42c0.61-0.59,1.39-0.89,2.34-0.89c0.69,0,1.29,0.17,1.8,0.51c0.66,0.48,1,1.16,1,2.05v2.56h0.44v1.41
			h-0.46c-0.06,1-0.42,1.78-1.05,2.34c-0.44,0.4-0.97,0.67-1.59,0.82c-0.43,0.1-0.86,0.15-1.27,0.15c-0.14,0-0.34-0.01-0.6-0.03
			h-0.04l-0.71-0.87v-0.61c0.38,0.06,0.73,0.1,1.07,0.1c1.51,0,2.34-0.63,2.48-1.9H195.33z M196.52,134.32
			c0-0.37-0.12-0.66-0.36-0.87c-0.21-0.18-0.46-0.28-0.75-0.28c-0.47,0-0.84,0.17-1.12,0.5s-0.42,0.79-0.42,1.37
			c0,0.56,0.15,1.01,0.46,1.34c0.3,0.33,0.72,0.5,1.25,0.5h0.94V134.32z M202.71,131.93v4.85c0,0.36-0.12,0.69-0.36,1
			c-0.3,0.35-0.68,0.53-1.14,0.53h-2.67v-1.41h2.13c0.1,0,0.19-0.04,0.26-0.11c0.06-0.06,0.1-0.14,0.1-0.24v-4.61H202.71z
			 M199.89,128.88c0.25,0,0.46,0.09,0.64,0.26c0.18,0.18,0.26,0.39,0.26,0.64c0,0.24-0.09,0.45-0.26,0.62
			c-0.18,0.18-0.39,0.26-0.64,0.26c-0.25,0-0.46-0.09-0.64-0.26c-0.18-0.18-0.26-0.38-0.26-0.62c0-0.25,0.09-0.46,0.26-0.64
			C199.43,128.97,199.64,128.88,199.89,128.88z M201.99,128.88c0.25,0,0.46,0.09,0.64,0.26c0.18,0.18,0.26,0.39,0.26,0.64
			c0,0.24-0.09,0.45-0.26,0.62c-0.18,0.18-0.39,0.26-0.64,0.26c-0.24,0-0.45-0.09-0.62-0.26c-0.18-0.18-0.26-0.38-0.26-0.62
			c0-0.25,0.09-0.46,0.26-0.64C201.55,128.97,201.75,128.88,201.99,128.88z M206.51,140.2c1.49,0,2.29-0.65,2.41-1.95
			c-0.4,0.11-0.78,0.17-1.16,0.17c-0.98,0-1.77-0.38-2.38-1.14c-0.5-0.64-0.75-1.39-0.75-2.26c0-0.95,0.28-1.72,0.84-2.31
			c0.58-0.63,1.37-0.94,2.37-0.94c0.74,0,1.36,0.19,1.86,0.57c0.63,0.45,0.94,1.12,0.94,1.99v3.64c0,1.19-0.38,2.1-1.14,2.74
			c-0.43,0.37-0.97,0.63-1.62,0.78c-0.32,0.07-0.68,0.11-1.08,0.11c-0.1,0-0.26-0.01-0.48-0.03l-0.68-0.84v-0.6
			C205.93,140.17,206.22,140.2,206.51,140.2L206.51,140.2z M208.95,134.32c0-0.4-0.13-0.7-0.4-0.91c-0.18-0.16-0.42-0.24-0.71-0.24
			c-0.48,0-0.86,0.17-1.13,0.5c-0.27,0.33-0.41,0.79-0.41,1.37c0,0.6,0.15,1.07,0.46,1.42c0.31,0.35,0.73,0.52,1.27,0.52
			c0.3,0,0.6-0.06,0.91-0.17V134.32z M216.59,135.89v1.92c0,0.88,0.22,1.49,0.66,1.85c0.44,0.36,1.19,0.53,2.26,0.53
			c0.93,0,1.61-0.12,2.02-0.36c0.51-0.29,0.8-0.8,0.87-1.54h-0.86l-0.72-0.89v-0.53h3.82v1.41h-0.53c-0.07,1.15-0.54,2.02-1.38,2.6
			c-0.66,0.47-1.51,0.71-2.53,0.71h-1.37c-1.16,0-2.09-0.3-2.78-0.9c-0.77-0.63-1.15-1.54-1.15-2.74v-1.4l0.86-0.68H216.59z
			 M218.42,142.41c0.25,0,0.46,0.09,0.64,0.26c0.18,0.18,0.26,0.39,0.26,0.64s-0.09,0.46-0.26,0.64c-0.18,0.18-0.39,0.26-0.64,0.26
			c-0.25,0-0.46-0.09-0.64-0.26c-0.18-0.18-0.26-0.39-0.26-0.64s0.09-0.46,0.26-0.64C217.96,142.5,218.17,142.41,218.42,142.41z
			 M220.52,142.41c0.25,0,0.46,0.09,0.64,0.26c0.18,0.18,0.26,0.39,0.26,0.64s-0.09,0.46-0.26,0.64c-0.18,0.18-0.39,0.26-0.64,0.26
			c-0.24,0-0.45-0.09-0.62-0.26c-0.18-0.18-0.26-0.39-0.26-0.64s0.09-0.46,0.26-0.64C220.08,142.5,220.28,142.41,220.52,142.41z
			 M225.91,136.89c-0.22-0.54-0.33-1.14-0.33-1.8c0-1.09,0.34-1.93,1.01-2.53c0.56-0.51,1.28-0.77,2.16-0.78
			c0.78,0,1.43,0.18,1.92,0.55c0.61,0.46,0.91,1.13,0.91,1.99v2.22c0,0.08,0.02,0.16,0.07,0.24c0.07,0.07,0.16,0.11,0.25,0.11h0.12
			v1.41h-0.61c-0.42,0-0.77-0.15-1.07-0.44c-0.45,0.57-1.05,0.86-1.8,0.86c-0.8,0-1.49-0.3-2.05-0.89h-0.03l-0.39,0.47h-2.64v-1.41
			H225.91z M229.9,134.32c0-0.34-0.11-0.62-0.32-0.83c-0.19-0.21-0.47-0.32-0.83-0.32c-0.45,0-0.81,0.18-1.09,0.53
			c-0.27,0.35-0.41,0.82-0.41,1.41c0,0.65,0.14,1.17,0.42,1.58c0.28,0.41,0.63,0.61,1.07,0.61c0.4,0,0.78-0.19,1.16-0.57V134.32z
			 M234.72,136.89c-0.21-0.27-0.38-0.59-0.5-0.96c-0.1-0.35-0.15-0.7-0.15-1.05c0-0.81,0.24-1.49,0.71-2.04
			c0.6-0.72,1.44-1.08,2.53-1.08c0.78,0,1.42,0.21,1.94,0.62c0.56,0.48,0.84,1.13,0.84,1.94v2.45c0,0.38-0.12,0.72-0.37,1.01
			c-0.3,0.34-0.67,0.51-1.12,0.51h-6.66v-1.41H234.72z M236.25,128.88c0.25,0,0.46,0.09,0.64,0.26c0.18,0.18,0.26,0.39,0.26,0.64
			c0,0.24-0.09,0.45-0.26,0.62c-0.18,0.18-0.39,0.26-0.64,0.26c-0.24,0-0.45-0.09-0.62-0.26c-0.18-0.18-0.26-0.38-0.26-0.62
			c0-0.25,0.09-0.46,0.26-0.64C235.81,128.97,236.01,128.88,236.25,128.88z M238.4,134.32c0-0.38-0.13-0.68-0.39-0.91
			c-0.2-0.16-0.44-0.24-0.71-0.24c-0.6,0-1.03,0.24-1.3,0.71c-0.18,0.3-0.26,0.67-0.26,1.12c0,0.62,0.19,1.1,0.58,1.45
			c0.31,0.29,0.72,0.43,1.23,0.43h0.5c0.23,0,0.35-0.12,0.35-0.35V134.32z M238.36,128.88c0.25,0,0.46,0.09,0.64,0.26
			c0.18,0.18,0.26,0.39,0.26,0.64c0,0.24-0.09,0.45-0.26,0.62c-0.18,0.18-0.39,0.26-0.64,0.26c-0.24,0-0.45-0.09-0.62-0.26
			c-0.18-0.18-0.26-0.38-0.26-0.62c0-0.25,0.09-0.46,0.26-0.64C237.91,128.97,238.12,128.88,238.36,128.88z M245.05,131.93v4.96
			h0.71v1.41h-0.72c-0.07,1.11-0.51,1.96-1.32,2.55c-0.66,0.49-1.48,0.73-2.45,0.73c-0.17,0-0.35,0-0.54-0.01l-0.68-0.84v-0.6
			c0.3,0.05,0.58,0.07,0.86,0.07c1.63,0,2.45-0.79,2.45-2.38v-5.89H245.05z M249.83,128.38v8.39c0,0.39-0.12,0.72-0.37,1
			c-0.29,0.35-0.66,0.53-1.12,0.53h-2.67v-1.41h2.13c0.1,0,0.19-0.04,0.26-0.11c0.06-0.06,0.1-0.14,0.1-0.24v-8.16H249.83z
			 M253.43,128.38v9.57l-0.86,0.69h-0.83v-10.26H253.43z M267.12,128.38v9.58c0,1.1-0.33,1.97-1,2.6c-0.7,0.69-1.68,1.04-2.94,1.04
			h-1.37c-1.21,0-2.17-0.32-2.87-0.96c-0.71-0.64-1.07-1.53-1.07-2.69v-2.48l0.86-0.69h0.83v3.02c0,0.88,0.22,1.49,0.66,1.85
			c0.44,0.36,1.2,0.53,2.28,0.53c1.04,0,1.78-0.16,2.2-0.48c0.48-0.37,0.72-1,0.72-1.9v-9.43H267.12z M271.98,138.3
			c-1.02,0-1.81-0.35-2.4-1.04c-0.49-0.59-0.73-1.32-0.73-2.19c0-1.03,0.29-1.84,0.87-2.42c0.61-0.59,1.39-0.89,2.34-0.89
			c0.69,0,1.29,0.17,1.8,0.51c0.66,0.48,1,1.16,1,2.05v2.56h0.44v1.41h-0.46c-0.06,1-0.42,1.78-1.05,2.34
			c-0.44,0.4-0.97,0.67-1.59,0.82c-0.43,0.1-0.86,0.15-1.27,0.15c-0.14,0-0.34-0.01-0.6-0.03h-0.04l-0.71-0.87v-0.61
			c0.38,0.06,0.73,0.1,1.07,0.1c1.51,0,2.34-0.63,2.48-1.9H271.98z M273.17,134.32c0-0.37-0.12-0.66-0.36-0.87
			c-0.21-0.18-0.46-0.28-0.75-0.28c-0.47,0-0.84,0.17-1.12,0.5c-0.28,0.33-0.42,0.79-0.42,1.37c0,0.56,0.15,1.01,0.46,1.34
			c0.3,0.33,0.72,0.5,1.25,0.5h0.94V134.32z M277.04,132.16c0.88-0.27,1.68-0.4,2.4-0.4c1.12,0,2.02,0.35,2.7,1.05
			c0.62,0.63,0.93,1.42,0.93,2.38v1.48v0.21h0.46v1.41h-0.29l-0.46-0.57h-0.03c-0.31,0.38-0.71,0.57-1.18,0.57h-6.37v-1.41h5.83
			c0.23,0,0.35-0.12,0.35-0.35v-1.25c0-0.63-0.21-1.13-0.63-1.52c-0.42-0.38-0.97-0.57-1.65-0.57c-0.45,0-1.14,0.1-2.05,0.3V132.16z
			 M287.59,131.93v4.75v0.21h0.71v1.41h-0.48l-0.51-0.57h-0.03c-0.31,0.38-0.71,0.57-1.18,0.57h-2.67v-1.41h2.09
			c0.13,0,0.22-0.04,0.28-0.11c0.08-0.07,0.12-0.17,0.12-0.28v-4.57H287.59z M284.77,128.88c0.25,0,0.46,0.09,0.64,0.26
			c0.18,0.18,0.26,0.39,0.26,0.64c0,0.24-0.09,0.45-0.26,0.62c-0.18,0.18-0.39,0.26-0.64,0.26s-0.46-0.09-0.64-0.26
			c-0.18-0.18-0.26-0.38-0.26-0.62c0-0.25,0.09-0.46,0.26-0.64C284.3,128.97,284.52,128.88,284.77,128.88z M286.87,128.88
			c0.25,0,0.46,0.09,0.64,0.26c0.18,0.18,0.26,0.39,0.26,0.64c0,0.24-0.09,0.45-0.26,0.62c-0.18,0.18-0.39,0.26-0.64,0.26
			c-0.24,0-0.45-0.09-0.62-0.26c-0.18-0.18-0.26-0.38-0.26-0.62c0-0.25,0.09-0.46,0.26-0.64
			C286.42,128.97,286.63,128.88,286.87,128.88z M292.37,128.38v8.39c0,0.39-0.12,0.72-0.37,1c-0.29,0.35-0.66,0.53-1.12,0.53h-2.67
			v-1.41h2.13c0.1,0,0.19-0.04,0.26-0.11c0.06-0.06,0.1-0.14,0.1-0.24v-8.16H292.37z M295.97,128.38v9.57l-0.86,0.69h-0.83v-10.26
			H295.97z M302.12,135.89v1.92c0,0.88,0.22,1.49,0.66,1.85c0.44,0.36,1.19,0.53,2.26,0.53c0.93,0,1.61-0.12,2.02-0.36
			c0.51-0.29,0.8-0.8,0.87-1.54h-0.86l-0.72-0.89v-0.53h3.82v1.41h-0.53c-0.07,1.15-0.54,2.02-1.38,2.6
			c-0.66,0.47-1.51,0.71-2.53,0.71h-1.37c-1.16,0-2.09-0.3-2.78-0.9c-0.77-0.63-1.15-1.54-1.15-2.74v-1.4l0.86-0.68H302.12z
			 M303.94,142.41c0.25,0,0.46,0.09,0.64,0.26c0.18,0.18,0.26,0.39,0.26,0.64s-0.09,0.46-0.26,0.64c-0.18,0.18-0.39,0.26-0.64,0.26
			c-0.25,0-0.46-0.09-0.64-0.26c-0.18-0.18-0.26-0.39-0.26-0.64s0.09-0.46,0.26-0.64C303.48,142.5,303.7,142.41,303.94,142.41z
			 M306.05,142.41c0.25,0,0.46,0.09,0.64,0.26c0.18,0.18,0.26,0.39,0.26,0.64s-0.09,0.46-0.26,0.64c-0.18,0.18-0.39,0.26-0.64,0.26
			c-0.24,0-0.45-0.09-0.62-0.26c-0.18-0.18-0.26-0.39-0.26-0.64s0.09-0.46,0.26-0.64C305.6,142.5,305.81,142.41,306.05,142.41z
			 M311.76,136.89c-0.21-0.27-0.38-0.59-0.5-0.96c-0.1-0.35-0.15-0.7-0.15-1.05c0-0.81,0.24-1.49,0.71-2.04
			c0.6-0.72,1.44-1.08,2.53-1.08c0.78,0,1.42,0.21,1.94,0.62c0.56,0.48,0.84,1.13,0.84,1.94v2.45c0,0.38-0.12,0.72-0.37,1.01
			c-0.3,0.34-0.67,0.51-1.12,0.51h-6.66v-1.41H311.76z M315.44,134.32c0-0.38-0.13-0.68-0.39-0.91c-0.2-0.16-0.44-0.24-0.71-0.24
			c-0.6,0-1.03,0.24-1.3,0.71c-0.18,0.3-0.26,0.67-0.26,1.12c0,0.62,0.19,1.1,0.58,1.45c0.31,0.29,0.72,0.43,1.23,0.43h0.5
			c0.23,0,0.35-0.12,0.35-0.35V134.32z M314.34,128.88c0.25,0,0.46,0.09,0.64,0.26c0.18,0.18,0.26,0.39,0.26,0.64
			c0,0.24-0.09,0.45-0.26,0.62c-0.18,0.18-0.39,0.26-0.64,0.26c-0.24,0-0.45-0.09-0.62-0.26c-0.18-0.18-0.26-0.38-0.26-0.62
			c0-0.25,0.09-0.46,0.26-0.64C313.9,128.97,314.1,128.88,314.34,128.88z M325.27,131.93v4.96h0.71v1.41h-0.72
			c-0.07,1.12-0.52,1.97-1.33,2.56c-0.66,0.48-1.49,0.72-2.46,0.72c-0.12,0-0.29,0-0.51-0.01l-0.68-0.84v-0.6
			c0.3,0.05,0.58,0.07,0.86,0.07c1.63,0,2.45-0.79,2.45-2.38v-5.89H325.27z M324.43,128.88c0.25,0,0.46,0.09,0.64,0.26
			c0.18,0.18,0.26,0.39,0.26,0.64c0,0.24-0.09,0.45-0.26,0.62c-0.18,0.18-0.39,0.26-0.64,0.26c-0.25,0-0.46-0.09-0.63-0.26
			c-0.17-0.17-0.26-0.38-0.26-0.63s0.09-0.46,0.26-0.64C323.97,128.97,324.18,128.88,324.43,128.88z M330.05,131.93v4.75v0.21h0.71
			v1.41h-0.48l-0.51-0.57h-0.03c-0.31,0.38-0.71,0.57-1.18,0.57h-2.67v-1.41h2.09c0.13,0,0.22-0.04,0.28-0.11
			c0.08-0.07,0.12-0.17,0.12-0.28v-4.57H330.05z M327.04,139.31c0.25,0,0.46,0.09,0.64,0.26c0.18,0.18,0.26,0.39,0.26,0.64
			s-0.09,0.46-0.26,0.64c-0.18,0.18-0.39,0.26-0.64,0.26s-0.46-0.09-0.64-0.26c-0.18-0.18-0.26-0.39-0.26-0.64s0.09-0.46,0.26-0.64
			C326.58,139.4,326.79,139.31,327.04,139.31z M329.15,139.31c0.25,0,0.46,0.09,0.64,0.26c0.18,0.18,0.26,0.39,0.26,0.64
			s-0.09,0.46-0.26,0.64c-0.18,0.18-0.39,0.26-0.64,0.26c-0.24,0-0.45-0.09-0.62-0.26c-0.18-0.18-0.26-0.39-0.26-0.64
			s0.09-0.46,0.26-0.64C328.7,139.4,328.91,139.31,329.15,139.31z M333.12,136.89c-0.22-0.54-0.33-1.14-0.33-1.8
			c0-1.09,0.34-1.93,1.01-2.53c0.56-0.51,1.28-0.77,2.16-0.78c0.78,0,1.43,0.18,1.92,0.55c0.61,0.46,0.91,1.13,0.91,1.99v2.22
			c0,0.08,0.02,0.16,0.07,0.24c0.07,0.07,0.16,0.11,0.25,0.11h0.12v1.41h-0.61c-0.42,0-0.77-0.15-1.07-0.44
			c-0.45,0.57-1.05,0.86-1.8,0.86c-0.8,0-1.49-0.3-2.05-0.89h-0.03l-0.39,0.47h-2.64v-1.41H333.12z M337.11,134.32
			c0-0.34-0.11-0.62-0.32-0.83c-0.19-0.21-0.47-0.32-0.83-0.32c-0.45,0-0.81,0.18-1.09,0.53c-0.27,0.35-0.41,0.82-0.41,1.41
			c0,0.65,0.14,1.17,0.42,1.58c0.28,0.41,0.63,0.61,1.07,0.61c0.4,0,0.78-0.19,1.16-0.57V134.32z M343.32,131.93v4.75v0.21h0.71
			v1.41h-0.48l-0.51-0.57H343c-0.31,0.38-0.71,0.57-1.18,0.57h-2.67v-1.41h2.09c0.13,0,0.22-0.04,0.28-0.11
			c0.08-0.07,0.12-0.17,0.12-0.28v-4.57H343.32z M340.49,128.88c0.25,0,0.46,0.09,0.64,0.26c0.18,0.18,0.26,0.39,0.26,0.64
			c0,0.24-0.09,0.45-0.26,0.62c-0.18,0.18-0.39,0.26-0.64,0.26s-0.46-0.09-0.64-0.26c-0.18-0.18-0.26-0.38-0.26-0.62
			c0-0.25,0.09-0.46,0.26-0.64C340.03,128.97,340.24,128.88,340.49,128.88z M342.6,128.88c0.25,0,0.46,0.09,0.64,0.26
			c0.18,0.18,0.26,0.39,0.26,0.64c0,0.24-0.09,0.45-0.26,0.62c-0.18,0.18-0.39,0.26-0.64,0.26c-0.24,0-0.45-0.09-0.62-0.26
			c-0.18-0.18-0.26-0.38-0.26-0.62c0-0.25,0.09-0.46,0.26-0.64C342.15,128.97,342.36,128.88,342.6,128.88z M348.09,128.38v8.39
			c0,0.39-0.12,0.72-0.37,1c-0.29,0.35-0.66,0.53-1.12,0.53h-2.67v-1.41h2.13c0.1,0,0.19-0.04,0.26-0.11
			c0.06-0.06,0.1-0.14,0.1-0.24v-8.16H348.09z M351.69,128.38v9.57l-0.86,0.69H350v-10.26H351.69z"/>
		<g>
			<g id="XMLID_27_">
				<path id="XMLID_28_" class="st4" d="M87.42,96.93l-1.53,1.53l1.53,1.55l1.54-1.55L87.42,96.93z M90.51,93.83l-1.55,1.55
					l1.55,1.55l1.55-1.55L90.51,93.83z M93.6,93.83l-1.54,1.55l1.54,1.55l1.55-1.55L93.6,93.83z M93.6,96.92l-3.09,3.09l1.55,1.55
					l1.54-1.55l1.55,1.55l1.53-1.55C95.65,98.99,94.63,97.95,93.6,96.92z"/>
				<path class="st4" d="M93.56,103.08l-3.07,3.08l-1.52-1.52l-1.54,1.55l1.52,1.52l-24.56,24.56l-6.15,6.13l-6.16-6.13
					l-11.27-11.27l3.02-3.02l3.14-3.13l11.27,11.27l22.84-22.85l3.25-3.27l1.56,1.56l1.53-1.55c1.04,1.03,2.07,2.06,3.09,3.08
					l1.53-1.52L93.56,103.08z"/>
			</g>
			<g>
				<g id="XMLID_25_">
					<path id="XMLID_26_" class="st5" d="M14.16,117.68l-1.55,1.55l-1.54-1.55l-1.53,1.55c1.03,1.02,2.05,2.06,3.08,3.09l3.09-3.09
						L14.16,117.68z M12.62,122.32l-1.54,1.55l1.54,1.55l1.55-1.55L12.62,122.32z M15.71,122.32l-1.54,1.55l1.54,1.55l1.54-1.55
						L15.71,122.32z M18.8,119.23l-1.55,1.55l1.55,1.53l1.53-1.53L18.8,119.23z"/>
					<rect x="54.43" y="48.98" class="st5" width="0.01" height="2.36"/>
					<polygon class="st5" points="24.42,104.41 24.33,104.5 24.11,104.7 					"/>
					<polygon class="st5" points="33.62,107.51 30.48,110.64 30.6,110.51 					"/>
				</g>
				<g id="XMLID_23_">
					<path id="XMLID_24_" class="st5" d="M58.78,49.15h-2.17l-0.01,2.18h2.19L58.78,49.15z"/>
					<rect x="63.16" y="51.33" class="st5" width="2.19" height="2.19"/>
					<rect x="60.98" y="49.14" class="st5" width="2.18" height="2.19"/>
					<path class="st5" d="M63.16,53.52c0,1.45-0.01,2.91,0,4.35l-2.18,0.01v-2.18h-2.19v-2.19H63.16z"/>
					<path class="st5" d="M54.43,48.98v2.36h0.01l2.17-0.01c0.01,1.46,0.01,2.93,0.01,4.37l2.17,0.01v2.13l-4.34,0.01h-0.01v-2.15
						h-2.18v2.83c-0.13,0.05-0.26,0.09-0.39,0.14c-5.51,2.21-9.72,6.99-11.13,12.85h53.74C92.5,55.16,79.48,42.15,63.11,40.19
						c-1.42-0.18-2.87-0.27-4.33-0.27c-1.47,0-2.94,0.09-4.37,0.27c-7.51,0.9-14.3,4.13-19.66,8.95c-2.86,2.56-5.3,5.58-7.21,8.94
						c-2.33,4.05-3.87,8.59-4.46,13.44c-0.18,1.43-0.27,2.89-0.27,4.35c0,1.47,0.09,2.91,0.27,4.34c0.82,6.75,3.5,12.93,7.54,17.99
						c0.5,0.64,1.04,1.28,1.59,1.87l0.13,0.14l2.06,2.07l0.14,0.12c0.74,0.68,1.49,1.31,2.27,1.91l-0.19,0.19l-1.46,1.45l-1.55,1.56
						l-3.02,3l-0.12,0.13l-5.34,5.34l-3.25,3.27l-1.56-1.56l-1.53,1.55c-1.04-1.03-2.07-2.06-3.09-3.08l-1.53,1.52l-1.51-1.51
						l3.07-3.08l1.52,1.52l1.55-1.54l-1.52-1.52l5.86-5.86l0.97-0.97l0.22-0.2l0.08-0.09c-5.56-6.7-9.21-15.03-10.09-24.19
						c-0.14-1.43-0.21-2.88-0.21-4.34c0-1.46,0.07-2.91,0.21-4.35c0.47-4.82,1.7-9.41,3.58-13.66c1.36-3.11,3.08-6.03,5.09-8.71
						c7.32-9.8,18.58-16.49,31.42-17.72c1.45-0.14,2.89-0.21,4.37-0.21c1.45,0,2.91,0.07,4.33,0.21
						c21.2,2.04,38.05,18.89,40.1,40.09c0.13,1.44,0.21,2.89,0.21,4.35c0,1.46-0.08,2.91-0.21,4.34H31.86
						c-0.23-1.4-0.35-2.87-0.35-4.34c0-1.49,0.12-2.93,0.35-4.35c0.81-4.96,2.96-9.49,6.09-13.18
						C42.04,53.46,47.85,50.04,54.43,48.98z"/>
					<path class="st5" d="M52.25,58.53v0.15l-0.39-0.01C51.99,58.62,52.12,58.57,52.25,58.53z"/>
				</g>
			</g>
		</g>
	</g>
</g>
</svg>
