<svg xmlns="http://www.w3.org/2000/svg" xmlns:xlink="http://www.w3.org/1999/xlink" version="1.1" x="0px" y="0px"
     viewBox="0 0 512 640" style="enable-background:new 0 0 512 512;" xml:space="preserve">
  <g>
    <g>
      <g>
        <g>
          <path d="M256,393c-59,0-107-48-107-107V126c0-59,48-107,107-107s107,48,107,107v160C363,345,315,393,256,393z M256,33 c-51.28,0-93,41.72-93,93v160c0,51.28,41.72,93,93,93s93-41.72,93-93V126C349,74.72,307.28,33,256,33z"
            fill="#FFFFFF" />
        </g>
        <g>
          <path d="M256,443c-81.056,0-147-65.944-147-147c0-3.866,3.134-7,7-7s7,3.134,7,7c0,73.337,59.664,133,133,133 c73.337,0,133-59.663,133-133c0-3.866,3.134-7,7-7s7,3.134,7,7C403,377.056,337.056,443,256,443z" fill="#FFFFFF" />
        </g>
        <g>
          <path d="M256,493c-3.866,0-7-3.134-7-7v-50c0-3.866,3.134-7,7-7s7,3.134,7,7v50C263,489.866,259.866,493,256,493z"
            fill="#FFFFFF" />
        </g>
        <g>
          <path d="M286,493h-60c-3.866,0-7-3.134-7-7s3.134-7,7-7h60c3.866,0,7,3.134,7,7S289.866,493,286,493z" fill="#FFFFFF" />
        </g>
        <g>
          <path d="M356,213H156c-3.866,0-7-3.134-7-7s3.134-7,7-7h200c3.866,0,7,3.134,7,7S359.866,213,356,213z" fill="#FFFFFF" />
        </g>
        <g>
          <g>
            <g>
              <path d="M216,133h-60c-3.866,0-7-3.134-7-7s3.134-7,7-7h60c3.866,0,7,3.134,7,7S219.866,133,216,133z" fill="#FFFFFF" />
            </g>
            <g>
              <path d="M216,173h-60c-3.866,0-7-3.134-7-7s3.134-7,7-7h60c3.866,0,7,3.134,7,7S219.866,173,216,173z" fill="#FFFFFF" />
            </g>
          </g>
          <g>
            <path d="M216,253h-60c-3.866,0-7-3.134-7-7s3.134-7,7-7h60c3.866,0,7,3.134,7,7S219.866,253,216,253z" fill="#FFFFFF" />
          </g>
          <g>
            <path d="M216,293h-60c-3.866,0-7-3.134-7-7s3.134-7,7-7h60c3.866,0,7,3.134,7,7S219.866,293,216,293z" fill="#FFFFFF" />
          </g>
        </g>
        <g>
          <g>
            <g>
              <path d="M356,133h-60c-3.866,0-7-3.134-7-7s3.134-7,7-7h60c3.866,0,7,3.134,7,7S359.866,133,356,133z" fill="#FFFFFF" />
            </g>
            <g>
              <path d="M356,173h-60c-3.866,0-7-3.134-7-7s3.134-7,7-7h60c3.866,0,7,3.134,7,7S359.866,173,356,173z" fill="#FFFFFF" />
            </g>
          </g>
          <g>
            <path d="M356,253h-60c-3.866,0-7-3.134-7-7s3.134-7,7-7h60c3.866,0,7,3.134,7,7S359.866,253,356,253z" fill="#FFFFFF" />
          </g>
          <g>
            <path d="M356,293h-60c-3.866,0-7-3.134-7-7s3.134-7,7-7h60c3.866,0,7,3.134,7,7S359.866,293,356,293z" fill="#FFFFFF" />
          </g>
        </g>
      </g>
      <g>
        <path d="M486,493c-1.791,0-3.583-0.684-4.95-2.05l-460-460c-2.734-2.733-2.734-7.166,0-9.899 c2.733-2.733,7.166-2.733,9.899,0l460,460c2.733,2.734,2.733,7.166,0,9.9C489.583,492.316,487.791,493,486,493z" fill="#FFFFFF" />
      </g>
    </g>
  </g>
</svg>
