<svg xmlns="http://www.w3.org/2000/svg" width="24" height="24" viewBox="0 0 24 24">
  <g id="vuesax_bulk_search-zoom-out" data-name="vuesax/bulk/search-zoom-out" transform="translate(-236 -188)">
    <g id="search-zoom-out">
      <path id="Vector" d="M18.02,9.01A9.01,9.01,0,1,1,9.01,0,9.01,9.01,0,0,1,18.02,9.01Z" transform="translate(238 190)" fill="#fff" opacity="0.4"/>
      <path id="Vector-2" data-name="Vector" d="M6.5.75a.755.755,0,0,1-.75.75h-5A.755.755,0,0,1,0,.75.755.755,0,0,1,.75,0h5A.755.755,0,0,1,6.5.75Z" transform="translate(243.75 198.25)" fill="#fff"/>
      <path id="Vector-3" data-name="Vector" d="M3.992.95A2.1,2.1,0,0,0,2.022,0,2.02,2.02,0,0,0,.342.79a2.029,2.029,0,0,0-.22,1.84c.43,1.3,1.18,1.59,1.59,1.64a1.148,1.148,0,0,0,.19.01A2.168,2.168,0,0,0,3.682,3.1,2.06,2.06,0,0,0,3.992.95Z" transform="translate(253.998 206)" fill="#fff"/>
      <path id="Vector-4" data-name="Vector" d="M0,0H24V24H0Z" transform="translate(236 188)" fill="none" opacity="0"/>
    </g>
  </g>
</svg>
