<svg xmlns="http://www.w3.org/2000/svg" width="24" height="24" viewBox="0 0 24 24">
  <g id="vuesax_outline_sun" data-name="vuesax/outline/sun" transform="translate(-172 -188)">
    <g id="sun">
      <path id="Vector" d="M7.25,14.5A7.25,7.25,0,1,1,14.5,7.25,7.255,7.255,0,0,1,7.25,14.5Zm0-13A5.75,5.75,0,1,0,13,7.25,5.757,5.757,0,0,0,7.25,1.5Z" transform="translate(176.75 192.75)" fill="#fff"/>
      <path id="Vector-2" data-name="Vector" d="M11,21.96A.969.969,0,0,1,10,21v-.08a1,1,0,0,1,2,0A1.038,1.038,0,0,1,11,21.96Zm7.14-2.82a1.024,1.024,0,0,1-.71-.29l-.13-.13a1,1,0,0,1,1.41-1.41l.13.13a1,1,0,0,1,0,1.41A.984.984,0,0,1,18.14,19.14Zm-14.28,0a1.024,1.024,0,0,1-.71-.29,1,1,0,0,1,0-1.41l.13-.13a1,1,0,0,1,1.41,1.41l-.13.13A1,1,0,0,1,3.86,19.14ZM21,12h-.08a1,1,0,0,1,0-2,1.038,1.038,0,0,1,1.04,1A.969.969,0,0,1,21,12ZM1.08,12H1a1,1,0,0,1,0-2,1.038,1.038,0,0,1,1.04,1A.969.969,0,0,1,1.08,12ZM18.01,4.99a1.024,1.024,0,0,1-.71-.29,1,1,0,0,1,0-1.41l.13-.13a1,1,0,0,1,1.41,1.41l-.13.13A.984.984,0,0,1,18.01,4.99Zm-14.02,0a1.024,1.024,0,0,1-.71-.29l-.13-.14A1,1,0,0,1,4.56,3.15l.13.13a1,1,0,0,1,0,1.41A.97.97,0,0,1,3.99,4.99ZM11,2.04a.969.969,0,0,1-1-.96V1a1,1,0,0,1,2,0A1.038,1.038,0,0,1,11,2.04Z" transform="translate(173 189)" fill="#fff"/>
      <path id="Vector-3" data-name="Vector" d="M0,0H24V24H0Z" transform="translate(172 188)" fill="none" opacity="0"/>
    </g>
  </g>
</svg>
