<svg xmlns="http://www.w3.org/2000/svg" width="24" height="24" viewBox="0 0 24 24">
  <g id="vuesax_twotone_security-user" data-name="vuesax/twotone/security-user" transform="translate(-748 -252)">
    <g id="security-user">
      <path id="Vector" d="M7.08.233,2.09,2.1A3.472,3.472,0,0,0,0,5.122v7.43a4.862,4.862,0,0,0,1.73,3.44l4.3,3.21a4.552,4.552,0,0,0,5.14,0l4.3-3.21a4.862,4.862,0,0,0,1.73-3.44V5.122A3.472,3.472,0,0,0,15.11,2.1L10.12.233A5.085,5.085,0,0,0,7.08.233Z" transform="translate(751.41 253.997)" fill="none" stroke="#fff" stroke-linecap="round" stroke-linejoin="round" stroke-width="1.5"/>
      <path id="Vector-2" data-name="Vector" d="M1.82,3.52H1.69a1.765,1.765,0,1,1,.13,0Z" transform="translate(758.18 259.4)" fill="none" stroke="#fff" stroke-linecap="round" stroke-linejoin="round" stroke-width="1.5" opacity="0.4"/>
      <path id="Vector-3" data-name="Vector" d="M.72.548a1.3,1.3,0,0,0,0,2.33,3.872,3.872,0,0,0,3.97,0,1.3,1.3,0,0,0,0-2.33A3.872,3.872,0,0,0,.72.548Z" transform="translate(757.29 265.173)" fill="none" stroke="#fff" stroke-linecap="round" stroke-linejoin="round" stroke-width="1.5" opacity="0.4"/>
      <path id="Vector-4" data-name="Vector" d="M0,0H24V24H0Z" transform="translate(748 252)" fill="none" opacity="0"/>
    </g>
  </g>
</svg>
