<svg id="Layer_1" data-name="Layer 1" xmlns="http://www.w3.org/2000/svg" viewBox="0 0 32 32"><g id="_PWA_Support_Exclusive" data-name=" PWA Support Exclusive"><path d="M17.8,17l-1.36-2.23H15.7L14.34,17a1.55,1.55,0,0,0,1,.89s-.72,6.93-1,9.68c1.08-.15,2.22-.37,3.44-.65-.3-3.06-.92-9-.92-9A1.55,1.55,0,0,0,17.8,17Z" fill="#fff"/><path d="M24.58,13.87l-2.19-2.33s-1.6,10.37-2.62,14.86l.29-.08A35.8,35.8,0,0,1,30.47,24.7V16.48Z" fill="#fff"/><path d="M7.42,13.87l-5.9,2.61v9.84s3.31,2.25,11.06,1.46c-.94-3.1-3-16.24-3-16.24Z" fill="#fff"/><path d="M20,9.35l.49-1.25H22l-.68-1.89.85-2.14,2.43,6.43H22.76l-.41-1.15Z" fill="#fff"/><path d="M18.52,10.51l2.59-6.44H19.39L17.61,8.23,16.34,4.07H15L13.67,8.23l-.95-1.89L11.84,9l.88,1.51h1.7l1.22-3.73,1.19,3.73Z" fill="#fff"/><path d="M9.09,8.3h1.06A3,3,0,0,0,11,8.19l.28-.84L12.05,5a1.71,1.71,0,0,0-.21-.26,2.22,2.22,0,0,0-1.72-.66H7.45v6.46H9.09Zm1.4-2.75a.85.85,0,0,1,.24.6.93.93,0,0,1-.21.59A1.06,1.06,0,0,1,9.7,7H9.11V5.32H9.7A1.06,1.06,0,0,1,10.49,5.55Z" fill="#fff"/></g></svg>