<svg id="Layer_1" data-name="Layer 1" xmlns="http://www.w3.org/2000/svg" viewBox="0 0 32 32"><g id="_12_Predefined_Fonts" data-name="12 Predefined Fonts"><path id="_12_Predefined_Fonts-2" data-name="12 Predefined Fonts" d="M27.5,3.22H4.5A1.28,1.28,0,0,0,3.22,4.5v23A1.28,1.28,0,0,0,4.5,28.78h23a1.28,1.28,0,0,0,1.28-1.28V4.5A1.28,1.28,0,0,0,27.5,3.22Zm-3.83,7.67a1.28,1.28,0,1,1-2.56,0H17.28V21.11h1.28a1.28,1.28,0,0,1,0,2.56H13.44a1.28,1.28,0,0,1,0-2.56h1.28V10.89H10.89a1.28,1.28,0,0,1-2.56,0V9.61A1.29,1.29,0,0,1,9.61,8.33H22.39a1.29,1.29,0,0,1,1.28,1.28Z" fill="#fff"/></g></svg>