<svg id="Layer_1" data-name="Layer 1" xmlns="http://www.w3.org/2000/svg" viewBox="0 0 32 32"><g id="_150_Snippets" data-name="150+ Snippets"><path id="Combined-Shape" d="M18.41,25.78a40.43,40.43,0,0,1,11.9-2.45V6.89h0a.72.72,0,0,0-.72-.72h0A31.84,31.84,0,0,0,17.43,9V25.11h0a.72.72,0,0,0,.72.72A.75.75,0,0,0,18.41,25.78Z" fill="#fff" fill-rule="evenodd"/><path id="Path-41-Copy" d="M13.59,25.78a40.43,40.43,0,0,0-11.9-2.45V6.89h0a.72.72,0,0,1,.72-.72h0A31.84,31.84,0,0,1,14.57,9V25.11h0a.72.72,0,0,1-.72.72A.75.75,0,0,1,13.59,25.78Z" fill="#fff" fill-rule="evenodd" opacity="0.3" style="isolation:isolate"/></g></svg>