<svg id="Layer_1" data-name="Layer 1" xmlns="http://www.w3.org/2000/svg" viewBox="0 0 32 32"><g id="_404_Page" data-name="404 Page"><rect x="4.77" y="2.37" width="22.49" height="3.86" rx="0.75" fill="#fff" opacity="0.6" style="isolation:isolate"/><rect x="4.77" y="24.37" width="22.49" height="5.26" rx="0.57" fill="#fff" opacity="0.6" style="isolation:isolate"/><path d="M16.36,14.67a.75.75,0,0,0-.09-.29.34.34,0,0,0-.48-.06s0,0-.07.06a.75.75,0,0,0-.09.29V16a.75.75,0,0,0,.09.3.36.36,0,0,0,.5,0s0,0,0,0a.75.75,0,0,0,.09-.3V15C16.35,14.86,16.37,14.76,16.36,14.67Z" fill="#fff"/><polygon points="11.21 15.63 11.21 14.69 10.54 15.63 11.21 15.63" fill="#fff"/><path d="M26.49,8.71h-21a.76.76,0,0,0-.75.75V21.2a.76.76,0,0,0,.75.75h21a.75.75,0,0,0,.75-.75V9.5a.74.74,0,0,0-.7-.79Zm-13,8a.16.16,0,0,1,0,.12.21.21,0,0,1-.13.05h-.56v.55a.19.19,0,0,1-.19.18H11.35a.17.17,0,0,1-.12-.05.13.13,0,0,1-.05-.12v-.55h-2a.17.17,0,0,1-.12-.05A.13.13,0,0,1,9,16.72v-.93a.15.15,0,0,1,0-.13v-.07l2-2.43a.28.28,0,0,1,.23-.11h1.37a.19.19,0,0,1,.18.18h0v2.34h.57a.18.18,0,0,1,.18.16v0Zm4.58-1V16a1.75,1.75,0,0,1-.17.67,1.52,1.52,0,0,1-.38.53,1.78,1.78,0,0,1-.63.35,3,3,0,0,1-1.72,0,1.63,1.63,0,0,1-.63-.35,1.43,1.43,0,0,1-.39-.53A1.75,1.75,0,0,1,14,16V14.64a1.7,1.7,0,0,1,.17-.66,1.38,1.38,0,0,1,.41-.52,1.83,1.83,0,0,1,.63-.34,2.83,2.83,0,0,1,1.68,0,2,2,0,0,1,.63.34,1.6,1.6,0,0,1,.41.52,2.14,2.14,0,0,1,.17.66v.7c0,.13,0,.23,0,.36Zm4.9,1a.16.16,0,0,1,0,.12.21.21,0,0,1-.13.05h-.57v.55a.16.16,0,0,1,0,.12.21.21,0,0,1-.13.05H20.82a.21.21,0,0,1-.12-.05.22.22,0,0,1-.05-.12v-.55H18.71a.17.17,0,0,1-.12-.05.13.13,0,0,1-.05-.12v-.93a.15.15,0,0,1,0-.13v-.07l1.85-2.41a.29.29,0,0,1,.24-.11H22a.21.21,0,0,1,.12,0,.22.22,0,0,1,.05.12v2.34h.56a.19.19,0,0,1,.13,0,.13.13,0,0,1,0,.12Z" fill="#fff"/><polygon points="20.7 15.63 20.7 14.69 20.02 15.63 20.7 15.63" fill="#fff"/></g></svg>