<svg id="Layer_1" data-name="Layer 1" xmlns="http://www.w3.org/2000/svg" viewBox="0 0 32 32"><g id="About_us_pages" data-name="About us pages"><path d="M8.1,18.15a7.93,7.93,0,0,0-6.15,6c-.2.86.11,1.11.49,1.23a41.69,41.69,0,0,0,9.43,1.1,41.69,41.69,0,0,0,9.43-1.1c.38-.12.69-.37.49-1.23a7.92,7.92,0,0,0-6.15-6l-3.46,2.91a.5.5,0,0,1-.61,0Z" fill="#fff"/><path d="M11.87,5.53a5.28,5.28,0,0,0-5.26,5.32v.36a5.26,5.26,0,1,0,10.52,0v-.36A5.28,5.28,0,0,0,11.87,5.53Z" fill="#fff" fill-rule="evenodd"/><path d="M25.05,9.33A5.06,5.06,0,0,0,20,14.39h0c0,.13,0,.25,0,.37L18.51,16v.78H20.6a5.06,5.06,0,1,0,4.45-7.47Zm0,2.13a.85.85,0,1,1-.85.85A.85.85,0,0,1,25.05,11.46Zm-1.24,2.26h1.47a.47.47,0,0,1,.47.47v2h.53v1.17H23.81V16.16h.53V14.62l-.53-.24Z" fill="#fff" fill-rule="evenodd"/></g></svg>