<svg id="Layer_1" data-name="Layer 1" xmlns="http://www.w3.org/2000/svg" viewBox="0 0 32 32"><g id="AJAX_Shopping_Cart" data-name="AJAX Shopping Cart"><circle cx="13.4" cy="26.33" r="2.58" fill="#fff"/><circle cx="23.73" cy="26.33" r="2.58" fill="#fff"/><path d="M29.51,6.85a.85.85,0,0,0-.66-.31H8.67L7.92,3.73a.86.86,0,0,0-.83-.64h-4a.87.87,0,1,0,0,1.73H6.46l4.42,16.57a.85.85,0,0,0,.83.64H25.44a.86.86,0,1,0,0-1.72H12.34l-.48-1.82,15.4-.78a.87.87,0,0,0,.8-.7l1.72-9.45A.83.83,0,0,0,29.51,6.85ZM22,13.42H16.84a.87.87,0,0,1,0-1.73H22a.87.87,0,1,1,0,1.73Z" fill="#fff"/></g></svg>