<svg id="Layer_1" data-name="Layer 1" xmlns="http://www.w3.org/2000/svg" viewBox="0 0 32 32"><g id="AMP_Support" data-name="AMP Support"><path d="M17.79,2.06a8.05,8.05,0,1,0,8,8A8.05,8.05,0,0,0,17.79,2.06Zm2.75,7.3L17.17,15h-.62l.59-3.65-2,0s-.36-.14-.09-.59l3.31-5.47H19l-.65,3.67h1.95S20.75,8.89,20.54,9.36Z" fill="#fff"/><path d="M9,29.94,3.56,24.68l3.86-3.84a5.9,5.9,0,0,1,6.1-1.38l.85.3h5.22a1.63,1.63,0,0,1,1.63,1.63v.07a1.69,1.69,0,0,1-1.71,1.59H16.38a.64.64,0,0,0,0,1.28h3.14a3,3,0,0,0,3-2.83v0l2.9-3.26A1.75,1.75,0,0,1,27.82,18a1.7,1.7,0,0,1,.24,2.4l0,.05L22.23,27a4.08,4.08,0,0,1-3.06,1.39H10.46Z" fill="#fff"/></g></svg>