<svg id="Layer_1" data-name="Layer 1" xmlns="http://www.w3.org/2000/svg" viewBox="0 0 32 32"><g id="Box_Full_Layout_Options" data-name="Box/Full Layout Options"><rect x="17.85" y="14.13" width="10.02" height="15.53" rx="1.03" fill="#fff" opacity="0.6" style="isolation:isolate"/><path d="M4.9,2.33h8.54a.79.79,0,0,1,.79.79h0v11.2a1,1,0,0,1-1,1h-8a1,1,0,0,1-1-1V3.12A.8.8,0,0,1,4.9,2.33Z" fill="#fff"/><path d="M18.56,2.33H27.1a.79.79,0,0,1,.79.79h0V8.58a1,1,0,0,1-1,1h-8a1,1,0,0,1-1-1V3.12A.8.8,0,0,1,18.56,2.33Z" fill="#fff"/><path d="M5.15,19.56h8a1,1,0,0,1,1,1v8.27a.79.79,0,0,1-.79.79H4.9a.79.79,0,0,1-.79-.79V20.59a1,1,0,0,1,1-1Z" fill="#fff"/></g></svg>