<svg id="Layer_1" data-name="Layer 1" xmlns="http://www.w3.org/2000/svg" viewBox="0 0 32 32"><g id="Brand_Filter" data-name="Brand Filter"><path d="M13.16,23.76a.27.27,0,0,1,.08.19v5.16a1.42,1.42,0,0,0,1.4,1.44,1.38,1.38,0,0,0,.93-.33L18.26,28a1.42,1.42,0,0,0,.51-1.11V24a.27.27,0,0,1,.08-.19l8-8.87H5.18Z" fill="#fff"/><path d="M26.45,9.34H5.55a.85.85,0,0,0-.85.86h0v3H27.3v-3a.85.85,0,0,0-.85-.86Z" fill="#fff"/><circle cx="7.34" cy="4.97" r="2.64" fill="#fff" opacity="0.6" style="isolation:isolate"/><path d="M15.83,6.6a4.31,4.31,0,0,0,4.31-4.3.86.86,0,0,0-.81-.85H12.38a.85.85,0,0,0-.85.85h0A4.31,4.31,0,0,0,15.83,6.6Z" fill="#fff" opacity="0.6" style="isolation:isolate"/><path d="M19.13,7.65H26.5a4.42,4.42,0,0,0-7.37,0Z" fill="#fff" opacity="0.6" style="isolation:isolate"/></g></svg>