<svg id="Layer_1" data-name="Layer 1" xmlns="http://www.w3.org/2000/svg" viewBox="0 0 32 32"><g id="Coming_soon_page" data-name="Coming soon page"><rect x="3.68" y="17.53" width="10.71" height="13.17" rx="0.98" fill="none" stroke="#fff" stroke-linecap="round" stroke-linejoin="round" stroke-width="0.5"/><rect x="3.68" y="1.31" width="10.71" height="13.17" rx="0.98" fill="none" stroke="#fff" stroke-linecap="round" stroke-linejoin="round" stroke-width="0.5"/><rect x="17.59" y="1.31" width="10.71" height="13.17" rx="0.98" fill="none" stroke="#fff" stroke-linecap="round" stroke-linejoin="round" stroke-width="0.5"/><path d="M27.3,17.53H18.6a1,1,0,0,0-1,1v11.2a1,1,0,0,0,1,1h8.74a1,1,0,0,0,1-1h0V18.51a1,1,0,0,0-1-1ZM24.05,28.09a1.12,1.12,0,0,1-2.23,0h0V24.16a1.12,1.12,0,1,1,2.23,0Zm-1.11-5.66a1.17,1.17,0,1,1,1.16-1.17h0a1.15,1.15,0,0,1-1.16,1.15Z" fill="#fff"/></g></svg>