<svg id="Layer_1" data-name="Layer 1" xmlns="http://www.w3.org/2000/svg" viewBox="0 0 32 32"><g id="Configurable_offer_timer" data-name="Configurable offer timer"><path d="M29.4,18c-1.67-1.08-1.79-4.81-.1-6.09.88-.64,1-1.25.81-1.89,0-.1-.05-.19-.1-.32l-.27-.56-5,2.35a9.77,9.77,0,0,1,.91,4A9.57,9.57,0,1,1,12,6.87l-2.38-5-.15.08c-1.25.51-1.35,1.37-1.1,2.5S7,7.93,5.53,8.64a4.18,4.18,0,0,1-1.37.1c-1.65-.44-2,.64-2.53,1.84s0,1.89,1,2.57c1.67,1.08,1.79,4.79.08,6.06A1.66,1.66,0,0,0,2,21.42l.54,1.15a1.64,1.64,0,0,0,2.14.86c2.08-.49,4.83,2,4.63,3.95-.17,1.2.08,2,1.33,2.4s2.3.81,3-.76a4.72,4.72,0,0,1,1-1c1.47-.68,4.29-.37,5,.54s1.44,1.38,2.64.76l.27-.12.18-.07c1.1-.52,1.15-1.35.95-2.43a2.44,2.44,0,0,1,.22-1.28,6.16,6.16,0,0,1,2.58-2.92,3.87,3.87,0,0,1,1.35-.09c1.67.44,2.06-.64,2.52-1.87S30.4,18.65,29.4,18Z" fill="#fff"/><path d="M23.6,10.48a2.27,2.27,0,0,1-.45,1.17,3.37,3.37,0,0,1-.21-.34A10.4,10.4,0,0,0,20.1,8.5a2.21,2.21,0,0,1,3.5,2Z" fill="#fff"/><circle cx="18.19" cy="17.79" r="0.55" fill="#fff"/><circle cx="13.82" cy="13.42" r="0.55" fill="#fff"/><path d="M22.11,11l1.22-1.21L21.78,8.29,20.57,9.5A7.62,7.62,0,0,0,17.1,8.05V6.87h1.09a.54.54,0,0,0,.54-.54.55.55,0,0,0-.54-.55H13.82a.55.55,0,0,0-.54.55.54.54,0,0,0,.54.54h1.09V8.05a7.64,7.64,0,1,0,8.73,7.56A7.55,7.55,0,0,0,22.11,11Zm-9.93,2.38a1.64,1.64,0,1,1,1.64,1.64A1.64,1.64,0,0,1,12.18,13.42Zm2.66,5.19a.57.57,0,0,1-.47.27.48.48,0,0,1-.28-.08.55.55,0,0,1-.19-.75l3.27-5.45a.55.55,0,0,1,.94.56Zm3.35.82a1.64,1.64,0,1,1,1.63-1.64A1.64,1.64,0,0,1,18.19,19.43Z" fill="#fff"/></g></svg>