<svg id="Layer_1" data-name="Layer 1" xmlns="http://www.w3.org/2000/svg" viewBox="0 0 32 32"><g id="Contact_us_pages" data-name="Contact us pages"><path d="M20.94,23.74c-2.86-2.3-3.66-1.17-5,.13-.9.91-3.2-1-5.18-3s-3.87-4.27-3-5.18c1.3-1.3,2.43-2.1.12-5s-3.83-.66-5.08.6c-1.46,1.45-.08,6.86,5.26,12.2s10.76,6.72,12.21,5.27C21.61,27.57,23.81,26,20.94,23.74Z" fill="#fff"/><path d="M15.64,19.1a1.61,1.61,0,0,1-1.29-.65,1.59,1.59,0,0,1-.13-1.75,5.63,5.63,0,0,0,.45-1A7,7,0,0,1,11.44,10c0-4.07,4.09-7.38,9.11-7.38S29.67,5.94,29.67,10s-4.09,7.39-9.11,7.39c-.34,0-.68,0-1,0A7.88,7.88,0,0,1,16,19.05,1.73,1.73,0,0,1,15.64,19.1ZM20.56,4.31c-4.1,0-7.43,2.56-7.43,5.7a5.37,5.37,0,0,0,2.93,4.53l.51.3-.11.57a6.73,6.73,0,0,1-.69,2,5.85,5.85,0,0,0,2.84-1.51l.3-.3.42.06a9.14,9.14,0,0,0,1.23.08c4.09,0,7.42-2.55,7.42-5.7S24.65,4.31,20.56,4.31Z" fill="#fff"/><circle cx="16.38" cy="9.95" r="1.5" fill="#fff"/><circle cx="20.56" cy="9.95" r="1.5" fill="#fff"/><circle cx="24.74" cy="9.95" r="1.5" fill="#fff"/></g></svg>