<svg id="Layer_1" data-name="Layer 1" xmlns="http://www.w3.org/2000/svg" viewBox="0 0 32 32"><g id="Display_Brand_in_product_detail_page" data-name="Display Brand in product detail page"><polygon points="15.68 13.6 15.68 29.47 5.89 26.66 5.89 18.58 13.54 19.02 15.68 13.6" fill="#fff" fill-rule="evenodd"/><polygon points="25.64 13.24 16.45 12.68 18.73 18.51 27.91 17.95 25.64 13.24" fill="#fff" fill-rule="evenodd"/><polygon points="16.32 13.6 18.45 19.02 26.11 18.58 26.11 26.66 16.32 29.47 16.32 13.6" fill="#fff" fill-rule="evenodd"/><polygon points="6.36 13.24 4.09 17.95 13.27 18.51 15.55 12.68 6.36 13.24" fill="#fff" fill-rule="evenodd"/><path d="M17.55,5.89a2.09,2.09,0,0,1,1.19,1.18.47.47,0,1,0,.93,0,2.08,2.08,0,0,1,1.18-1.18.47.47,0,1,0,0-.93,2.08,2.08,0,0,1-1.18-1.18.47.47,0,1,0-.93,0A2.09,2.09,0,0,1,17.55,5a.47.47,0,0,0,0,.93Z" fill="#fff"/><path d="M15.33,7.33a2.58,2.58,0,0,1-1.61,1.6.47.47,0,0,0,0,.94,2.58,2.58,0,0,1,1.61,1.61.47.47,0,0,0,.94,0,2.58,2.58,0,0,1,1.6-1.61.47.47,0,0,0,0-.94,2.59,2.59,0,0,1-1.6-1.6.47.47,0,0,0-.94,0Z" fill="#fff"/><path d="M12.29,5.11a2.06,2.06,0,0,1,1.19,1.18.47.47,0,1,0,.93,0,2.08,2.08,0,0,1,1.18-1.18.47.47,0,1,0,0-.93A2.08,2.08,0,0,1,14.41,3a.47.47,0,1,0-.93,0,2.06,2.06,0,0,1-1.19,1.18.47.47,0,0,0,0,.93Z" fill="#fff"/></g></svg>