<svg id="Layer_1" data-name="Layer 1" xmlns="http://www.w3.org/2000/svg" viewBox="0 0 32 32"><g id="Dynamic_Mega-Menu" data-name="Dynamic Mega-Menu"><rect id="Rectangle-7-Copy" x="2.19" y="4.37" width="27.63" height="5.82" rx="1.45" fill="#fff"/><path id="Combined-Shape" d="M3.64,13.09H8a1.46,1.46,0,0,1,1.46,1.46V26.18A1.45,1.45,0,0,1,8,27.63H3.64a1.45,1.45,0,0,1-1.45-1.45V14.55A1.45,1.45,0,0,1,3.64,13.09Zm10.18,0h4.36a1.46,1.46,0,0,1,1.46,1.46V26.18a1.46,1.46,0,0,1-1.46,1.45H13.82a1.46,1.46,0,0,1-1.46-1.45V14.55A1.46,1.46,0,0,1,13.82,13.09Zm10.18,0h4.36a1.45,1.45,0,0,1,1.45,1.46V26.18a1.45,1.45,0,0,1-1.45,1.45H24a1.45,1.45,0,0,1-1.46-1.45V14.55A1.46,1.46,0,0,1,24,13.09Z" fill="#fff" fill-rule="evenodd" opacity="0.3" style="isolation:isolate"/></g></svg>