<svg id="Layer_1" data-name="Layer 1" xmlns="http://www.w3.org/2000/svg" viewBox="0 0 32 32"><g id="Dynamic_Product_and_Category_Snippets" data-name="Dynamic Product and Category Snippets"><circle cx="22.91" cy="22.91" r="1.3" fill="#fff"/><path d="M20.79,23.34h-.87a2.89,2.89,0,0,0,.57,1.37l.62-.62A2.18,2.18,0,0,1,20.79,23.34Z" fill="#fff"/><path d="M21.1,25.32a2.92,2.92,0,0,0,1.38.57V25a2,2,0,0,1-.76-.31Z" fill="#fff"/><path d="M24.71,24.1l.61.61a2.89,2.89,0,0,0,.57-1.37H25A2.11,2.11,0,0,1,24.71,24.1Z" fill="#fff"/><path d="M23.34,25v.87a2.89,2.89,0,0,0,1.37-.57l-.61-.61A2.11,2.11,0,0,1,23.34,25Z" fill="#fff"/><path d="M16.43,5.64a1.3,1.3,0,0,1,1.3-1.3h4.75V3.91A.44.44,0,0,0,22,3.48H6.5a.44.44,0,0,0-.43.43V6.07H16.43ZM7.8,5.21H6.93V4.34H7.8Zm1.72,0H8.66V4.34h.86Zm1.73,0h-.86V4.34h.86Z" fill="#fff"/><path d="M24.71,21.72a2,2,0,0,1,.31.76h.87a2.92,2.92,0,0,0-.57-1.38Z" fill="#fff"/><path d="M21.11,21.72l-.62-.62a2.92,2.92,0,0,0-.57,1.38h.87A2.23,2.23,0,0,1,21.11,21.72Z" fill="#fff"/><path d="M17.89,18.76l.87-.87a1.32,1.32,0,0,1,1.59-.2.43.43,0,0,0,.41,0,.42.42,0,0,0,.26-.3s0-.08.05-.13H17.73A1.3,1.3,0,0,1,16.43,16V12.55a1.3,1.3,0,0,1,1.3-1.3h4.75v-.86H17.73a1.3,1.3,0,0,1-1.3-1.3V6.93H6.07V18.16h8.2a1.29,1.29,0,0,1,1.22.86H17.7A1.15,1.15,0,0,1,17.89,18.76ZM7.37,8.23h7.77v5.18H7.37ZM6.93,14.7H7.8v.87H6.93Zm8.64,2.6H6.93v-.87h8.64Zm0-1.73H8.66V14.7h6.91Z" fill="#fff"/><path d="M24.71,20.49a2.89,2.89,0,0,0-1.37-.57v.87a2.32,2.32,0,0,1,.76.32Z" fill="#fff"/><path d="M22.48,20.79v-.87a2.92,2.92,0,0,0-1.38.57l.62.62A2.15,2.15,0,0,1,22.48,20.79Z" fill="#fff"/><path d="M14.27,19H3.91a.44.44,0,0,0-.43.43v8.64a.43.43,0,0,0,.43.43H14.27a.43.43,0,0,0,.43-.43V19.45A.43.43,0,0,0,14.27,19ZM6.5,27.22H4.78V23.77H6.5Zm3.46,0H8.23V22H10Zm3.45,0H11.68v-6.9h1.73Z" fill="#fff"/><path d="M28.09,12.11H17.73a.44.44,0,0,0-.43.44V16a.43.43,0,0,0,.43.43H28.09a.43.43,0,0,0,.43-.43V12.55A.44.44,0,0,0,28.09,12.11ZM21.61,13h.87v.86h-.87Zm-1.29,2.16H18.59V13.41h1.73Zm7.34.43H21.61V14.7h6.05Zm0-1.73H23.34V13h4.32Z" fill="#fff"/><path d="M28.09,5.21H17.73a.43.43,0,0,0-.43.43V9.09a.43.43,0,0,0,.43.43H28.09a.43.43,0,0,0,.43-.43V5.64A.43.43,0,0,0,28.09,5.21Zm-6.48.86h.87v.86h-.87ZM20.32,8.23H18.59V6.5h1.73Zm7.34.43H21.61V7.8h6.05Zm0-1.73H23.34V6.07h4.32Z" fill="#fff"/><path d="M28.19,21.86a1.27,1.27,0,0,1-.89-.76,1.29,1.29,0,0,1,.07-1.18.45.45,0,0,0-.06-.55l-.87-.87a.44.44,0,0,0-.54-.06,1.32,1.32,0,0,1-1.95-.8.43.43,0,0,0-.43-.34H22.29a.44.44,0,0,0-.43.33,1.31,1.31,0,0,1-.76.89,1.32,1.32,0,0,1-1.18-.08.45.45,0,0,0-.55.06l-.87.87a.44.44,0,0,0-.06.54,1.33,1.33,0,0,1,.08,1.18,1.3,1.3,0,0,1-.88.77.44.44,0,0,0-.34.43v1.23a.44.44,0,0,0,.33.43,1.31,1.31,0,0,1,.81,1.94.45.45,0,0,0,.06.55l.87.87a.46.46,0,0,0,.54.07,1.27,1.27,0,0,1,.68-.19,1.44,1.44,0,0,1,.5.1,1.32,1.32,0,0,1,.77.89.45.45,0,0,0,.43.34h1.23a.45.45,0,0,0,.43-.33,1.33,1.33,0,0,1,1.94-.82.45.45,0,0,0,.55-.06l.87-.87a.45.45,0,0,0,.07-.54,1.3,1.3,0,0,1-.09-1.18,1.32,1.32,0,0,1,.89-.77.45.45,0,0,0,.34-.43V22.29A.45.45,0,0,0,28.19,21.86Zm-5.28,4.93a3.89,3.89,0,1,1,3.88-3.88A3.89,3.89,0,0,1,22.91,26.79Z" fill="#fff"/></g></svg>