<svg id="Layer_1" data-name="Layer 1" xmlns="http://www.w3.org/2000/svg" viewBox="0 0 32 32"><g id="Dynamic_theme_color_picker" data-name="Dynamic theme color picker"><path d="M16.65,24.49c-.15,0-.15.1-.15.22V30h.71c.07,0,.13,0,.19-.06.81-.16,1.62-.25,2.4-.47a12.14,12.14,0,0,0,2.8-1.12c-.94-1.59-1.84-3.17-2.77-4.76A8.21,8.21,0,0,1,16.65,24.49Z" fill="#fff" opacity="0.8"/><path d="M15.5,7.51V2h-.71c-.07,0-.13,0-.19.06-.78.13-1.59.25-2.4.44A12.14,12.14,0,0,0,9.4,3.62c.94,1.58,1.84,3.17,2.74,4.76A9,9,0,0,1,15.5,7.51Z" fill="#fff" opacity="0.8"/><path d="M8.41,12.17c-1.59-.93-3.17-1.83-4.76-2.73a12.65,12.65,0,0,0-1.43,4c-.1.43-.16.9-.22,1.37v.77H7.51A8.28,8.28,0,0,1,8.41,12.17Z" fill="#fff" opacity="0.8"/><path d="M22.6,3.62a.4.4,0,0,1-.16-.1,13.78,13.78,0,0,0-3.8-1.3c-.46-.1-.93-.16-1.4-.22h-.77V7.51a8.41,8.41,0,0,1,3.36.9C20.76,6.79,21.66,5.2,22.6,3.62Z" fill="#fff" opacity="0.8"/><path d="M9.4,28.35c.07,0,.1.06.13.06a13.31,13.31,0,0,0,3.58,1.28c.56.12,1.12.19,1.68.28h.71V24.46a8.41,8.41,0,0,1-3.36-.9C11.24,25.21,10.34,26.76,9.4,28.35Z" fill="#fff" opacity="0.8"/><path d="M7.51,16.5H2v.71c0,.07,0,.13.06.19.16.81.25,1.62.47,2.43A11.92,11.92,0,0,0,3.65,22.6c1.59-.94,3.17-1.84,4.76-2.77A7.81,7.81,0,0,1,7.51,16.5Z" fill="#fff" opacity="0.8"/><path d="M29.94,14.63c-.13-.75-.22-1.49-.41-2.21a12.18,12.18,0,0,0-1.18-3c-1.59.93-3.17,1.83-4.73,2.73.19.59.41,1.12.56,1.68s.22,1.12.34,1.71H30v-.71A.41.41,0,0,0,29.94,14.63Z" fill="#fff" opacity="0.8"/><path d="M24.46,16.72a6.32,6.32,0,0,1-.15,1.05c-.19.72-.44,1.4-.66,2.12,1.53.87,3.11,1.8,4.7,2.71a13.44,13.44,0,0,0,1.43-4c.06-.46.16-.9.22-1.36V16.5H24.71C24.52,16.47,24.49,16.56,24.46,16.72Z" fill="#fff" opacity="0.8"/><path d="M20.67,23.12c.93,1.59,1.83,3.18,2.77,4.76a14.4,14.4,0,0,0,4.48-4.48l-4.8-2.76A8.52,8.52,0,0,1,20.67,23.12Z" fill="#fff" opacity="0.8"/><path d="M23.12,11.33c1.59-.93,3.18-1.83,4.76-2.77A14.4,14.4,0,0,0,23.4,4.08c-.93,1.62-1.83,3.18-2.76,4.76A8.78,8.78,0,0,1,23.12,11.33Z" fill="#fff" opacity="0.8"/><path d="M10,10a16.74,16.74,0,0,1,1.33-1.16c-.9-1.55-1.8-3.14-2.73-4.72A13.89,13.89,0,0,0,4.12,8.6l4.72,2.73A12.71,12.71,0,0,1,10,10Z" fill="#fff" opacity="0.8"/><path d="M8.88,20.67c-1.59.93-3.18,1.83-4.76,2.77A14.09,14.09,0,0,0,8.6,27.92c.93-1.62,1.83-3.18,2.76-4.76A8.78,8.78,0,0,1,8.88,20.67Z" fill="#fff" opacity="0.8"/><path d="M16.16,14.13a2.21,2.21,0,0,0-.25.22l-4.08,4.08a2.43,2.43,0,0,0-.68,1.09,3.13,3.13,0,0,1-.35.68s-.06.06-.06.09a.69.69,0,0,0,.06.91l0,0a.66.66,0,0,0,.87.06h0a1.5,1.5,0,0,1,.62-.37,2.43,2.43,0,0,0,1.24-.72c1.4-1.34,2.74-2.71,4.14-4.08a1.33,1.33,0,0,0,.22-.21,1.27,1.27,0,0,0,.15.21.54.54,0,0,0,.84,0l.44-.43c.34-.34.44-.53.12-.93.28-.28.6-.56.88-.84a3.45,3.45,0,0,0,1.05-1.34.61.61,0,0,0,0-.44,1.84,1.84,0,0,0-.77-1.27,1.26,1.26,0,0,0-1.19-.16,2.9,2.9,0,0,0-1,.78l-1.12,1.12c-.38-.25-.59-.22-.87.06a6.62,6.62,0,0,0-.53.53.48.48,0,0,0,0,.68C15.91,14,16,14,16.16,14.13Zm.28.41,1,1.06a.43.43,0,0,1-.06.09c-1.4,1.4-2.8,2.8-4.23,4.2a2,2,0,0,1-.93.53,2.75,2.75,0,0,0-.78.4.06.06,0,0,0-.06.06.17.17,0,0,1-.25,0,.18.18,0,0,1,0-.24c.09-.1.15-.22.25-.32a1.58,1.58,0,0,0,.21-.52,1.65,1.65,0,0,1,.47-.88C13.54,17.43,15,16,16.44,14.54Z" fill="#fff"/></g></svg>