<svg id="Layer_1" data-name="Layer 1" xmlns="http://www.w3.org/2000/svg" viewBox="0 0 32 32"><g id="Exclusive_deals_of_the_day_page" data-name="Exclusive deals of the day page"><path d="M14.28,23.68a.82.82,0,0,1-.36-.24l-1.07,1.45.59-.07a.64.64,0,0,1,.66.33l.33.57.69-2.19A1,1,0,0,1,14.28,23.68Z" fill="#fff"/><rect x="14.53" y="17.95" width="2.91" height="0.66" transform="translate(-8.22 16.31) rotate(-44.18)" fill="#fff"/><path d="M17.72,23.68a.59.59,0,0,1-.23,0,1.68,1.68,0,0,1-.83-.32l.87,2.33.33-.58a.64.64,0,0,1,.66-.33l.58.07L18,23.48A.83.83,0,0,1,17.72,23.68Z" fill="#fff"/><path d="M14.85,17.72a.44.44,0,0,0,.43-.44.43.43,0,0,0-.86,0,.44.44,0,0,0,.43.44Z" fill="#fff"/><path d="M17,19a.43.43,0,0,0,0,.86h0A.43.43,0,1,0,17,19Z" fill="#fff"/><path d="M20.39,17.92a1.81,1.81,0,0,1-.65-.76,1.83,1.83,0,0,1,.08-1,1.45,1.45,0,0,0,.09-.6,1.61,1.61,0,0,0-.61-.1,1.82,1.82,0,0,1-1-.24,1.8,1.8,0,0,1-.53-.86c-.07-.19-.19-.52-.29-.55S17.11,14,17,14a1.81,1.81,0,0,1-1,.4,1.81,1.81,0,0,1-1-.4,1.86,1.86,0,0,0-.52-.27h0c-.1,0-.22.36-.29.55a1.8,1.8,0,0,1-.53.86,1.82,1.82,0,0,1-1,.24,1.61,1.61,0,0,0-.61.1,1.45,1.45,0,0,0,.09.6,1.83,1.83,0,0,1,.08,1,1.81,1.81,0,0,1-.65.76c-.17.13-.44.35-.44.45s.27.33.44.46a1.75,1.75,0,0,1,.65.76,1.8,1.8,0,0,1-.08,1c0,.18-.14.53-.09.6s.43.1.61.11a1.73,1.73,0,0,1,1,.23,1.88,1.88,0,0,1,.53.87c.07.18.19.52.29.55s.38-.17.53-.27a1.89,1.89,0,0,1,1-.4,1.89,1.89,0,0,1,1,.4c.15.1.45.29.53.27s.22-.37.29-.55a1.88,1.88,0,0,1,.53-.87,1.73,1.73,0,0,1,1-.23c.18,0,.55,0,.61-.11s0-.42-.09-.6a1.8,1.8,0,0,1-.08-1,1.75,1.75,0,0,1,.65-.76c.17-.13.44-.35.44-.46S20.56,18.05,20.39,17.92ZM16,21.37a3,3,0,1,1,3-3A3,3,0,0,1,16,21.37Z" fill="#fff"/><path d="M28.27,25.83h0L26.65,11.26a2.35,2.35,0,0,0-2.34-2.09H21.09V7a5.09,5.09,0,0,0-5-5.09A5.16,5.16,0,0,0,10.92,7V9.17H7.7a2.35,2.35,0,0,0-2.34,2.09L3.73,25.88a3.84,3.84,0,0,0,3.39,4.24l.42,0H24.41a3.88,3.88,0,0,0,3.88-3.88C28.29,26.11,28.28,26,28.27,25.83ZM12.29,7a3.73,3.73,0,0,1,3.65-3.71A3.77,3.77,0,0,1,19.71,7V9.17H12.29Zm8.57,12.46c-.16.13-.38.31-.41.41a1.47,1.47,0,0,0,.09.6,1.39,1.39,0,0,1,0,1.23,1.4,1.4,0,0,1-1.17.41,1.49,1.49,0,0,0-.59.1,1.6,1.6,0,0,0-.27.53l0,.09,1.37,1.82a.63.63,0,0,1,.12.48.65.65,0,0,1-.74.57l-.72-.08-.39.69a.67.67,0,0,1-.58.34h-.07a.66.66,0,0,1-.56-.45l-1-2.64-.83,2.63a.66.66,0,0,1-1.21.13l-.39-.69-.73.08a.64.64,0,0,1-.48-.12.67.67,0,0,1-.13-.93l1.39-1.89v0a1.6,1.6,0,0,0-.27-.53,1.49,1.49,0,0,0-.59-.1,1.4,1.4,0,0,1-1.17-.41,1.39,1.39,0,0,1,0-1.23,1.47,1.47,0,0,0,.09-.6c0-.1-.25-.28-.41-.41-.34-.27-.72-.58-.72-1s.38-.77.72-1c.16-.12.38-.3.41-.4a1.43,1.43,0,0,0-.09-.6,1.42,1.42,0,0,1,0-1.24,1.43,1.43,0,0,1,1.17-.41,1.52,1.52,0,0,0,.59-.09,1.72,1.72,0,0,0,.27-.53c.15-.4.32-.85.76-1a1.39,1.39,0,0,1,1.16.35,1.7,1.7,0,0,0,.56.28,1.7,1.7,0,0,0,.56-.28,1.39,1.39,0,0,1,1.16-.35c.44.14.61.59.76,1a1.72,1.72,0,0,0,.27.53,1.52,1.52,0,0,0,.59.09,1.43,1.43,0,0,1,1.17.41,1.42,1.42,0,0,1,0,1.24,1.43,1.43,0,0,0-.09.6c0,.1.25.28.41.4.34.27.72.58.72,1S21.2,19.14,20.86,19.41Z" fill="#fff"/></g></svg>