<svg id="Layer_1" data-name="Layer 1" xmlns="http://www.w3.org/2000/svg" viewBox="0 0 32 32"><g id="Fully-Responsive"><rect x="2.3" y="14.16" width="6.93" height="1.17" fill="#fff"/><path d="M12.94,16.13a.28.28,0,0,1-.13,0H9.88v1h2.93a.28.28,0,0,1,.13,0Z" fill="#fff"/><path d="M9.88,15.52h2.93a.28.28,0,0,1,.13,0V11.31a.32.32,0,0,1,.32-.32h8V5.76H5.44v7.76H9.55a.33.33,0,0,1,.33.32v1.68Zm4.43-6.45a.33.33,0,0,1,0,.46L12.48,11.2a.3.3,0,0,1-.22.08.3.3,0,0,1-.23-.1.32.32,0,0,1,0-.45l1.82-1.67A.32.32,0,0,1,14.31,9.07Zm-4.66,2.1a.33.33,0,0,1,0-.45l3.81-3.34a.32.32,0,0,1,.42.48L10.1,11.2a.28.28,0,0,1-.21.08A.3.3,0,0,1,9.65,11.17Z" fill="#fff"/><path d="M2.3,22.39H9.23V16H2.3ZM7.14,20l-1.33.93a.33.33,0,0,1-.19.06.31.31,0,0,1-.26-.14.32.32,0,0,1,.08-.45l1.33-.93a.32.32,0,1,1,.37.53Zm-3.44-.2,3.07-2.14a.32.32,0,0,1,.45.08.33.33,0,0,1-.08.45L4.07,20.28a.3.3,0,0,1-.18.06.31.31,0,0,1-.26-.14A.31.31,0,0,1,3.7,19.76Z" fill="#fff"/><rect x="2.3" y="23.04" width="6.93" height="1.45" fill="#fff"/><path d="M13.58,18.88h1V12.59a.32.32,0,0,1,.32-.32H26.3a.32.32,0,0,1,.32.32v7.85a.32.32,0,0,1-.32.32H17.1v.8H27.58V11.63h-14Z" fill="#fff"/><path d="M4.8,5.44a.32.32,0,0,1,.32-.32H21.53a.32.32,0,0,1,.32.32V11h1V4.08H3.8v9.44h1V5.44Z" fill="#fff"/><path d="M11.69,27.71a.2.2,0,0,0,.2.21h4.36a.2.2,0,0,0,.2-.21v-1H11.69Zm2.38-.79a.38.38,0,0,1,.39.39.39.39,0,0,1-.39.39.4.4,0,0,1-.39-.39A.39.39,0,0,1,14.07,26.92Z" fill="#fff"/><path d="M17.1,23.4h12c.2,0,.53-.66.65-1.2H17.1Zm2.7-.92h1.56a.32.32,0,0,1,0,.64H19.8a.32.32,0,0,1,0-.64Z" fill="#fff"/><path d="M11.69,26h4.76V20.89H11.69Zm3.92-2.52a.32.32,0,0,1,0,.45l-1,.88a.28.28,0,0,1-.21.08.29.29,0,0,1-.24-.11.32.32,0,0,1,0-.45l1-.88A.32.32,0,0,1,15.61,23.51Zm-2.66,0L14.65,22a.32.32,0,0,1,.43.47L13.38,24a.34.34,0,0,1-.21.08.29.29,0,0,1-.24-.11A.32.32,0,0,1,13,23.48Z" fill="#fff"/><path d="M16.25,19.53H11.89a.2.2,0,0,0-.2.2v.52h4.76v-.52A.2.2,0,0,0,16.25,19.53Z" fill="#fff"/><path d="M17.1,20.12H26V12.91H15.19v6h1.06a.85.85,0,0,1,.85.85Zm5-4.13a.33.33,0,0,1,0,.46L20.3,18.12a.3.3,0,0,1-.22.08.33.33,0,0,1-.24-.1.32.32,0,0,1,0-.45L21.67,16A.33.33,0,0,1,22.13,16ZM17.5,17.64l3.81-3.34a.32.32,0,1,1,.42.48l-3.81,3.34a.28.28,0,0,1-.21.08.29.29,0,0,1-.24-.11A.32.32,0,0,1,17.5,17.64Z" fill="#fff"/></g></svg>