<svg id="Layer_1" data-name="Layer 1" xmlns="http://www.w3.org/2000/svg" viewBox="0 0 32 32"><g id="Google_Map_Snippet" data-name="Google Map Snippet"><g opacity="0.6"><path d="M23.75,2.22a6,6,0,0,0-6,6c0,3.09,4.84,8.59,5.38,9.18a.85.85,0,0,0,1.21.07l.06-.07c.55-.61,5.38-6.09,5.38-9.18A6.06,6.06,0,0,0,23.75,2.22Zm0,8.6a2.58,2.58,0,1,1,2.58-2.58h0a2.58,2.58,0,0,1-2.56,2.6h0Z" fill="#fff"/></g><path d="M2.77,12.34a.86.86,0,0,0-.54.81V28.92a.87.87,0,0,0,.86.86.88.88,0,0,0,.32-.07l7.43-2.94V9.11Z" fill="#fff"/><path d="M25.67,18.58a2.57,2.57,0,0,1-3.64.21,2,2,0,0,1-.2-.21l-.67-.75v12l8.07-3.23a.86.86,0,0,0,.54-.79V13.09A37.34,37.34,0,0,1,25.67,18.58Z" fill="#fff"/><path d="M16.54,10.66l-4-1.59v17.7l6.88,2.75V15.67A22.55,22.55,0,0,1,16.54,10.66Z" fill="#fff"/></g></svg>