<svg id="Layer_1" data-name="Layer 1" xmlns="http://www.w3.org/2000/svg" viewBox="0 0 32 32"><g id="Image_Transition_Effects_on_hover" data-name="Image Transition Effects on hover"><path d="M1.58,10.46a1.85,1.85,0,0,0-.13,1.33l2.46,8.26V9.19l-1.33.39A1.87,1.87,0,0,0,1.58,10.46Z" fill="#fff" opacity="0.8"/><path d="M6.15,27.51A1.73,1.73,0,0,0,8,28.77a1.51,1.51,0,0,0,.36-.06l7.29-2.17H5.85Z" fill="#fff" opacity="0.8"/><path d="M28.9,5.4H26.12l-.26-.91A1.75,1.75,0,0,0,24,3.23a1.51,1.51,0,0,0-.36.06L16.62,5.4H6.89A1.77,1.77,0,0,0,5.17,7.18V23.62A1.77,1.77,0,0,0,6.89,25.4h22a1.77,1.77,0,0,0,1.72-1.78V7.18A1.77,1.77,0,0,0,28.9,5.4ZM21,18.51a.23.23,0,0,1-.17-.24,1.13,1.13,0,0,1,1.82-.69.21.21,0,0,1,0,.29.22.22,0,0,1-.28,0,.71.71,0,0,0-1.16.44A.24.24,0,0,1,21,18.51ZM25.24,22l-1.88.71a.74.74,0,0,1-.73-.1l-1.33-1a.37.37,0,0,1-.1-.51l.1-.16a.39.39,0,0,1,.52-.13l.41.25a.11.11,0,0,0,.16,0,.11.11,0,0,0,0-.14l-.88-2.33a.38.38,0,0,1,.22-.49l.16-.06a.38.38,0,0,1,.49.22l.52,1.37a.14.14,0,0,0,.15.07l1.29-.3a.77.77,0,0,1,.9.48L25.69,21A.76.76,0,0,1,25.24,22Zm4.08-2.56-6.67-8a1.1,1.1,0,0,0-1.72,0l-5.19,6.42a1.1,1.1,0,0,1-1.72,0l-2.27-2.76a1.09,1.09,0,0,0-1.71,0L6.47,19.34V7.18a.46.46,0,0,1,.42-.48h22a.46.46,0,0,1,.42.48Z" fill="#fff"/><circle cx="14.96" cy="10.55" r="2.27" fill="#fff" opacity="0.6"/></g></svg>