<svg id="Layer_1" data-name="Layer 1" xmlns="http://www.w3.org/2000/svg" viewBox="0 0 32 32"><g id="Instant_Product_Publish_Unpublish" data-name="Instant Product Publish/Unpublish"><polygon points="15.61 11.23 15.61 30.85 3.5 27.38 3.5 17.39 12.96 17.93 15.61 11.23" fill="#fff" fill-rule="evenodd" opacity="0.6"/><polygon points="27.91 10.79 16.56 10.09 19.37 17.3 30.73 16.61 27.91 10.79" fill="#fff" fill-rule="evenodd" opacity="0.8"/><polygon points="16.39 11.23 19.04 17.93 28.5 17.39 28.5 27.38 16.39 30.85 16.39 11.23" fill="#fff" fill-rule="evenodd" opacity="0.6"/><polygon points="4.08 10.79 1.27 16.61 12.63 17.3 15.44 10.09 4.08 10.79" fill="#fff" fill-rule="evenodd" opacity="0.8"/><path d="M15.37,3.88,13.43,1.37a.56.56,0,0,0-.9,0L10.58,3.88A.57.57,0,0,0,11,4.8h1V9.16a.33.33,0,0,0,.33.33H13.6a.33.33,0,0,0,.33-.33V4.8h1A.57.57,0,0,0,15.37,3.88Z" fill="#fff"/><path d="M21.42,6.76,19.48,9.27a.57.57,0,0,1-.9,0L16.63,6.76a.57.57,0,0,1,.46-.92h1V1.48a.33.33,0,0,1,.33-.33h1.25a.33.33,0,0,1,.33.33V5.84h1A.57.57,0,0,1,21.42,6.76Z" fill="#fff"/></g></svg>