<svg id="Layer_1" data-name="Layer 1" xmlns="http://www.w3.org/2000/svg" viewBox="0 0 32 32"><g id="Maintenance_page" data-name="Maintenance page"><path d="M6.83,4.1a.39.39,0,0,0-.35.43.32.32,0,0,0,.11.24L9.25,7.43V8.3l-.95,1H7.43L4.77,6.59a.4.4,0,0,0-.56,0,.43.43,0,0,0-.11.28v3.18a.43.43,0,0,0,.11.28l2,2a.36.36,0,0,0,.28.12h3l3.4,3.4,2.95-2.94-3.41-3.4v-3a.36.36,0,0,0-.12-.27l-2-2a.43.43,0,0,0-.28-.11H6.83Zm19.44,0a.33.33,0,0,0-.13,0l-4,2a.4.4,0,0,0-.22.35V7.9l-9,9L15.14,19l9-9h1.42a.42.42,0,0,0,.36-.22l2-4a.39.39,0,0,0-.07-.46L26.6,4.21a.38.38,0,0,0-.33-.11ZM19.11,16.16l-2.94,2.95,3.4,3.4v3a.4.4,0,0,0,.12.29l2,2a.44.44,0,0,0,.28.12h3.18a.39.39,0,0,0,.39-.4.39.39,0,0,0-.11-.28l-2.66-2.66v-.86l.95-1h.87l2.66,2.67a.4.4,0,0,0,.56,0,.44.44,0,0,0,.12-.28V22a.44.44,0,0,0-.12-.28l-2-2a.36.36,0,0,0-.28-.12h-3Zm-7.48.63a.44.44,0,0,0-.28.12l-.91.91,3.74,3.73.91-.91a.4.4,0,0,0,0-.56l-3.17-3.17A.4.4,0,0,0,11.63,16.79ZM9.88,18.38,4.94,23.32a2.72,2.72,0,0,0-.1,3.84,2.71,2.71,0,0,0,3.83-.1l4.95-4.94Z" fill="#fff"/></g></svg>