<svg id="Layer_1" data-name="Layer 1" xmlns="http://www.w3.org/2000/svg" viewBox="0 0 32 32"><g id="Megamenu_Image_Transition_Effects" data-name="Megamenu Image Transition Effects"><path d="M7.12,16.52H3.26a.83.83,0,0,1-.82-.83V3.4a.82.82,0,0,1,.82-.82h12.3a.82.82,0,0,1,.82.82V7.25a.82.82,0,0,1-.82.82H13.23a5.32,5.32,0,0,0-5.31,5.31v2.33A.83.83,0,0,1,7.12,16.52ZM14,23.09v-.84a8.18,8.18,0,0,1,8.15-8.12H23a3.65,3.65,0,0,1,.46.07v-.87a3.76,3.76,0,0,0-3.73-3.78H13.23a3.81,3.81,0,0,0-3.81,3.78v6.48a3.81,3.81,0,0,0,3.81,3.78h.86c0-.17-.1-.33-.1-.5ZM29.54,21.8V20.05l-.06-.15-.05-.15-.07-.15-.42-.16-.08-.15-.07-.13L28.71,19l-.07-.11-.1-.16-.07-.1-.11-.15-.06-.09-.12-.16v-.07L28.05,18v-.07l-.15-.16h0l-.18-.18h0a6.54,6.54,0,0,0-4.08-1.86H22.3a6.65,6.65,0,0,0-6.65,6.65v.84a1.43,1.43,0,0,0,.06.5,6.61,6.61,0,0,0,1.87,4.08h0l.18.18h0l.17.15H18l.16.14.08.05.17.12.09.07.15.11.1.07.16.1.11.06.15.09.12.07.16.08.13.05.16.07.14.05.16.06h.28l.1.1H23a6.47,6.47,0,0,0,6.52-5.9c0-.22,0-.45,0-.67V21.67c0-.11,0,.17,0,.12Z" fill="#fff"/></g></svg>