<svg id="Layer_1" data-name="Layer 1" xmlns="http://www.w3.org/2000/svg" viewBox="0 0 32 32"><g id="Multilingual_RTL_Support" data-name="Multilingual &amp; RTL Support"><polygon points="9.81 9.69 9.47 9.69 8.83 12.88 10.43 12.88 9.81 9.69" fill="#fff"/><path d="M22.65,16a8.44,8.44,0,0,0,1.28,2.36A8.13,8.13,0,0,0,25.31,16Z" fill="#fff"/><path d="M27.19,7.26H17.32l2.06,16.51a2.47,2.47,0,0,1-.59,1.8l-3.47,4H27.19a2.39,2.39,0,0,0,2.35-2.34V9.69A2.42,2.42,0,0,0,27.19,7.26Zm0,8.78H27a10.09,10.09,0,0,1-1.91,3.49c.58.54,1.21,1,1.82,1.46a.8.8,0,1,1-.83,1.36.57.57,0,0,1-.15-.12c-.68-.53-1.3-1-1.94-1.56-.63.58-1.22,1-1.89,1.56A.79.79,0,0,1,21,22a.8.8,0,0,1,.1-1c.62-.49,1.19-.93,1.78-1.46A9.93,9.93,0,0,1,21,16h-.21a.8.8,0,0,1-.8-.8.79.79,0,0,1,.8-.79h2.38v-.8a.8.8,0,0,1,.8-.8.79.79,0,0,1,.79.8v.8h2.44a.79.79,0,0,1,.79.79.79.79,0,0,1-.79.8Z" fill="#fff"/><path d="M15.39,4.53A2.39,2.39,0,0,0,13,2.44H4.86a2.39,2.39,0,0,0-2.4,2.34V22.41a2.39,2.39,0,0,0,2.4,2.38H17.37c.23-.27.43-.43.44-.78C17.81,23.92,15.41,4.62,15.39,4.53ZM12.2,17.63a.81.81,0,0,1-.94-.63l-.5-2.54H8.52L8,17a.8.8,0,0,1-1.58-.23s0-.06,0-.09L8,8.74a.8.8,0,0,1,.78-.64h1.65a.79.79,0,0,1,.77.64l1.6,7.94a.8.8,0,0,1-.63.94Z" fill="#fff"/><path d="M11.74,26.38l.13,1.12a2.4,2.4,0,0,0,1.37,1.84l2.67-2.94H11.74Z" fill="#fff"/></g></svg>