<svg id="Layer_1" data-name="Layer 1" xmlns="http://www.w3.org/2000/svg" viewBox="0 0 32 32"><g id="Multi_Theme_Support" data-name="Multi Theme Support"><g id="Layer_1-2" data-name="Layer 1-2"><g id="Multi_Theme_Support-2" data-name="Multi Theme Support"><path d="M29.58,1.94H17.94a.52.52,0,0,0-.48.48V8.73h4.36a1.43,1.43,0,0,1,1.46,1.4v4.42h6.3a.52.52,0,0,0,.48-.49V2.42A.52.52,0,0,0,29.58,1.94ZM25.7,3.88H21.82a.52.52,0,0,1-.48-.49.51.51,0,0,1,.48-.45H25.7a.53.53,0,0,1,.49.48A.53.53,0,0,1,25.7,3.88Zm2.91,0h-1a.52.52,0,0,1-.48-.49.51.51,0,0,1,.51-.45h1a.53.53,0,0,1,.49.48A.53.53,0,0,1,28.61,3.88Z" fill="#fff"/><path d="M21.82,9.7H10.18a.52.52,0,0,0-.48.48v6.31h4.36a1.43,1.43,0,0,1,1.46,1.4v4.42h6.3a.54.54,0,0,0,.49-.49V10.18A.53.53,0,0,0,21.82,9.7Z" fill="#fff" opacity="0.8" style="isolation:isolate"/><path d="M14.06,17.46H2.42a.52.52,0,0,0-.48.48V29.58a.52.52,0,0,0,.48.48H14.06a.52.52,0,0,0,.49-.48V17.94A.52.52,0,0,0,14.06,17.46ZM9.21,29.1h-1a.53.53,0,0,1-.48-.49.52.52,0,0,1,.48-.48h1a.52.52,0,0,1,.49.48A.54.54,0,0,1,9.21,29.1Zm4.37-1.41a1.41,1.41,0,0,1-1.41,1.41h-1a.53.53,0,0,1-.48-.49.52.52,0,0,1,.48-.48h1a.44.44,0,0,0,.44-.44h0v-2a.5.5,0,1,1,1,0Z" fill="#fff" opacity="0.6" style="isolation:isolate"/></g></g></g></svg>