<svg id="Layer_1" data-name="Layer 1" xmlns="http://www.w3.org/2000/svg" viewBox="0 0 32 32"><g id="Layer_2" data-name="Layer 2"><g id="Layer_1-2" data-name="Layer 1-2"><path d="M26.28,8.65,20.15,2.51a3.26,3.26,0,0,0-2.27-.94H9.59A4.8,4.8,0,0,0,4.78,6.36V25.62a4.8,4.8,0,0,0,4.8,4.81H22.42a4.8,4.8,0,0,0,4.8-4.81h0V10.92A3.14,3.14,0,0,0,26.28,8.65ZM14.89,9a3.38,3.38,0,1,1-3.38,3.39A3.38,3.38,0,0,1,14.89,9Zm0,16.82a2.68,2.68,0,1,1,2.67-2.69v.05A2.66,2.66,0,0,1,14.89,25.8Zm3.61-2.71a3.61,3.61,0,1,0-7.21,0c-1.21-.23-2-.57-2-1.08,0-2.6.88-4.86,2.69-6a.23.23,0,0,1,.29,0,4.63,4.63,0,0,0,2.69.88A4.46,4.46,0,0,0,17.6,16a.24.24,0,0,1,.28,0c1.77,1.16,2.66,3.41,2.66,6C20.54,22.5,19.71,22.86,18.5,23.09Zm2.31-13.5A1.61,1.61,0,0,1,19.21,8V3.84L25,9.59Z" fill="#fff"/><path d="M16,22.75h-.72v-.67a.38.38,0,0,0-.76,0v.73h-.68a.36.36,0,0,0,0,.71h.68v.72a.36.36,0,0,0,.72,0h0v-.72h.72a.36.36,0,1,0,0-.71Z" fill="#fff"/></g></g></svg>