<svg id="Layer_1" data-name="Layer 1" xmlns="http://www.w3.org/2000/svg" viewBox="0 0 32 32"><g id="One_Click_Installation" data-name="One Click Installation"><path d="M14.86,2.42a.36.36,0,0,0-.36.37h0V5.62a.37.37,0,0,0,.73,0h0V2.79a.37.37,0,0,0-.36-.37ZM10.22,3.88a.36.36,0,0,0-.36.37.35.35,0,0,0,.11.26l2,2A.37.37,0,0,0,12.52,6h0l-2-2a.36.36,0,0,0-.26-.11Zm9.24,0a.33.33,0,0,0-.25.11l-2,2a.37.37,0,0,0,0,.52.35.35,0,0,0,.51,0h0l2-2a.36.36,0,0,0,0-.51.36.36,0,0,0-.27-.12ZM14.93,7h0a1.36,1.36,0,0,0-1.4,1.32l0,10s0,.5-.15.5a.19.19,0,0,1-.1,0h0L9.86,15.47a1.15,1.15,0,0,0-1.63,0l-.16.17a1.23,1.23,0,0,0,.08,1.62l5,6.51s.1.15.14.23a3.1,3.1,0,0,1,.12.44l.1,1.42-.64,0c-.26,0-.47.34-.47.77v2.18c0,.43.21.77.47.77l10.9,0c.26,0,.47-.34.47-.77V26.63c0-.43-.21-.77-.47-.77H23a7.32,7.32,0,0,1,0-1.34c.1-.63.28-.45.65-1.81s.2-6.68.2-6.68a1.26,1.26,0,0,0-1.28-1.32,1.3,1.3,0,0,0-1.25,1.12V15.5s0-1.6-1.28-1.63a1.3,1.3,0,0,0-1.25,1.27v-.72a1.26,1.26,0,1,0-2.52,0V8.35A1.35,1.35,0,0,0,14.93,7ZM9,8.73a.37.37,0,0,0-.37.36A.36.36,0,0,0,9,9.46h2.84a.36.36,0,0,0,.37-.36.37.37,0,0,0-.36-.37H9Zm8.84,0a.37.37,0,0,0-.37.36.36.36,0,0,0,.36.37h2.84a.36.36,0,0,0,.37-.36.37.37,0,0,0-.36-.37H17.86Z" fill="#fff" fill-rule="evenodd"/></g></svg>