<svg id="Layer_1" data-name="Layer 1" xmlns="http://www.w3.org/2000/svg" viewBox="0 0 32 32"><g id="Price_Filter" data-name="Price Filter"><path d="M2.42,17.09H6.88a5.44,5.44,0,0,0,10.65,0h12a1.09,1.09,0,1,0,0-2.18h-12a5.45,5.45,0,0,0-10.65,0H2.42A1.09,1.09,0,0,0,1.33,16,1.06,1.06,0,0,0,2.42,17.09Zm9.77-4.32A3.23,3.23,0,1,1,8.93,16,3.24,3.24,0,0,1,12.19,12.77Z" fill="#fff"/><path d="M13.78,9.81l-.12,0-.25.06-.53.2-.5.19-.19.06h0l-.2-.06-.5-.19L11,9.89l-.24-.06a.55.55,0,0,0-.31,0,.48.48,0,0,0-.26.16l-.17.18-.35.45-.31.44-.13.15-.2.06-.52.11c-.19,0-.39.08-.56.12l-.23.08a.54.54,0,0,0-.26.17.58.58,0,0,0-.13.27,1.87,1.87,0,0,0,0,.25c0,.17,0,.37,0,.57s0,.38,0,.53,0,.16,0,.2h0L7,13.73c-.1.11-.25.24-.39.38s-.28.28-.39.41a1.46,1.46,0,0,0-.16.19A.49.49,0,0,0,6,15a.42.42,0,0,0,0,.3,1.09,1.09,0,0,0,.09.23l.27.51c.1.17.19.33.26.47a.55.55,0,0,1,.08.18s0,.12,0,.2-.08.33-.12.52-.09.38-.12.55l0,.25a.62.62,0,0,0,0,.3.57.57,0,0,0,.2.24,1.1,1.1,0,0,0,.21.14l.49.28.48.25.16.11a1,1,0,0,1,.09.18c.05.14.12.32.18.51s.13.37.2.53a1.55,1.55,0,0,0,.12.22.56.56,0,0,0,.2.23.52.52,0,0,0,.29.09h.25c.17,0,.37,0,.57,0l.54,0a1.19,1.19,0,0,1,.19,0h0a.94.94,0,0,1,.17.11l.43.32c.16.12.31.24.46.34l.21.13a.64.64,0,0,0,.3.08.48.48,0,0,0,.29-.08L12.7,22l.46-.34c.15-.12.3-.24.42-.32a.94.94,0,0,1,.17-.11,1.33,1.33,0,0,1,.2,0l.54,0,.56,0h.25a.64.64,0,0,0,.3-.09.56.56,0,0,0,.2-.23,1.51,1.51,0,0,0,.11-.22c.07-.16.14-.35.2-.53s.13-.37.19-.51a1.05,1.05,0,0,1,.08-.18l.17-.11.47-.26.5-.27.2-.14a.5.5,0,0,0,.2-.24.52.52,0,0,0,0-.3,2.42,2.42,0,0,0,0-.25c0-.17-.07-.36-.11-.55s-.09-.38-.12-.53,0-.15,0-.19h0l.08-.18L18,16a5,5,0,0,0,.27-.5,2.29,2.29,0,0,0,.1-.23.6.6,0,0,0,0-.3.52.52,0,0,0-.13-.28c0-.07-.1-.13-.15-.2s-.26-.26-.4-.4l-.39-.38-.13-.15c0-.05,0-.12,0-.2s0-.34,0-.53,0-.4,0-.57a1.84,1.84,0,0,0-.05-.25.47.47,0,0,0-.13-.27.52.52,0,0,0-.25-.17l-.24-.08c-.17,0-.36-.09-.56-.13l-.52-.1-.19-.06-.14-.15-.32-.44c-.11-.16-.23-.31-.34-.45a1.49,1.49,0,0,0-.17-.18A.48.48,0,0,0,14,9.84a.45.45,0,0,0-.18,0Zm-2,3.38h.79v.5a3.59,3.59,0,0,1,.47.12,1.4,1.4,0,0,1,.61.43,2.17,2.17,0,0,1,.28.8l0,.13H13v-.09a.66.66,0,0,0-.24-.45.88.88,0,0,0-.59-.17,1.08,1.08,0,0,0-.65.15.34.34,0,0,0-.17.3.31.31,0,0,0,.06.19h0a.52.52,0,0,0,.23.16l.64.19a7.92,7.92,0,0,1,1.08.34h0a1.16,1.16,0,0,1,.53.42,1.21,1.21,0,0,1,.19.68,1.34,1.34,0,0,1-.23.74,1.43,1.43,0,0,1-.65.53h0a2.1,2.1,0,0,1-.62.16v.49h-.79v-.5a1.79,1.79,0,0,1-.87-.34,2,2,0,0,1-.61-1.2l0-.12h1l0,.09a.84.84,0,0,0,.3.59,1,1,0,0,0,.71.21,1,1,0,0,0,.67-.18.48.48,0,0,0,.21-.4.33.33,0,0,0-.17-.3,4,4,0,0,0-.71-.23,7.94,7.94,0,0,1-1.13-.35,1.25,1.25,0,0,1-.51-.45,1.18,1.18,0,0,1-.18-.63,1.17,1.17,0,0,1,.15-.58A1.1,1.1,0,0,1,11,14a1.4,1.4,0,0,1,.49-.23l.32-.07v-.49Z" fill="#fff"/></g></svg>