<svg id="Layer_1" data-name="Layer 1" xmlns="http://www.w3.org/2000/svg" viewBox="0 0 32 32"><g id="Product_detail_page_with_tabbing_option" data-name="Product detail page with tabbing option"><path d="M30.08,6.94V4.78a2.86,2.86,0,0,0-2.86-2.86H4.78A2.86,2.86,0,0,0,1.92,4.78V6.94ZM12.89,3.84h14V5h-14ZM10,3.84h1.17V5H10Zm-2.44,0H8.69V5H7.52Zm-2.44,0H6.25V5H5.08Z" fill="#fff"/><path d="M1.92,8.11V27.22a2.86,2.86,0,0,0,2.86,2.86H27.22a2.86,2.86,0,0,0,2.86-2.86V8.11Zm8.66,5.24h7.7v1.17h-7.7Zm0,6.3h7.7v1.17h-7.7ZM9.26,27.16H4.92V22.82H9.26Zm0-6.3H4.92V16.51H9.26Zm0-6.31H4.92V10.21H9.26Zm9,12.58h-7.7V26h7.7ZM26.49,24H10.58V22.82H26.49Zm0-6.31H10.58V16.51H26.49Zm0-6.3H10.58V10.21H26.49Z" fill="#fff"/></g></svg>