<svg id="Layer_1" data-name="Layer 1" xmlns="http://www.w3.org/2000/svg" viewBox="0 0 32 32"><g id="Product_search_suggestion" data-name="Product search suggestion"><path d="M25,21.93a2.14,2.14,0,0,0-2.5-.39L20.2,19.29a10.23,10.23,0,1,0-.9.9l2.24,2.25A2.15,2.15,0,0,0,21.92,25L26,29.1a2.15,2.15,0,0,0,3.05-3ZM6.18,18.85a9,9,0,1,1,6.34,2.62A9,9,0,0,1,6.18,18.85Z" fill="#fff"/><path d="M6.76,8.66l2,1a.2.2,0,0,0,.11,0,.19.19,0,0,0,.1,0L14.63,6.9a.24.24,0,0,0,0-.44l-2-1a.2.2,0,0,0-.21,0L6.76,8.21a.25.25,0,0,0-.14.23A.23.23,0,0,0,6.76,8.66Z" fill="#fff"/><path d="M11.9,12.21,6,9.38a.23.23,0,0,0-.24,0,.26.26,0,0,0-.11.21v6.28a.25.25,0,0,0,.14.23l5.88,2.83.11,0a.22.22,0,0,0,.13,0,.24.24,0,0,0,.11-.21V12.43A.24.24,0,0,0,11.9,12.21Zm-4.66.21a.47.47,0,0,1,.43-.27.41.41,0,0,1,.21,0l2.17,1a.46.46,0,0,1,.24.27.53.53,0,0,1,0,.37.49.49,0,0,1-.64.22l-2.17-1a.49.49,0,0,1-.24-.27A.52.52,0,0,1,7.24,12.42Z" fill="#fff"/><path d="M19.38,15.88V9.6a.25.25,0,0,0-.12-.21.25.25,0,0,0-.24,0l-5.88,2.83a.26.26,0,0,0-.14.22v6.28a.24.24,0,0,0,.12.21.2.2,0,0,0,.13,0l.11,0,5.88-2.83A.27.27,0,0,0,19.38,15.88Z" fill="#fff"/><path d="M18.43,8.45a.24.24,0,0,0-.14-.23l-2-1a.26.26,0,0,0-.21,0L10.43,10a.25.25,0,0,0-.15.23.25.25,0,0,0,.15.22l2,1,.1,0,.11,0,5.66-2.72A.24.24,0,0,0,18.43,8.45Z" fill="#fff"/></g></svg>