<svg id="Layer_1" data-name="Layer 1" xmlns="http://www.w3.org/2000/svg" viewBox="0 0 32 32"><g id="Product_SKU_on_product_detail_page" data-name="Product SKU on product detail page"><path d="M23.68,8.92v1h1v-1Zm4.09,0v1h1v-1Zm0,0v1h1v-1Zm-4.09,0v1h1v-1Zm-4.1,0v1h1v-1Zm4.1,0v1h1v-1Zm4.09,0v1h1v-1Zm0,5.12v1h1V14Zm0-5.12v1h1v-1Zm0,5.12v1h1V14ZM23.68,8.92v1h1v-1Zm-4.1,0v1h1v-1ZM18.05,6.36v5.32l5.86,2.93,0,0,0,0s0,0,0,0a.31.31,0,0,1,.09.11.16.16,0,0,1,0,.07.37.37,0,0,1,0,.15s0,0,0,.05v8.7h6.14V6.36Zm3.58,4.1a.51.51,0,0,1-.51.51H19.07a.51.51,0,0,1-.51-.51V8.41a.51.51,0,0,1,.51-.51h2.05a.51.51,0,0,1,.51.51Zm4.1,0a.51.51,0,0,1-.52.51h-2a.52.52,0,0,1-.52-.51V8.41a.52.52,0,0,1,.52-.51h2a.51.51,0,0,1,.52.51ZM29.82,20.7a.51.51,0,0,1-.51.51h-2a.51.51,0,0,1-.51-.51V18.65a.51.51,0,0,1,.51-.51h2a.51.51,0,0,1,.51.51Zm0-5.12a.51.51,0,0,1-.51.51h-2a.51.51,0,0,1-.51-.51V13.53a.51.51,0,0,1,.51-.51h2a.51.51,0,0,1,.51.51Zm0-5.12a.51.51,0,0,1-.51.51h-2a.51.51,0,0,1-.51-.51V8.41a.51.51,0,0,1,.51-.51h2a.51.51,0,0,1,.51.51Zm-2.05,9.72h1v-1h-1Zm0-5.11h1V14h-1Zm0-5.12h1v-1h-1Zm-4.09,0h1v-1h-1Zm-4.1,0h1v-1h-1Zm0-1v1h1v-1Zm4.1,0v1h1v-1Zm4.09,0v1h1v-1Zm0,0v1h1v-1Zm-4.09,0v1h1v-1Zm-4.1,0v1h1v-1Zm8.19,0v1h1v-1Zm0,0v1h1v-1ZM16.4,17.84a.44.44,0,0,1,.11.3v4.09a.52.52,0,0,1-.35.49l-3.07,1a.45.45,0,0,1-.16,0,.47.47,0,0,1-.3-.1.49.49,0,0,1-.21-.41V19.07l-1.54.47v8.14L23.17,23.9V15.76ZM3.2,21.53v2.94l1,.52V22ZM1.67,15.85V24l.51.22V20.7a.51.51,0,0,1,.24-.44.52.52,0,0,1,.5,0l2.05,1a.53.53,0,0,1,.28.46v3.82l4.61,2.05v-8.1Zm6.61.28-1.69.57.75.37L9,16.5Zm5.16,2.62v3.79l2.05-.68V18.12Zm2-7.23L2.65,15.17l2.3,1a.61.61,0,0,1,.14-.07l3.07-1a.53.53,0,0,1,.39,0l2,1a.5.5,0,0,1,.28.49.51.51,0,0,1-.35.45l-2,.68,1.91.84L22.31,15Zm5.68-7.2v1h6.14v-1Z" fill="#fff"/></g></svg>