<svg id="Layer_1" data-name="Layer 1" xmlns="http://www.w3.org/2000/svg" viewBox="0 0 32 32"><g id="Product_delivery_location_detector" data-name="Product delivery location detector"><path d="M16,2A11.06,11.06,0,0,0,4.93,13.07h0a11.05,11.05,0,0,0,7.3,10.4L16,30l3.77-6.53A11.07,11.07,0,0,0,16,2Zm0,2.86a8.2,8.2,0,0,1,8.21,8.21h0A8.21,8.21,0,1,1,16,4.86Z" fill="#fff"/><path d="M14.72,9.14h4.6l-2,2h-4.6Z" fill="#fff" fill-rule="evenodd"/><path d="M19.93,9.75v4.6l-2,2v-4.6l2-2Z" fill="#fff" fill-rule="evenodd"/><path d="M12.07,12.05H17V17H12.07V12.05Z" fill="#fff" fill-rule="evenodd"/></g></svg>