<svg id="Layer_1" data-name="Layer 1" xmlns="http://www.w3.org/2000/svg" viewBox="0 0 32 32"><g id="Quick_Quality_Support" data-name="Quick &amp; Quality Support"><path d="M11.79,19.44,5.72,22.57a1.56,1.56,0,0,0-.83,1.37v4.85a.61.61,0,0,0,.61.61h9l.3-6.25Z" fill="#fff"/><path d="M22.4,23.7a1.1,1.1,0,1,0,1.1,1.09A1.09,1.09,0,0,0,22.4,23.7Zm.09,1.39-.26.26L22,25.09l-.25-.25.26-.26.25.25.6-.59.26.26Z" fill="#fff"/><path d="M17.22,23.15Z" fill="#fff"/><path d="M26.28,22.57l-6.07-3.13-3,3.71.3,6.25h9a.61.61,0,0,0,.61-.61V23.94A1.56,1.56,0,0,0,26.28,22.57ZM23,28.09a.13.13,0,0,1,0,.1l-.5.4a0,0,0,0,1-.07,0l-.49-.4a.18.18,0,0,1,0-.1V26.91A.54.54,0,0,0,22,27a.69.69,0,0,0,.35-.11h0a.66.66,0,0,0,.35.11.54.54,0,0,0,.22-.05ZM24.18,25l-.07.07a.24.24,0,0,0-.07.27l0,.09a.24.24,0,0,1-.16.32l-.09,0a.25.25,0,0,0-.18.22v.09a.25.25,0,0,1-.29.23l-.09,0a.25.25,0,0,0-.26.12l0,.08a.24.24,0,0,1-.36.08l-.07-.05a.24.24,0,0,0-.28,0l-.08.05a.24.24,0,0,1-.35-.08l0-.08a.24.24,0,0,0-.25-.13l-.1,0a.23.23,0,0,1-.27-.22V26a.26.26,0,0,0-.17-.22l-.1,0a.24.24,0,0,1-.15-.33l0-.08a.26.26,0,0,0-.06-.28L20.64,25a.24.24,0,0,1,0-.36l.07-.07a.25.25,0,0,0,.06-.27l0-.09a.23.23,0,0,1,.15-.32l.1,0a.26.26,0,0,0,.17-.22v-.1a.24.24,0,0,1,.28-.22h.09a.24.24,0,0,0,.26-.12l.05-.08A.23.23,0,0,1,22.2,23l.08.06a.26.26,0,0,0,.27,0l.08-.06a.24.24,0,0,1,.35.09l.05.08a.22.22,0,0,0,.24.12l.1,0a.24.24,0,0,1,.28.23v.1a.23.23,0,0,0,.17.22l.09,0a.24.24,0,0,1,.16.33l0,.08a.24.24,0,0,0,.06.28l.08.05A.24.24,0,0,1,24.18,25Z" fill="#fff"/><path d="M19.55,14.86c-.71,1.17-2.8,3.2-4,2.63a6.71,6.71,0,0,1-3.85-4.69.77.77,0,0,1-.5.18h0c.83,3.4,3.72,5.19,4.89,5.19.94,0,3.22-1.32,4.31-3.63A2.73,2.73,0,0,1,19.55,14.86Z" fill="#fff"/><path d="M11.85,9.36c.28-.89,1.06-2.4,1.94-2.09a7.57,7.57,0,0,0,4.47,0c.86-.3,1.63,1.13,1.92,2A1,1,0,0,1,20.51,9a4.43,4.43,0,0,0-1.11-3.6,4.52,4.52,0,0,0-6.75,0,4.46,4.46,0,0,0-1.1,3.62A.76.76,0,0,1,11.85,9.36Z" fill="#fff"/><polygon points="16 21.08 15.39 22.11 15.04 29.4 16.96 29.4 16.61 22.11 16 21.08" fill="#fff"/><polygon points="16 19.98 17.31 22.19 19.7 19.18 18.89 17.69 16 19.98" fill="#fff"/><polygon points="12.29 19.18 14.69 22.19 16 19.98 13.11 17.69 12.29 19.18" fill="#fff"/><path d="M10.68,12.42c.2,0,.74.12.74-.26V9.78a.26.26,0,0,0-.26-.25h-.09L11,9a5.08,5.08,0,1,1,10.1,0L21,9.53h-.15a.26.26,0,0,0-.26.25v2.38a.27.27,0,0,0,.17.24A2,2,0,0,1,19,13.87v-.13a.22.22,0,0,0-.22-.22h-.87a.61.61,0,0,0-.61.61.61.61,0,0,0,.61.61h.87a.22.22,0,0,0,.22-.23v-.13a2.5,2.5,0,0,0,2.27-2h0a.58.58,0,0,0,.57-.58V10.11a.55.55,0,0,0-.15-.4l.1-.58a5.86,5.86,0,1,0-11.63,0l.09.52a.6.6,0,0,0-.19.44v1.73A.58.58,0,0,0,10.68,12.42Z" fill="#fff"/></g></svg>