<svg id="Layer_1" data-name="Layer 1" xmlns="http://www.w3.org/2000/svg" viewBox="0 0 32 32"><g id="Quick_view_product" data-name="Quick view product"><path d="M29.83,7.09,24.24,4.51a.63.63,0,0,0-.53,1.15l4.93,2.27-2.06,3.13L24.27,10a.63.63,0,1,0-.55,1.13l2.81,1.35a.66.66,0,0,0,.27.06L16.64,18a.23.23,0,0,0-.09.11.17.17,0,0,0,0,.14l2.36,4.06a.16.16,0,0,0,.15.09l.08,0,10.37-5.51a.16.16,0,0,0,.07-.24l-2.36-4.14a.27.27,0,0,0-.08-.07.55.55,0,0,0,.17-.17L30.09,8a.63.63,0,0,0,.08-.52A.64.64,0,0,0,29.83,7.09Z" fill="#fff"/><path d="M15.51,19.74a.18.18,0,0,0-.2.08l-1.88,3.25a.35.35,0,0,1-.47.13L5.3,19.14a.15.15,0,0,0-.17,0,.16.16,0,0,0-.08.15v4.21a.17.17,0,0,0,.09.16L15.38,29.1a.15.15,0,0,0,.18,0,.18.18,0,0,0,.08-.15v-9A.17.17,0,0,0,15.51,19.74Z" fill="#fff"/><path d="M12.92,22.37a.16.16,0,0,0,.15-.09l2.36-4.06a.17.17,0,0,0,0-.14.18.18,0,0,0-.09-.1L5.18,12.49h0a.58.58,0,0,0,.28-.07l2.62-1.25A.63.63,0,0,0,7.55,10l-2.13,1L3.36,7.94l5-2.28a.63.63,0,0,0,.32-.83.64.64,0,0,0-.84-.32L2.17,7.09a.67.67,0,0,0-.34.4A.63.63,0,0,0,1.91,8l2.76,4.2a.62.62,0,0,0,.18.18.16.16,0,0,0-.09.07L2.4,16.6a.16.16,0,0,0,.07.24l10.37,5.51Z" fill="#fff"/><path d="M26.68,19.14,19,23.19a.36.36,0,0,1-.47-.13l-1.9-3.28a.19.19,0,0,0-.2-.08.18.18,0,0,0-.13.17V29a.19.19,0,0,0,.09.15.16.16,0,0,0,.09,0,.11.11,0,0,0,.08,0l10.25-5.43a.17.17,0,0,0,.09-.16V19.29a.18.18,0,0,0-.08-.15A.19.19,0,0,0,26.68,19.14Zm-4.82,5.18L19.1,25.56a.58.58,0,0,1-.26.06.62.62,0,0,1-.57-.37.65.65,0,0,1,.31-.84l2.77-1.24a.63.63,0,0,1,.51,1.15Z" fill="#fff"/><rect x="15.36" y="15.89" width="1.26" height="1.32" fill="#fff"/><rect x="15.36" y="13.62" width="1.26" height="1.65" fill="#fff"/><rect x="15.36" y="11.67" width="1.26" height="1.32" fill="#fff"/><path d="M22.44,7.24a.61.61,0,0,0,0-.64,7.45,7.45,0,0,0-12.91,0,.66.66,0,0,0,0,.64,7.45,7.45,0,0,0,12.91,0ZM16,9.71a6.21,6.21,0,0,1-5.17-2.79,6.19,6.19,0,0,1,10.34,0A6.24,6.24,0,0,1,16,9.71Z" fill="#fff"/><path d="M16,4.37a2.55,2.55,0,1,0,2.54,2.55A2.55,2.55,0,0,0,16,4.37Z" fill="#fff"/></g></svg>