<svg id="Layer_1" data-name="Layer 1" xmlns="http://www.w3.org/2000/svg" viewBox="0 0 32 32"><g id="Ready_to_use_industry_demos" data-name="Ready to use industry demos"><path d="M1.49,27.15h29v-18h-29Zm18.16-2.29h-7.4V20.79h7.4Zm8.8,0h-7.4V20.79h7.4ZM3.52,11.32h25v7.51h-25Zm0,9.47h7.4v4.07H3.52Zm-2-15.94V7.93h29V4.85Zm22,2.22a.75.75,0,1,1,.75-.75A.74.74,0,0,1,23.52,7.07Zm2.48,0a.75.75,0,1,1,.75-.75A.75.75,0,0,1,26,7.07Zm2.48,0a.75.75,0,1,1,.75-.75A.75.75,0,0,1,28.48,7.07Z" fill="#fff"/></g></svg>