<svg id="Layer_1" data-name="Layer 1" xmlns="http://www.w3.org/2000/svg" viewBox="0 0 32 32"><g id="Related_Product_slider" data-name="Related Product slider"><path d="M26.28,27.44H5.72a1.17,1.17,0,0,1-1.16-1.16V12.2A1.18,1.18,0,0,1,5.72,11H26.28a1.18,1.18,0,0,1,1.16,1.17V26.28A1.17,1.17,0,0,1,26.28,27.44Z" fill="#fff"/><path d="M25.2,9.28H6.8a.73.73,0,1,1,0-1.46H25.2a.73.73,0,1,1,0,1.46Z" fill="#fff"/><path d="M23.45,6.07H8.55a.77.77,0,0,1-.73-.78.72.72,0,0,1,.73-.73h14.9a.75.75,0,0,1,.73.73A.79.79,0,0,1,23.45,6.07Z" fill="#fff"/></g></svg>