<svg id="Layer_1" data-name="Layer 1" xmlns="http://www.w3.org/2000/svg" viewBox="0 0 32 32"><path id="Shop_By_Category" data-name="Shop By Category" d="M6.07,2.13A4.15,4.15,0,0,0,1.8,6.48v7.08a.78.78,0,0,0,.8.77H13.2a.79.79,0,0,0,.8-.77V2.91a.78.78,0,0,0-.8-.77Zm19.73,0H18.67a.78.78,0,0,0-.8.77V13.56a.79.79,0,0,0,.8.77H29.26a.78.78,0,0,0,.8-.77V6.48A4.15,4.15,0,0,0,25.8,2.13ZM24.06,17.6a6.14,6.14,0,1,0,6.14,6.13h0a6.13,6.13,0,0,0-6.14-6.13Zm-21.45,0a.78.78,0,0,0-.8.77v7.08A4.16,4.16,0,0,0,6.07,29.8H13.2A.78.78,0,0,0,14,29V18.37a.79.79,0,0,0-.8-.77Z" fill="#fff"/></svg>