<svg id="Layer_1" data-name="Layer 1" xmlns="http://www.w3.org/2000/svg" viewBox="0 0 32 32"><g id="Social_share_in_product_detail_page" data-name="Social share in product detail page"><path d="M7.71,28.82A.76.76,0,0,1,7,28.06V10.34h6.41a.74.74,0,0,0,.75-.75V3.18H24.29a.76.76,0,0,1,.76.76V28.06a.76.76,0,0,1-.76.76Zm8.14-7.94h0a3,3,0,0,0,2.79,4.17,3,3,0,1,0,0-6,3,3,0,0,0-1.88.66l-1.68-1.26a2.49,2.49,0,0,0,.17-.91A2.56,2.56,0,0,0,15,16.34l1.86-1.73a2.27,2.27,0,0,0,3.32-2,2.27,2.27,0,1,0-4.34.9L14,15.23a2.64,2.64,0,1,0,.23,4.4ZM12.61,3.62V8.84H7.39Zm5.28,9.74a.76.76,0,1,1,.75-.75A.76.76,0,0,1,17.89,13.36Zm-5.28,5.28a1.13,1.13,0,1,1,1.13-1.13A1.13,1.13,0,0,1,12.61,18.64Zm6,4.9A1.51,1.51,0,1,1,20.15,22,1.51,1.51,0,0,1,18.64,23.54Z" fill="#fdfeff" fill-rule="evenodd"/></g></svg>