<svg id="Layer_1" data-name="Layer 1" xmlns="http://www.w3.org/2000/svg" viewBox="0 0 32 32"><g id="Speed_Optimized" data-name="Speed Optimized"><path d="M19.38,7.75a.23.23,0,0,0,.24-.23V6a.24.24,0,0,0-.24-.24.24.24,0,0,0-.23.24V7.52A.23.23,0,0,0,19.38,7.75Z" fill="#fff"/><path d="M22.31,8.37a.15.15,0,0,0,.09,0,.24.24,0,0,0,.22-.14l.61-1.37a.23.23,0,0,0-.12-.31.23.23,0,0,0-.3.12l-.62,1.37A.23.23,0,0,0,22.31,8.37Z" fill="#fff"/><path d="M24.91,10.23a.25.25,0,0,0,.16-.07l1.13-1a.23.23,0,0,0-.3-.36l-1.14,1a.26.26,0,0,0,0,.33A.21.21,0,0,0,24.91,10.23Z" fill="#fff"/><path d="M26.23,12.76a.22.22,0,0,0,.21.16h.07L28,12.47a.21.21,0,0,0,.14-.28.21.21,0,0,0-.28-.14l-1.44.45A.18.18,0,0,0,26.23,12.76Z" fill="#fff"/><path d="M18.49,16.08a1.45,1.45,0,0,0,.85.29,1.44,1.44,0,0,0,1.15-.57s0-.05.05-.09l.05-.1v0c0-.05,0-.07,0-.1l3-5.9a.22.22,0,0,0-.07-.28.23.23,0,0,0-.31,0l-4.83,4.49a.31.31,0,0,0-.12.09l-.1.1,0,0A1.53,1.53,0,0,0,18.49,16.08Z" fill="#fff"/><path d="M28.3,14.69a.22.22,0,0,0-.23.24h0a6,6,0,0,1,0,.73l-1.27-.14a.23.23,0,0,0-.26.21.24.24,0,0,0,.21.26l1.28.14a8.44,8.44,0,0,1-1,3l-1.08-.64a.26.26,0,0,0-.33.07.24.24,0,0,0,.09.33l1.11.64a8.88,8.88,0,0,1-2.15,2.34l-.73-1a.21.21,0,0,0-.33-.05.25.25,0,0,0,0,.33l.73,1a8.62,8.62,0,0,1-2.9,1.25h0l-.26-1.27A.24.24,0,0,0,20.8,22a.24.24,0,0,0-.19.28l.26,1.25a7.2,7.2,0,0,1-1.49.12,7.75,7.75,0,0,1-1.69-.17L18,22.19a.23.23,0,0,0-.45-.11l-.28,1.25h0A8.74,8.74,0,0,1,14.36,22l.75-1a.24.24,0,0,0-.37-.29l-.76,1a8.79,8.79,0,0,1-2.08-2.38L13,18.7a.25.25,0,0,0,.1-.31.24.24,0,0,0-.31-.09l-1.11.64a8.54,8.54,0,0,1-1-3.78h2.39L8.29,10.21,3.48,15.16H5.91a11.31,11.31,0,0,0,22.61-.23A.21.21,0,0,0,28.3,14.69Z" fill="#fff"/></g></svg>