<svg id="Layer_1" data-name="Layer 1" xmlns="http://www.w3.org/2000/svg" viewBox="0 0 32 32"><g id="Unlimited_Google_Font_Access" data-name="Unlimited Google Font Access"><path d="M2.38,29.71a2,2,0,0,0,.75.15A2,2,0,0,0,5,28.63L8.7,19.56h8.42l3.73,9.07a2,2,0,1,0,3.67-1.51L14.74,3.37a2,2,0,0,0-1.83-1.23,2,2,0,0,0-1.84,1.23L1.3,27.12A2,2,0,0,0,2.38,29.71ZM12.91,9.34l2.57,6.26H10.33Z" fill="#fff"/><path d="M21.54,14.69l1.15,2.81h2.88l2.57,6.24a1.4,1.4,0,0,0,1.3.88,1.49,1.49,0,0,0,.54-.11,1.42,1.42,0,0,0,.77-1.84L24,6.24a1.41,1.41,0,0,0-2.6,0l-2,3.89,1.52,3.7,1.77-3.35,1.73,4.2H21.54Z" fill="#fff"/></g></svg>