<svg id="Layer_1" data-name="Layer 1" xmlns="http://www.w3.org/2000/svg" viewBox="0 0 32 32"><g id="Unlimited_Snippets_with_HTML_Builder" data-name="Unlimited Snippets with HTML Builder"><path d="M29.15,15.29l-3.49-1.73L18,17.37a4.51,4.51,0,0,1-4,0L6.34,13.56,2.85,15.29a.78.78,0,0,0-.36,1.05.72.72,0,0,0,.36.37l11.85,5.9a2.9,2.9,0,0,0,2.6,0l11.85-5.9a.78.78,0,0,0,.36-1.05A.72.72,0,0,0,29.15,15.29Z" fill="#fff" opacity="0.8" style="isolation:isolate"/><path d="M29.15,22l-3.49-1.73L18,24a4.51,4.51,0,0,1-4,0L6.34,20.23,2.85,22A.78.78,0,0,0,2.49,23a.76.76,0,0,0,.36.37l11.85,5.9a2.9,2.9,0,0,0,2.6,0l11.85-5.9a.79.79,0,0,0,.36-1.06A.7.7,0,0,0,29.15,22Z" fill="#fff" opacity="0.6" style="isolation:isolate"/><path d="M29.51,9a.76.76,0,0,0-.36-.37L17.3,2.72a2.9,2.9,0,0,0-2.6,0L2.85,8.62a.79.79,0,0,0-.36,1.06.7.7,0,0,0,.36.36l11.85,5.9a2.9,2.9,0,0,0,2.6,0L29.15,10A.78.78,0,0,0,29.51,9ZM14.9,13.06a.83.83,0,0,1-.57.23.8.8,0,0,1-.56-.23L10.62,9.9h0l0-.05-.06-.08s0,0,0-.06l-.05-.08a.25.25,0,0,0,0-.07.31.31,0,0,0,0-.08.13.13,0,0,0,0-.06V9.27s0-.06,0-.09a.64.64,0,0,0,0-.07s0,0,0-.08l0-.06a.3.3,0,0,1,0-.08l.05-.06,0-.06,3.15-3.16a.79.79,0,0,1,1.13,0,.81.81,0,0,1,0,1.14L12.32,9.33l2.58,2.6A.8.8,0,0,1,14.9,13.06Zm6.71-3.65a.2.2,0,0,0,0,.07l0,.09s0,0,0,.06a.56.56,0,0,1,0,.08l0,.06a.18.18,0,0,1-.05.07l-.05.06-3.15,3.16a.8.8,0,0,1-.56.23.83.83,0,0,1-.57-.23.8.8,0,0,1,0-1.13l2.58-2.6L17.1,6.74a.81.81,0,0,1,0-1.14.79.79,0,0,1,1.13,0l3.15,3.15h0s0,0,0,0l.06.08,0,0,0,.09s0,0,0,.06l0,.09a.17.17,0,0,0,0,.07v.16Z" fill="#fff"/></g></svg>