<?xml version="1.0"?>
<svg xmlns="http://www.w3.org/2000/svg" xmlns:xlink="http://www.w3.org/1999/xlink" version="1.1" id="Capa_1" x="0px" y="0px" viewBox="0 0 511.997 511.997" style="enable-background:new 0 0 511.997 511.997;" xml:space="preserve" width="512px" height="512px" class=""><g><path style="fill:#00937F" d="M253.96,447.975h-9.124C100.062,441.284,6.993,275.626,3.14,268.326  c-4.187-7.604-4.187-16.829,0-24.433c3.853-7.097,96.921-172.857,241.796-179.649c91.244-4.359,179.852,55.557,262.681,177.621  c5.84,8.597,5.84,19.891,0,28.488C427.424,388.464,342.162,447.975,253.96,447.975z M54.947,256.16  c22.811,35.585,96.009,136.866,192.626,141.225c69.345,3.244,139.299-44.304,208.34-141.225  c-69.143-96.921-139.198-144.47-208.543-141.225C150.55,119.396,77.758,220.474,54.947,256.16z" data-original="#FF485A" class="" data-old_color="#FF485A"/><circle style="fill:#007969" cx="255.987" cy="256.191" r="65.696" data-original="#FFBBC0" class="active-path" data-old_color="#FFBBC0"/></g> </svg>
