<?xml version="1.0" encoding="utf-8"?>
<!-- Generator: Adobe Illustrator 24.1.3, SVG Export Plug-In . SVG Version: 6.00 Build 0)  -->
<svg version="1.1" id="Capa_1" xmlns="http://www.w3.org/2000/svg" xmlns:xlink="http://www.w3.org/1999/xlink" x="0px" y="0px"
	 viewBox="0 0 512 512" style="enable-background:new 0 0 512 512;" xml:space="preserve">
<style type="text/css">
	.st0{fill:#24282C;stroke:#24282C;stroke-width:15;stroke-miterlimit:10;}
	.st1{fill:#4C555E;stroke:#4C555E;stroke-width:15;stroke-miterlimit:10;}
</style>
<g>
	<g>
		<path class="st0" d="M467.2,100.7H44.8c-17.2,0-31.1-13.9-31.1-31.1s13.9-31.1,31.1-31.1h422.3c17.2,0,31.1,13.9,31.1,31.1
			S484.3,100.7,467.2,100.7z"/>
		<path class="st0" d="M293.3,287.1H44.8c-17.2,0-31.1-13.9-31.1-31.1s13.9-31.1,31.1-31.1h248.4c17.2,0,31.1,13.9,31.1,31.1
			S310.4,287.1,293.3,287.1z"/>
	</g>
	<path class="st1" d="M467.2,287.1h-49.7c-17.2,0-31.1-13.9-31.1-31.1s13.9-31.1,31.1-31.1h49.7c17.2,0,31.1,13.9,31.1,31.1
		S484.3,287.1,467.2,287.1z"/>
	<path class="st0" d="M467.2,473.4H44.8c-17.2,0-31.1-13.9-31.1-31.1s13.9-31.1,31.1-31.1h422.3c17.2,0,31.1,13.9,31.1,31.1
		C498.2,459.5,484.3,473.4,467.2,473.4z"/>
</g>
</svg>
