<?xml version="1.0" encoding="utf-8"?>
<!-- Generator: Adobe Illustrator 24.1.3, SVG Export Plug-In . SVG Version: 6.00 Build 0)  -->
<svg version="1.1" id="Layer_1" xmlns="http://www.w3.org/2000/svg" xmlns:xlink="http://www.w3.org/1999/xlink" x="0px" y="0px"
	 viewBox="0 0 512 512" style="enable-background:new 0 0 512 512;" xml:space="preserve">
<style type="text/css">
	.st0{fill:#2587A9;stroke:#2587A9;stroke-width:5;stroke-miterlimit:10;}
</style>
<g>
	<g id="Page-1">
		<g id="_x30_70---Laptop-Message-Not-Sent">
			<path id="Shape" class="st0" d="M487,404.5h-16.5V132.3c0-22.8-18.5-41.2-41.2-41.2H421V33.3c0-13.7-11.1-24.7-24.7-24.7H115.8
				C102.1,8.5,91,19.6,91,33.3V91h-8.2c-22.8,0-41.2,18.5-41.2,41.2v272.2H25c-9.1,0-16.5,7.4-16.5,16.5v24.7
				c0,31.9,25.9,57.7,57.7,57.7h379.4c31.9,0,57.7-25.9,57.7-57.7V421C503.5,411.9,496.1,404.5,487,404.5z M107.5,33.3
				c0-4.6,3.7-8.2,8.2-8.2h280.5c4.6,0,8.2,3.7,8.2,8.2v231c0,4.6-3.7,8.2-8.2,8.2h-198c-4.6,0-8.2,3.7-8.2,8.2s3.7,8.2,8.2,8.2h6.6
				L157,322.1V289h8.2c4.6,0,8.2-3.7,8.2-8.2s-3.7-8.2-8.2-8.2h-49.5c-4.6,0-8.2-3.7-8.2-8.2V33.3z M58,132.3
				c0-13.7,11.1-24.7,24.7-24.7H91v156.7c0,13.7,11.1,24.7,24.7,24.7h24.7v33.1c0,9.1,7.4,16.4,16.5,16.4c3.4,0,6.6-1,9.4-2.9
				l67.4-46.5h162.4c13.7,0,24.7-11.1,24.7-24.7V107.5h8.2c13.7,0,24.7,11.1,24.7,24.7v272.2H58V132.3z M181.8,421h148.5v8.2
				c0,9.1-7.4,16.5-16.5,16.5H198.3c-9.1,0-16.5-7.4-16.5-16.5V421z M487,445.7c0,22.8-18.5,41.2-41.2,41.2H66.3
				c-22.8,0-41.2-18.5-41.2-41.2V421h140.2v8.2c0,18.2,14.8,33,33,33h115.5c18.2,0,33-14.8,33-33V421H487V445.7z"/>
			<path id="Shape_1_" class="st0" d="M132.3,437.5h-16.5c-4.6,0-8.2,3.7-8.2,8.2s3.7,8.2,8.2,8.2h16.5c4.6,0,8.2-3.7,8.2-8.2
				S136.8,437.5,132.3,437.5z"/>
			<circle id="Oval" class="st0" cx="49.8" cy="445.7" r="8.2"/>
			<circle id="Oval_1_" class="st0" cx="82.8" cy="445.7" r="8.2"/>
			<path id="Shape_2_" class="st0" d="M256,256c59.2,0,107.2-48,107.2-107.2S315.2,41.5,256,41.5s-107.2,48-107.2,107.2
				C148.8,208,196.8,255.9,256,256z M256,58c50.1,0,90.7,40.6,90.7,90.7s-40.6,90.7-90.7,90.7s-90.7-40.6-90.7-90.7
				C165.3,98.7,205.9,58.1,256,58z"/>
			<path id="Shape_3_" class="st0" d="M220.5,206.7c1.2,5.6,5.3,10.1,10.6,12c8,2.8,16.4,4.3,24.8,4.3c5.9,0,11.7-0.7,17.4-2
				c20.5-4.9,37.9-18.3,47.9-36.8s11.7-40.4,4.6-60.2c-1.9-5.4-6.4-9.4-12-10.7c-5.5-1.3-11.3,0.4-15.3,4.4L225,191.4
				C220.9,195.4,219.3,201.2,220.5,206.7L220.5,206.7z M310.4,129.5c3.7,10.5,4.3,22,1.8,32.8c-3.8,15.9-14.2,29.5-28.7,37.3
				c-14.4,7.8-31.5,9-46.9,3.4L310.4,129.5z"/>
			<path id="Shape_4_" class="st0" d="M201.7,184.6c4.4,0,8.5-1.7,11.6-4.8l73.7-73.7c4-4,5.7-9.8,4.4-15.3
				c-1.2-5.6-5.3-10.1-10.6-12c-27-9.6-57.1-2.9-77.4,17.4s-27,50.4-17.4,77.4C188.4,180.2,194.7,184.6,201.7,184.6L201.7,184.6z
				 M199.8,135.2c5-21.1,21.5-37.5,42.5-42.5c4.4-1.1,9-1.6,13.6-1.6c6.6,0,13.2,1.1,19.5,3.4L201.6,168
				C197.9,157.4,197.2,146,199.8,135.2L199.8,135.2z"/>
		</g>
	</g>
</g>
</svg>
