<?xml version="1.0" encoding="utf-8"?>
<!-- Generator: Adobe Illustrator 24.1.3, SVG Export Plug-In . SVG Version: 6.00 Build 0)  -->
<svg version="1.1" id="Capa_1" xmlns="http://www.w3.org/2000/svg" xmlns:xlink="http://www.w3.org/1999/xlink" x="0px" y="0px"
	 viewBox="0 0 512 512" style="enable-background:new 0 0 512 512;" xml:space="preserve">
<style type="text/css">
	.st0{fill:#2587A9;}
</style>
<g>
	<g>
		<g>
			<path class="st0" d="M397.8,42.8C344,7.1,279.4-7,215.7,3.3c-1.1,0-2.2,0.1-3.3,0.3C145,15.3,86.2,52.5,46.8,108.4
				C7.5,164.3-7.8,232.1,3.9,299.5c1.9,11.1,4.6,22.3,8.1,33.2c14.1,45.8,10.6,94.9-9.8,138.2c-3.6,7.5-2.4,16.4,3,22.8
				c5.4,6.4,13.8,9,21.9,6.8l95.6-26.1c40.5,24.8,86.2,37.6,132.8,37.6c17,0,34-1.7,51-5.1c67-13.5,124.8-52.3,162.6-109.2
				C547.3,280.2,515.3,121,397.8,42.8z M433.7,374.1c-31.5,47.5-79.7,79.8-135.5,91c-55.8,11.2-112.7,0.1-160.2-31.5
				c-3.5-2.3-7.7-3.6-11.8-3.6c-1.9,0-3.8,0.3-5.6,0.8l-65.1,17.8c11-41.9,10.2-86.3-2.8-128.5c-2.9-9.2-5.2-18.6-6.8-27.8
				c-9.7-56.1,3-112.7,35.8-159.3c32.2-45.8,80.1-76.5,135.1-86.8c1,0,2-0.1,3-0.3c53.9-9.3,108.7,2.3,154.3,32.6
				C472.1,143.5,498.8,276.1,433.7,374.1z"/>
		</g>
	</g>
	<g>
		<g>
			<path class="st0" d="M256.1,125.9c-11.8,0-21.3,9.5-21.3,21.3v128c0,11.8,9.5,21.3,21.3,21.3c11.8,0,21.3-9.6,21.3-21.3v-128
				C277.4,135.4,267.9,125.9,256.1,125.9z"/>
		</g>
	</g>
	<g>
		<g>
			<path class="st0" d="M275.7,354.5c-1.1-2.8-2.6-5.1-4.5-7c-1.1-0.9-2.1-1.9-3.4-2.6c-1.1-0.9-2.3-1.5-3.6-1.9
				c-1.3-0.7-2.6-1.1-4.1-1.3c-6.8-1.5-14.3,0.9-19.2,5.8c-1.9,1.9-3.4,4.3-4.5,7c-1.1,2.6-1.7,5.3-1.7,8.1c0,2.8,0.6,5.5,1.7,8.1
				c1.1,2.6,2.6,4.9,4.5,7c2.1,1.9,4.5,3.4,7,4.5c2.6,1.1,5.3,1.7,8.1,1.7s5.5-0.6,8.1-1.7c2.6-1.1,4.9-2.6,7-4.5
				c1.9-2.1,3.4-4.5,4.5-7c1.1-2.6,1.7-5.3,1.7-8.1C277.4,359.8,276.8,357.1,275.7,354.5z"/>
		</g>
	</g>
</g>
</svg>
