<svg xmlns="http://www.w3.org/2000/svg" width="32" height="32" viewBox="0 0 32 32">
  <g id="vuesax_bulk_call-calling" data-name="vuesax/bulk/call-calling" transform="translate(-172 -188)">
    <g id="call-calling" transform="translate(172 188)">
      <path id="Vector" d="M5.79,6.824A1.021,1.021,0,0,1,4.77,5.8a4.612,4.612,0,0,0-1.312-2.4A3.7,3.7,0,0,0,1.02,2.04,1.02,1.02,0,1,1,1.02,0,5.632,5.632,0,0,1,4.955,2,6.252,6.252,0,0,1,6.824,5.79,1.035,1.035,0,0,1,5.79,6.824Z" transform="translate(17.697 7.479)" fill="#009877"/>
      <path id="Vector-2" data-name="Vector" d="M10.56,11.594a1.021,1.021,0,0,1-1.02-1.02,8.53,8.53,0,0,0-8.52-8.52A1.027,1.027,0,0,1,1.007,0,10.586,10.586,0,0,1,11.58,10.573,1.029,1.029,0,0,1,10.56,11.594Z" transform="translate(17.77 2.65)" fill="#009877"/>
      <path id="Vector-3" data-name="Vector" d="M12.972,16.178,8.639,20.511q-.715-.636-1.391-1.312a37.648,37.648,0,0,1-3.7-4.333,23.622,23.622,0,0,1-2.6-4.518A11.16,11.16,0,0,1,0,6.015,6.854,6.854,0,0,1,.477,3.458,6.1,6.1,0,0,1,2,1.245,3.882,3.882,0,0,1,4.757,0,2.49,2.49,0,0,1,5.83.238,2.16,2.16,0,0,1,6.718.98L9.792,5.313a4.534,4.534,0,0,1,.53.927,2.094,2.094,0,0,1,.186.808,1.8,1.8,0,0,1-.278.941,4.507,4.507,0,0,1-.742.941L8.48,9.977a.709.709,0,0,0-.212.53,1.2,1.2,0,0,0,.04.3c.04.106.079.185.106.265a11,11,0,0,0,1.232,1.7c.6.689,1.232,1.391,1.921,2.093C12.044,15.33,12.508,15.781,12.972,16.178Z" transform="translate(2.65 2.65)" fill="#009877" opacity="0.4"/>
      <path id="Vector-4" data-name="Vector" d="M16.39,5.684a3.365,3.365,0,0,1-.2,1.126,3.236,3.236,0,0,1-.132.318,5.467,5.467,0,0,1-.9,1.351,5.973,5.973,0,0,1-2.173,1.563c-.013,0-.026.013-.04.013a6.693,6.693,0,0,1-2.544.49A11.042,11.042,0,0,1,6.082,9.58,23.272,23.272,0,0,1,1.524,6.956C1.007,6.572.49,6.188,0,5.777L4.333,1.444a7.444,7.444,0,0,0,.98.636c.066.026.146.066.238.106a.915.915,0,0,0,.331.053.729.729,0,0,0,.543-.225L7.433,1.02A4.065,4.065,0,0,1,8.387.278,1.764,1.764,0,0,1,9.328,0a2.115,2.115,0,0,1,.808.172,5.124,5.124,0,0,1,.927.517L15.449,3.8a2.01,2.01,0,0,1,.729.848A2.718,2.718,0,0,1,16.39,5.684Z" transform="translate(12.92 18.803)" fill="#009877"/>
      <path id="Vector-5" data-name="Vector" d="M0,0H32V32H0Z" fill="none" opacity="0"/>
    </g>
  </g>
</svg>
