<svg xmlns="http://www.w3.org/2000/svg" width="32" height="32" viewBox="0 0 32 32">
  <g id="vuesax_bulk_notification-bing" data-name="vuesax/bulk/notification-bing" transform="translate(-108 -188)">
    <g id="notification-bing" transform="translate(108 188)">
      <path id="Vector" d="M22.186,19.931a3.545,3.545,0,0,1-2.145,2.205,27.588,27.588,0,0,1-4.33,1.145c-.144.028-.288.056-.432.07-.235.042-.471.07-.706.1-.288.042-.589.07-.89.1-.824.07-1.635.112-2.459.112a24.96,24.96,0,0,1-2.5-.126c-.353-.028-.693-.07-1.033-.126l-.576-.084c-.144-.028-.288-.042-.432-.07a25.658,25.658,0,0,1-4.291-1.131A3.576,3.576,0,0,1,.2,19.931a3.919,3.919,0,0,1,.34-3.183l1.478-2.624a6.011,6.011,0,0,0,.6-2.345v-2.6c0-5.069,3.851-9.178,8.6-9.178s8.6,4.109,8.6,9.178v2.6a5.806,5.806,0,0,0,.615,2.345l1.478,2.624A3.922,3.922,0,0,1,22.186,19.931Z" transform="translate(4.803 2.863)" fill="#009877" opacity="0.4"/>
      <path id="Vector-2" data-name="Vector" d="M1.061,6.449A1.061,1.061,0,0,1,0,5.388V1.061a1.061,1.061,0,1,1,2.122,0V5.388A1.079,1.079,0,0,1,1.061,6.449Z" transform="translate(14.939 8.095)" fill="#009877"/>
      <path id="Vector-3" data-name="Vector" d="M7.886.014a4.207,4.207,0,0,1-3.95,2.778A4.139,4.139,0,0,1,.977,1.549,3.854,3.854,0,0,1,0,0C.181.028.363.042.558.07c.321.042.656.084.991.112.8.07,1.605.112,2.415.112S5.555.251,6.337.181C6.63.154,6.923.14,7.2.1Z" transform="translate(12.063 26.417)" fill="#009877"/>
      <path id="Vector-4" data-name="Vector" d="M0,0H32V32H0Z" fill="none" opacity="0"/>
    </g>
  </g>
</svg>
