<svg xmlns="http://www.w3.org/2000/svg" width="32" height="32" viewBox="0 0 32 32">
  <g id="vuesax_bulk_message-question" data-name="vuesax/bulk/message-question" transform="translate(-620 -252)">
    <g id="message-question" transform="translate(620 252)">
      <path id="Vector" d="M0,0H32V32H0Z" fill="none" opacity="0"/>
      <path id="Vector-2" data-name="Vector" d="M20.075,21.435H14.722L8.766,25.4a1.334,1.334,0,0,1-2.074-1.112V21.435A6.325,6.325,0,0,1,0,14.737V6.7A6.325,6.325,0,0,1,6.692,0H20.075a6.325,6.325,0,0,1,6.692,6.7v8.038A6.325,6.325,0,0,1,20.075,21.435Z" transform="translate(2.617 3.179)" fill="#009877" opacity="0.4"/>
      <g id="Group" transform="translate(12.847 8.198)">
        <path id="Vector-3" data-name="Vector" d="M3.153,7.85a.988.988,0,0,1-.981-.981V6.594A3.044,3.044,0,0,1,3.7,4.043c.484-.327.641-.549.641-.89a1.191,1.191,0,1,0-2.381,0,.988.988,0,0,1-.981.981A.988.988,0,0,1,0,3.153a3.153,3.153,0,1,1,6.306,0A3,3,0,0,1,4.8,5.665c-.51.34-.667.563-.667.929v.275A.98.98,0,0,1,3.153,7.85Z" fill="#009877"/>
      </g>
      <g id="Group-2" data-name="Group" transform="translate(15.019 17.488)">
        <path id="Vector-4" data-name="Vector" d="M.981,1.962A.981.981,0,1,1,1.962.981.98.98,0,0,1,.981,1.962Z" fill="#009877"/>
      </g>
    </g>
  </g>
</svg>
