<svg xmlns="http://www.w3.org/2000/svg" width="32" height="32" viewBox="0 0 32 32">
  <g id="vuesax_bulk_like" data-name="vuesax/bulk/like" transform="translate(-300 -188)">
    <g id="like" transform="translate(300 188)">
      <path id="Vector" d="M18.15,10.505a2.71,2.71,0,0,0-2.337-1.191H10.688A1.085,1.085,0,0,1,9.825,8.9a1.352,1.352,0,0,1-.262-1.042L10.2,3.416A2.96,2.96,0,0,0,8.438.156,2.589,2.589,0,0,0,5.425,1.2L.15,9.68,0,9.95V21.91l.188.2L4.15,25.427a3.912,3.912,0,0,0,2.55.879h4.875a4.051,4.051,0,0,0,3.738-3.03l3.075-10.133A3.014,3.014,0,0,0,18.15,10.505Z" transform="translate(10.913 2.831)" fill="#009877" opacity="0.4"/>
      <path id="Vector-2" data-name="Vector" d="M4.012,0H2.725C.787,0,0,.75,0,2.6V15.175c0,1.85.787,2.6,2.725,2.6H4.012c1.938,0,2.725-.75,2.725-2.6V2.6C6.737.75,5.95,0,4.012,0Z" transform="translate(2.5 9.975)" fill="#009877"/>
      <path id="Vector-3" data-name="Vector" d="M0,0H32V32H0Z" fill="none" opacity="0"/>
    </g>
  </g>
</svg>
