<svg xmlns="http://www.w3.org/2000/svg" width="32" height="32" viewBox="0 0 32 32">
  <g id="vuesax_bulk_message-tick" data-name="vuesax/bulk/message-tick" transform="translate(-364 -316)">
    <g id="message-tick" transform="translate(364 316)">
      <path id="Vector" d="M0,0H32V32H0Z" fill="none" opacity="0"/>
      <path id="Vector-2" data-name="Vector" d="M26.667,6.667v8a6.672,6.672,0,0,1-1.84,4.84A6.664,6.664,0,0,1,20,21.333v2.84a1.335,1.335,0,0,1-2.067,1.12L12,21.333H9.173a4.792,4.792,0,0,0,.16-1.24,5.312,5.312,0,0,0-1.373-3.56A5.259,5.259,0,0,0,4,14.76,5.326,5.326,0,0,0,.173,16.373,7.8,7.8,0,0,1,0,14.667v-8A6.3,6.3,0,0,1,6.667,0H20A6.3,6.3,0,0,1,26.667,6.667Z" transform="translate(2.667 3.24)" fill="#009877" opacity="0.4"/>
      <g id="Group" transform="translate(10.333 13)">
        <path id="Vector-3" data-name="Vector" d="M10.333,2H1A1.007,1.007,0,0,1,0,1,1.007,1.007,0,0,1,1,0h9.333a1.007,1.007,0,0,1,1,1A1.007,1.007,0,0,1,10.333,2Z" fill="#009877"/>
      </g>
      <path id="Vector-4" data-name="Vector" d="M5.333,0A5.332,5.332,0,0,0,0,5.333,5.228,5.228,0,0,0,.773,8.08a5.313,5.313,0,0,0,9.12,0,5.228,5.228,0,0,0,.773-2.747A5.332,5.332,0,0,0,5.333,0ZM7.96,4.893,5.12,7.52a1.017,1.017,0,0,1-.68.267.989.989,0,0,1-.707-.293l-1.32-1.32A1,1,0,0,1,3.827,4.76l.64.64L6.6,3.427A1,1,0,1,1,7.96,4.893Z" transform="translate(1.333 18)" fill="#009877"/>
    </g>
  </g>
</svg>
