<svg xmlns="http://www.w3.org/2000/svg" viewBox="0 0 76 50.84" width="92" height="62"><defs><style>.cls-1{fill:#fff;}</style></defs><title>footervision</title><g id="Layer_2" data-name="Layer 2"><g id="Layer_1-2" data-name="Layer 1"><g id="g302"><g id="g36"><rect id="rect2" class="cls-1" x="44.77" y="0.92" width="0.85" height="0.85"/><rect id="rect4" class="cls-1" x="62.54" y="11.53" width="0.85" height="0.85"/><path id="path6" class="cls-1" d="M72.93,10.61a1.25,1.25,0,0,0,.51-.43,1.73,1.73,0,0,0,.27-.68,4.19,4.19,0,0,0,.08-.9v-6h-.85v6a3.59,3.59,0,0,1,0,.61,1.1,1.1,0,0,1-.13.41.56.56,0,0,1-.24.22,1,1,0,0,1-.4.07h-.21l-.23-.06-.23.83a2.86,2.86,0,0,0,.7.09A1.79,1.79,0,0,0,72.93,10.61Z"/><path id="path8" class="cls-1" d="M70,1.12H68.82V.92a.37.37,0,0,1,.07-.25.33.33,0,0,1,.26-.08h.59V0h-.6a1.06,1.06,0,0,0-.76.26,1.12,1.12,0,0,0-.26.82v.69H70V1.12Z"/><rect id="rect10" class="cls-1" x="60.83" y="11.53" width="0.85" height="0.85"/><rect id="rect12" class="cls-1" x="46.48" y="0.92" width="0.85" height="0.85"/><path id="path14" class="cls-1" d="M66.14,7.74a3.43,3.43,0,0,0,1.13.51,5.45,5.45,0,0,0,1.36.17h.22l.29-.61v.85a1.13,1.13,0,0,1-.38,1,1.8,1.8,0,0,1-1.08.29A3,3,0,0,1,67,9.83a4.53,4.53,0,0,1-.73-.25L66,10.4a8.19,8.19,0,0,0,.87.27,3.29,3.29,0,0,0,.76.09,2.44,2.44,0,0,0,1.82-.59A2.19,2.19,0,0,0,70,8.58V2.63H68.63a4.35,4.35,0,0,0-1.44.22,3.44,3.44,0,0,0-1.12.61,2.72,2.72,0,0,0-1,2.1,2.82,2.82,0,0,0,.28,1.29A2.55,2.55,0,0,0,66.14,7.74Zm0-3a2.14,2.14,0,0,1,.53-.66,2.34,2.34,0,0,1,.74-.42,2.4,2.4,0,0,1,.84-.15h1.38l-.49.24V7.56h-.87a2.92,2.92,0,0,1-.9-.13A2.27,2.27,0,0,1,66.63,7a1.82,1.82,0,0,1-.5-.63A1.93,1.93,0,0,1,66,5.56,1.79,1.79,0,0,1,66.14,4.72Z"/><path id="path16" class="cls-1" d="M45,10.64h1.78V10a.73.73,0,0,0,0,.09,1.28,1.28,0,0,0,.51.44,2,2,0,0,0,.78.14H63.7v-8h-.86V9.82H48.15a.9.9,0,0,1-.4-.07.49.49,0,0,1-.25-.22,1.24,1.24,0,0,1-.13-.41,5.16,5.16,0,0,1,0-.61V2.63H45a3.92,3.92,0,0,0-4,4v0A3.88,3.88,0,0,0,45,10.64Zm-3-4a3.05,3.05,0,0,1,3-3.18h2l-.52.27V8.51a4.94,4.94,0,0,0,.08.9,2.42,2.42,0,0,0,.13.43H45A3.08,3.08,0,0,1,42,6.63Z"/><polygon id="polygon18" class="cls-1" points="36.78 8.53 37.15 9.51 31.73 2.62 30.88 2.62 30.88 10.63 31.76 10.63 31.76 4.59 31.26 3.42 36.94 10.63 37.66 10.63 37.66 2.62 36.78 2.62 36.78 8.53"/><path id="path20" class="cls-1" d="M49,23.42l4.93-4.69V15.51H40.71v3.66h6.75L50,17.56l-6.25,6.28.67,2.72h1.78c2.39,0,3.81.89,3.81,2.48v.05c0,1.45-1.14,2.36-2.75,2.36a6,6,0,0,1-4.71-2.33l-3,2.8a9.44,9.44,0,0,0,7.6,3.37c4.34,0,7-2.7,7-6.37v-.05C54.18,25.26,51.6,23.87,49,23.42Z"/><path id="path22" class="cls-1" d="M25.31,2.48a4.06,4.06,0,0,0-4.1,4.14v0a4.09,4.09,0,1,0,8.18,0v0A4,4,0,0,0,25.31,2.48Zm3.14,4.16a3.15,3.15,0,0,1-3.14,3.29,3.19,3.19,0,0,1-3.16-3.31v0a3.15,3.15,0,0,1,3.14-3.28,3.18,3.18,0,0,1,3.16,3.3Z"/><path id="path24" class="cls-1" d="M65.67,15.17A10.07,10.07,0,0,0,55.29,25.23v.05a10,10,0,0,0,10.33,10A10.07,10.07,0,0,0,76,25.23v-.06A10,10,0,0,0,65.67,15.17Zm5.85,10.11a5.83,5.83,0,0,1-5.85,6.06,5.91,5.91,0,0,1-5.9-6.11v-.06a5.82,5.82,0,0,1,5.85-6.05,5.91,5.91,0,0,1,5.9,6.11Z"/><rect id="rect26" class="cls-1" x="18.74" y="2.62" width="0.91" height="8.01"/><path id="path28" class="cls-1" d="M4.19,32.73,5,32.09l4.26-3.28c3.45-2.66,5.12-4.28,5.12-7.53v-.05c0-3.64-2.67-6-6.71-6-3.48,0-5.34,1.41-7.26,4l3,2.41c1.45-1.78,2.48-2.61,4-2.61A2.39,2.39,0,0,1,10,21.59c0,1.61-.95,2.67-3.37,4.67L.18,31.56V35H14.6V31.26H7.17Z"/><polygon id="polygon30" class="cls-1" points="4.25 10.68 7.7 2.62 6.73 2.62 4 9.18 4.09 10.06 3.86 9.52 1.5 3.81 1.01 2.62 0 2.62 3.45 10.68 4.25 10.68"/><rect id="rect32" class="cls-1" x="8.93" y="2.62" width="0.91" height="8.01"/><path id="path34" class="cls-1" d="M14.63,6.19c-1.76-.38-2.17-.8-2.17-1.56v0c0-.72.66-1.29,1.7-1.29a3.56,3.56,0,0,1,2.32.86L17,3.49a4.17,4.17,0,0,0-2.82-1,2.37,2.37,0,0,0-2.64,2.19v0c0,1.32.85,1.91,2.69,2.31s2.09.78,2.09,1.52v0c0,.79-.71,1.36-1.79,1.36A3.85,3.85,0,0,1,11.79,8.8l-.56.66a4.69,4.69,0,0,0,3.28,1.28c1.59,0,2.74-.89,2.74-2.26v0C17.25,7.23,16.42,6.58,14.63,6.19Z"/></g><polygon id="polygon38" class="cls-1" points="26.24 13.89 27.23 14.84 26.28 15.82 25.3 14.88 26.24 13.89"/><polygon id="polygon40" class="cls-1" points="28.5 14.88 29.49 15.82 30.44 14.84 29.45 13.89 28.5 14.88"/><polygon id="polygon42" class="cls-1" points="27.11 16.12 27.88 16.86 28.62 16.09 27.85 15.35 27.11 16.12"/><polygon id="polygon44" class="cls-1" points="29.93 16.54 30.7 17.28 31.43 16.51 30.67 15.77 29.93 16.54"/><polygon id="polygon46" class="cls-1" points="25.86 17.29 26.62 18.03 27.36 17.26 26.59 16.52 25.86 17.29"/><polygon id="polygon48" class="cls-1" points="28.43 17.38 29.2 18.12 29.94 17.35 29.17 16.61 28.43 17.38"/><polygon id="polygon50" class="cls-1" points="27.43 18.26 27.97 18.78 28.48 18.24 27.95 17.72 27.43 18.26"/><polygon id="polygon52" class="cls-1" points="29.46 18.67 30 19.19 30.52 18.65 29.98 18.13 29.46 18.67"/><rect id="rect54" class="cls-1" x="34.06" y="14.4" width="1.7" height="1.7" transform="translate(-2.18 6.54) rotate(-10.39)"/><rect id="rect56" class="cls-1" x="31.84" y="15.13" width="1.37" height="1.37" transform="translate(-2.32 6.12) rotate(-10.38)"/><rect id="rect58" class="cls-1" x="34.44" y="17" width="1.37" height="1.37" transform="translate(-2.61 6.63) rotate(-10.39)"/><rect id="rect60" class="cls-1" x="32.56" y="17.23" width="1.06" height="1.06" transform="translate(-2.66 6.25) rotate(-10.38)"/><rect id="rect62" class="cls-1" x="34.6" y="19.22" width="1.06" height="1.06" transform="translate(-2.98 6.65) rotate(-10.38)"/><rect id="rect64" class="cls-1" x="30.99" y="17.65" width="1.07" height="1.06" transform="translate(-2.76 5.98) rotate(-10.38)"/><rect id="rect66" class="cls-1" x="32.89" y="19.02" width="1.06" height="1.06" transform="translate(-2.98 6.34) rotate(-10.38)"/><rect id="rect68" class="cls-1" x="31.53" y="19.18" width="0.75" height="0.75" transform="translate(-3 6.07) rotate(-10.39)"/><rect id="rect70" class="cls-1" x="32.95" y="20.7" width="0.75" height="0.75" transform="matrix(0.98, -0.18, 0.18, 0.98, -3.25, 6.33)"/><polygon id="polygon72" class="cls-1" points="38.9 20.05 38.17 21.59 39.71 22.32 40.44 20.78 38.9 20.05"/><polygon id="polygon74" class="cls-1" points="36.72 19.34 36.13 20.57 37.37 21.16 37.95 19.92 36.72 19.34"/><polygon id="polygon76" class="cls-1" points="37.73 22.37 37.14 23.61 38.38 24.19 38.96 22.96 37.73 22.37"/><polygon id="polygon78" class="cls-1" points="36.11 21.45 35.65 22.41 36.62 22.87 37.07 21.91 36.11 21.45"/><polygon id="polygon80" class="cls-1" points="36.6 24.25 36.14 25.21 37.1 25.67 37.56 24.71 36.6 24.25"/><polygon id="polygon82" class="cls-1" points="34.59 20.88 34.13 21.84 35.09 22.3 35.55 21.34 34.59 20.88"/><polygon id="polygon84" class="cls-1" points="35.33 23.1 34.87 24.06 35.83 24.52 36.29 23.55 35.33 23.1"/><polygon id="polygon86" class="cls-1" points="34.17 22.42 33.85 23.1 34.53 23.42 34.85 22.74 34.17 22.42"/><rect id="rect88" class="cls-1" x="34.23" y="24.6" width="0.75" height="0.75" transform="translate(-2.82 45.49) rotate(-64.55)"/><polygon id="polygon90" class="cls-1" points="39.73 27.41 38.24 28.22 39.06 29.71 40.55 28.9 39.73 27.41"/><polygon id="polygon92" class="cls-1" points="38.38 25.55 37.18 26.21 37.84 27.41 39.03 26.75 38.38 25.55"/><polygon id="polygon94" class="cls-1" points="37.42 28.61 36.22 29.26 36.88 30.46 38.08 29.8 37.42 28.61"/><polygon id="polygon96" class="cls-1" points="36.65 26.91 35.71 27.42 36.23 28.35 37.16 27.84 36.65 26.91"/><polygon id="polygon98" class="cls-1" points="35.4 29.47 34.47 29.98 34.98 30.91 35.91 30.4 35.4 29.47"/><polygon id="polygon100" class="cls-1" points="35.75 25.56 34.81 26.07 35.33 27 36.26 26.49 35.75 25.56"/><polygon id="polygon102" class="cls-1" points="35.05 27.79 34.11 28.3 34.62 29.23 35.56 28.72 35.05 27.79"/><polygon id="polygon104" class="cls-1" points="34.5 26.57 33.85 26.93 34.21 27.58 34.86 27.22 34.5 26.57"/><polygon id="polygon106" class="cls-1" points="33.5 28.39 32.85 28.75 33.21 29.4 33.86 29.04 33.5 28.39"/><rect id="rect108" class="cls-1" x="34.29" y="33.74" width="1.7" height="1.7" transform="translate(-3.5 65.23) rotate(-82.96)"/><rect id="rect110" class="cls-1" x="34.63" y="31.47" width="1.36" height="1.37" transform="translate(-0.94 63.25) rotate(-82.93)"/><rect id="rect112" class="cls-1" x="32.07" y="33.39" width="1.37" height="1.37" transform="translate(-5.09 62.38) rotate(-82.93)"/><rect id="rect114" class="cls-1" x="32.75" y="31.59" width="1.06" height="1.06" transform="translate(-2.67 61.21) rotate(-82.95)"/><rect id="rect116" class="cls-1" x="30.24" y="32.93" width="1.06" height="1.06" transform="translate(-6.21 59.9) rotate(-82.95)"/><rect id="rect118" class="cls-1" x="32.82" y="29.96" width="1.06" height="1.07" transform="translate(-1.02 59.84) rotate(-82.93)"/><rect id="rect120" class="cls-1" x="30.94" y="31.36" width="1.06" height="1.07" transform="translate(-4.05 59.2) rotate(-82.93)"/><rect id="rect122" class="cls-1" x="31.55" y="30.08" width="0.75" height="0.75" transform="translate(-2.21 58.39) rotate(-82.95)"/><rect id="rect124" class="cls-1" x="29.67" y="30.97" width="0.75" height="0.75" transform="translate(-4.74 57.31) rotate(-82.95)"/><polygon id="polygon126" class="cls-1" points="29.36 36.96 28.11 35.8 26.95 37.05 28.2 38.21 29.36 36.96"/><polygon id="polygon128" class="cls-1" points="29.13 13.13 27.88 11.97 26.72 13.22 27.97 14.38 29.13 13.13"/><polygon id="polygon130" class="cls-1" points="30.69 35.09 29.69 34.16 28.76 35.16 29.76 36.09 30.69 35.09"/><polygon id="polygon132" class="cls-1" points="27.49 35.15 26.48 34.22 25.55 35.22 26.56 36.15 27.49 35.15"/><polygon id="polygon134" class="cls-1" points="28.86 33.88 28.07 33.16 27.35 33.94 28.13 34.66 28.86 33.88"/><polygon id="polygon136" class="cls-1" points="26.03 33.51 25.25 32.78 24.53 33.56 25.31 34.29 26.03 33.51"/><polygon id="polygon138" class="cls-1" points="29.86 32.6 29.08 31.88 28.35 32.66 29.13 33.38 29.86 32.6"/><polygon id="polygon140" class="cls-1" points="27.51 32.64 26.73 31.92 26.01 32.7 26.79 33.42 27.51 32.64"/><polygon id="polygon142" class="cls-1" points="28.51 31.74 27.96 31.23 27.45 31.78 28 32.29 28.51 31.74"/><polygon id="polygon144" class="cls-1" points="26.46 31.37 25.91 30.86 25.4 31.41 25.95 31.92 26.46 31.37"/><rect id="rect146" class="cls-1" x="20.22" y="34.03" width="1.7" height="1.7" transform="translate(-6.44 4.82) rotate(-11.33)"/><rect id="rect148" class="cls-1" x="22.77" y="33.59" width="1.37" height="1.37" transform="translate(-6.28 5.27) rotate(-11.33)"/><rect id="rect150" class="cls-1" x="20.14" y="31.76" width="1.37" height="1.37" transform="translate(-5.98 4.73) rotate(-11.34)"/><rect id="rect152" class="cls-1" x="22.31" y="31.81" width="1.06" height="1.06" transform="translate(-5.91 5.12) rotate(-11.33)"/><rect id="rect154" class="cls-1" x="23.88" y="31.36" width="1.06" height="1.06" transform="translate(-5.79 5.42) rotate(-11.33)"/><rect id="rect156" class="cls-1" x="21.95" y="30.02" width="1.06" height="1.06" transform="translate(-5.56 5.01) rotate(-11.33)"/><rect id="rect158" class="cls-1" x="23.63" y="30.15" width="0.75" height="0.75" transform="translate(-5.52 5.3) rotate(-11.31)"/><rect id="rect160" class="cls-1" x="22.19" y="28.66" width="0.75" height="0.75" transform="translate(-5.27 5.01) rotate(-11.34)"/><polygon id="polygon162" class="cls-1" points="17 30.15 17.71 28.6 16.16 27.89 15.45 29.44 17 30.15"/><polygon id="polygon164" class="cls-1" points="19.2 30.82 19.77 29.58 18.52 29.02 17.95 30.26 19.2 30.82"/><polygon id="polygon166" class="cls-1" points="18.14 27.8 18.7 26.56 17.46 26 16.89 27.24 18.14 27.8"/><rect id="rect168" class="cls-1" x="18.97" y="27.46" width="1.06" height="1.06" transform="translate(-14.06 34.13) rotate(-65.49)"/><polygon id="polygon170" class="cls-1" points="21.07 31.12 21.51 30.15 20.54 29.71 20.1 30.68 21.07 31.12"/><rect id="rect172" class="cls-1" x="18.44" y="24.67" width="1.06" height="1.06" transform="translate(-11.83 32) rotate(-65.47)"/><rect id="rect174" class="cls-1" x="20.51" y="28.01" width="1.06" height="1.06" transform="translate(-13.66 35.84) rotate(-65.47)"/><rect id="rect176" class="cls-1" x="19.73" y="25.8" width="1.06" height="1.06" transform="translate(-12.11 33.83) rotate(-65.45)"/><polygon id="polygon178" class="cls-1" points="21.69 27.7 22 27.02 21.32 26.71 21.01 27.39 21.69 27.7"/><polygon id="polygon180" class="cls-1" points="21.4 25.64 21.71 24.96 21.03 24.65 20.72 25.33 21.4 25.64"/><polygon id="polygon182" class="cls-1" points="16.05 22.81 17.53 21.96 16.68 20.49 15.2 21.33 16.05 22.81"/><polygon id="polygon184" class="cls-1" points="17.44 24.64 18.62 23.96 17.95 22.77 16.76 23.45 17.44 24.64"/><polygon id="polygon186" class="cls-1" points="18.34 21.57 19.53 20.89 18.86 19.7 17.67 20.38 18.34 21.57"/><polygon id="polygon188" class="cls-1" points="19.14 23.25 20.07 22.72 19.54 21.8 18.62 22.33 19.14 23.25"/><polygon id="polygon190" class="cls-1" points="20.35 20.67 21.27 20.15 20.75 19.22 19.82 19.75 20.35 20.67"/><polygon id="polygon192" class="cls-1" points="20.07 24.59 20.99 24.06 20.46 23.14 19.54 23.66 20.07 24.59"/><polygon id="polygon194" class="cls-1" points="20.73 22.34 21.66 21.82 21.13 20.89 20.2 21.42 20.73 22.34"/><polygon id="polygon196" class="cls-1" points="21.29 23.56 21.94 23.19 21.57 22.54 20.92 22.91 21.29 23.56"/><polygon id="polygon198" class="cls-1" points="22.26 21.72 22.91 21.35 22.54 20.7 21.89 21.07 22.26 21.72"/><rect id="rect200" class="cls-1" x="19.67" y="14.69" width="1.7" height="1.7" transform="translate(2.89 34.29) rotate(-83.9)"/><rect id="rect202" class="cls-1" x="19.7" y="17.3" width="1.36" height="1.37" transform="translate(0.34 36.34) rotate(-83.89)"/><rect id="rect204" class="cls-1" x="22.24" y="15.34" width="1.36" height="1.37" transform="translate(4.55 37.11) rotate(-83.89)"/><rect id="rect206" class="cls-1" x="21.89" y="17.46" width="1.06" height="1.06" transform="translate(2.14 38.37) rotate(-83.89)"/><rect id="rect208" class="cls-1" x="24.37" y="16.07" width="1.06" height="1.06" transform="translate(5.75 39.6) rotate(-83.91)"/><rect id="rect210" class="cls-1" x="21.85" y="19.08" width="1.06" height="1.06" transform="translate(0.5 39.78) rotate(-83.89)"/><rect id="rect212" class="cls-1" x="23.7" y="17.65" width="1.06" height="1.06" transform="translate(3.58 40.34) rotate(-83.89)"/><rect id="rect214" class="cls-1" x="23.43" y="19.26" width="0.75" height="0.75" transform="translate(1.75 41.22) rotate(-83.89)"/><rect id="rect216" class="cls-1" x="25.29" y="18.34" width="0.75" height="0.75" transform="translate(4.35 42.26) rotate(-83.93)"/><path id="path218" class="cls-1" d="M33.3,26.14a3.06,3.06,0,0,0-.68-.3,4.14,4.14,0,0,0-1.86-.13,4.45,4.45,0,0,0-.8.2l-.08,0-.43.19-.36.2a9,9,0,0,0-.81.56,17.24,17.24,0,0,1-.08-4.32s0,0,0,0c.64.41.46,1.54.32,1.86h0a2,2,0,0,0,.25-2.25s0,0,0,0a2,2,0,0,1,.29.3,1.69,1.69,0,0,1,.36,1,2.05,2.05,0,0,1,0,.43V24h0a1.86,1.86,0,0,0,0-1.69,2,2,0,0,0-.36-.5c-.05,0-.09-.09-.15-.13s0,0,0,0l.14,0a1,1,0,0,1,.36.19,1.46,1.46,0,0,1,.51.68,1.79,1.79,0,0,1,.12.62,0,0,0,0,0,0,0A1.56,1.56,0,0,0,30,21.88a1.48,1.48,0,0,0-.51-.49,1.25,1.25,0,0,0-.36-.16.59.59,0,0,0-.17,0s0,0,0,0h.17a1.38,1.38,0,0,1,.36,0,1.26,1.26,0,0,1,.51.2,1.14,1.14,0,0,1,.34.36h0a1,1,0,0,0-.35-.69,1.37,1.37,0,0,0-.51-.26,1.51,1.51,0,0,0-.36-.06,1.29,1.29,0,0,0-.45.08s0,0,0,0a.86.86,0,0,1,.46-.32.91.91,0,0,1,.36,0,.7.7,0,0,1,.3.07,0,0,0,0,0,0,0,1,1,0,0,0-.31-.25.81.81,0,0,0-.36-.12.91.91,0,0,0-.88.43h0c0-.07-.08-.16-.12-.24a3.13,3.13,0,0,1-.2-.66h0a2.52,2.52,0,0,1-.2.66.9.9,0,0,1-.12.24h0A.93.93,0,0,0,26,20.52a0,0,0,0,0,0,0,1,1,0,0,1,1.12.29s0,0,0,0a1.33,1.33,0,0,0-1.44.36,1,1,0,0,0-.23.57h0a1,1,0,0,1,.22-.27,1.47,1.47,0,0,1,1.16-.31s0,0,0,0a1.55,1.55,0,0,0-1.16.93,1.62,1.62,0,0,0,0,1s0,0,0,0v0a1.55,1.55,0,0,1,1.13-1.51,0,0,0,0,1,0,0A1.88,1.88,0,0,0,26.3,24s0,0,0,0A1.9,1.9,0,0,1,27,22.16a0,0,0,0,1,0,0,2,2,0,0,0,.24,2.25h0c-.13-.33-.31-1.45.33-1.86,0,0,0,0,0,0a17.24,17.24,0,0,1-.08,4.32,6.67,6.67,0,0,0-1.6-.95l-.2-.07a4.22,4.22,0,0,0-1.51-.21,3.92,3.92,0,0,0-1.56.39l-.15.08s0,0,0,0l.14,0a4.43,4.43,0,0,1,3.07.25,8.11,8.11,0,0,1,1.8,1.18,18.84,18.84,0,0,1-1.8,1.53l-.06,0a.41.41,0,0,0-.43-.17.45.45,0,0,0-.32.31.42.42,0,0,0,.09.37.59.59,0,0,0,.72.1,9.69,9.69,0,0,0,2-1.66l.21-.18.2.18,1,.94c.12.12.25.22.36.32a4.26,4.26,0,0,0,.51.35.66.66,0,0,0,.8,0l0,0a.5.5,0,0,0,.08-.37.32.32,0,0,0-.12-.2.45.45,0,0,0-.19-.11.43.43,0,0,0-.44.17L30,29a4.81,4.81,0,0,1-.51-.41l-.36-.32c-.25-.23-.52-.48-.81-.73a7.21,7.21,0,0,1,.81-.62l.36-.23.51-.27a6,6,0,0,1,.8-.31,4.59,4.59,0,0,1,2.53,0s0,0,0,0"/><g id="g300"><rect id="rect220" class="cls-1" x="3.96" y="44.67" width="0.5" height="0.5"/><path id="path222" class="cls-1" d="M37.76,44.09V40.77h-.49V43.6H35.42V40.77h-.49V43.6H33V40.77h-.77a2.68,2.68,0,0,0-.83.13,1.88,1.88,0,0,0-.64.35,1.64,1.64,0,0,0-.41.53,1.58,1.58,0,0,0-.14.65,1.6,1.6,0,0,0,.17.75,1.36,1.36,0,0,0,.44.51,1.65,1.65,0,0,0,.64.3,2.76,2.76,0,0,0,.77.1Zm-6.26-.57a1.22,1.22,0,0,1-.42-.23,1.12,1.12,0,0,1-.29-.36,1.31,1.31,0,0,1-.1-.5A1,1,0,0,1,30.8,42a1.4,1.4,0,0,1,.3-.38,1.6,1.6,0,0,1,.92-.32h.48V43.6H32A1.72,1.72,0,0,1,31.5,43.52Z"/><rect id="rect224" class="cls-1" x="27.3" y="39.71" width="0.49" height="4.38"/><rect id="rect226" class="cls-1" x="32.48" y="39.71" width="0.5" height="0.5"/><rect id="rect228" class="cls-1" x="37.26" y="44.66" width="0.5" height="0.5"/><rect id="rect230" class="cls-1" x="4.81" y="44.67" width="0.5" height="0.5"/><path id="path232" class="cls-1" d="M25.38,43.6h-.8a1.54,1.54,0,0,1-.67-.12,1,1,0,0,1-.39-.37,2,2,0,0,0,.05-.46V41.08h-.49v1.65a1,1,0,0,1-.23.68.86.86,0,0,1-.68.25,1,1,0,0,1-.4-.07.83.83,0,0,1-.3-.18.86.86,0,0,1-.2-.27.76.76,0,0,1-.08-.33V41.08H20.7v1.69a.86.86,0,0,1-.07.38.81.81,0,0,1-.18.26.87.87,0,0,1-.27.14,1,1,0,0,1-.31.05h-.95V41.08h-.48V43.6H15.87l.85-2a4.23,4.23,0,0,0-.41-.33c-.15-.1-.3-.18-.45-.26a3.06,3.06,0,0,0-.48-.17,1.49,1.49,0,0,0-.47-.07,1.53,1.53,0,0,0-.47.07A3.06,3.06,0,0,0,14,41a3.47,3.47,0,0,0-.45.26l-.41.32L14,43.6h-1.7V40.77h-.78a2.72,2.72,0,0,0-.83.13,2,2,0,0,0-.63.35,1.64,1.64,0,0,0-.42.53,1.73,1.73,0,0,0,0,1.41,1.36,1.36,0,0,0,.44.51,1.87,1.87,0,0,0,.64.29,2.88,2.88,0,0,0,.78.1h.29v.14a.64.64,0,0,1-.22.55,1,1,0,0,1-.61.16,1.68,1.68,0,0,1-.41,0,2.32,2.32,0,0,1-.41-.15l-.16.47.5.16a2.2,2.2,0,0,0,.44,0,1.37,1.37,0,0,0,1-.34,1.28,1.28,0,0,0,.32-.91v-.09h7.6a1.24,1.24,0,0,0,.64-.16,1.33,1.33,0,0,0,.45-.4,1.16,1.16,0,0,0,.48.45,1.49,1.49,0,0,0,.73.17,1.73,1.73,0,0,0,.75-.15,1.12,1.12,0,0,0,.47-.47,1.3,1.3,0,0,0,.15.2.71.71,0,0,0,.23.18,1.34,1.34,0,0,0,.34.13,1.78,1.78,0,0,0,.35,0h1.41V39.71h-.49V43.6Zm-13.6,0h-.49a1.72,1.72,0,0,1-.52-.08,1.2,1.2,0,0,1-.42-.22,1,1,0,0,1-.29-.36,1.07,1.07,0,0,1-.11-.49,1,1,0,0,1,.12-.48,1,1,0,0,1,.3-.37,1.27,1.27,0,0,1,.42-.25,1.69,1.69,0,0,1,.5-.08h.49Zm2.7,0-.76-1.87a1.83,1.83,0,0,1,.57-.35,1.88,1.88,0,0,1,.62-.11,1.72,1.72,0,0,1,.66.13,2.11,2.11,0,0,1,.55.33l-.77,1.87Z"/><rect id="rect234" class="cls-1" x="2.28" y="39.71" width="0.5" height="0.5"/><rect id="rect236" class="cls-1" x="51.76" y="39.71" width="0.5" height="0.5"/><rect id="rect238" class="cls-1" x="47.43" y="39.71" width="0.49" height="4.38"/><rect id="rect240" class="cls-1" x="31.63" y="39.71" width="0.5" height="0.5"/><path id="path242" class="cls-1" d="M8.69,42.17a1.85,1.85,0,0,0-.08-.54,1.18,1.18,0,0,0-.23-.43,1.34,1.34,0,0,0-.44-.32,1.48,1.48,0,0,0-.59-.11H7v.49h.43a.73.73,0,0,1,.33.08.79.79,0,0,1,.27.2.74.74,0,0,1,.14.28,1.28,1.28,0,0,1,0,.36V43.6H5.91v.49H8.69V42.17Z"/><rect id="rect244" class="cls-1" x="73.3" y="39.71" width="0.49" height="4.38"/><rect id="rect246" class="cls-1" x="52.61" y="39.71" width="0.5" height="0.5"/><path id="path248" class="cls-1" d="M71.88,39.71h-.49V43.6H69.71a1.72,1.72,0,0,0,.15-.72,1.7,1.7,0,0,0-.14-.71,1.76,1.76,0,0,0-.37-.56,1.7,1.7,0,0,0-.57-.37,1.65,1.65,0,0,0-.7-.14,1.58,1.58,0,0,0-.69.14,1.64,1.64,0,0,0-.55.38,1.76,1.76,0,0,0-.37.56,1.82,1.82,0,0,0-.14.7,2.1,2.1,0,0,0,0,.37,1.79,1.79,0,0,0,.11.35H65a1.58,1.58,0,0,0,.16-.72,1.87,1.87,0,0,0-.14-.71,1.79,1.79,0,0,0-.38-.56,1.66,1.66,0,0,0-.56-.37,1.7,1.7,0,0,0-.71-.14,1.56,1.56,0,0,0-.68.14,1.68,1.68,0,0,0-.56.38,2,2,0,0,0-.37.56,1.82,1.82,0,0,0-.13.7,1.45,1.45,0,0,0,0,.37,1.3,1.3,0,0,0,.11.35H60.18V39.71h-.49V43.6H58.13v-.75a1.83,1.83,0,0,0-.07-.53,1.18,1.18,0,0,0-.23-.43,1.31,1.31,0,0,0-.43-.32,1.53,1.53,0,0,0-.61-.1H54.63l.92-1.76H55l-.94,1.75a1,1,0,0,0,.08.28.7.7,0,0,0,.14.21h2.49a1,1,0,0,1,.41.08.66.66,0,0,1,.27.19.67.67,0,0,1,.14.28,1.83,1.83,0,0,1,0,.35v.75H53.12V40.77h-.77a2.68,2.68,0,0,0-.83.13,1.88,1.88,0,0,0-.64.35,1.49,1.49,0,0,0-.4.53,1.44,1.44,0,0,0-.15.65,1.6,1.6,0,0,0,.17.75,1.36,1.36,0,0,0,.44.51,1.65,1.65,0,0,0,.64.3,2.76,2.76,0,0,0,.77.1h9.7a1.78,1.78,0,0,0,.57.4,1.67,1.67,0,0,0,.71.15,1.94,1.94,0,0,0,.73-.14,1.89,1.89,0,0,0,.59-.41H66.8a1.85,1.85,0,0,0,.56.4,1.72,1.72,0,0,0,.72.15,2,2,0,0,0,.73-.14,1.85,1.85,0,0,0,.58-.41h2.49V39.71ZM52.63,43.6h-.48a1.72,1.72,0,0,1-.52-.08,1.22,1.22,0,0,1-.42-.23,1.12,1.12,0,0,1-.29-.36,1.31,1.31,0,0,1-.1-.5,1.13,1.13,0,0,1,.11-.48,1.52,1.52,0,0,1,.3-.37,1.64,1.64,0,0,1,.43-.24,1.62,1.62,0,0,1,.49-.08h.48V43.6Zm11.9-.22a1.2,1.2,0,0,1-.28.41,1.15,1.15,0,0,1-.41.26,1.25,1.25,0,0,1-.51.1,1.17,1.17,0,0,1-.89-.38,1.23,1.23,0,0,1-.27-.4,1.39,1.39,0,0,1-.09-.5,1.33,1.33,0,0,1,.09-.49,1.31,1.31,0,0,1,.26-.41,1.15,1.15,0,0,1,.4-.28,1.18,1.18,0,0,1,.5-.1,1.46,1.46,0,0,1,.52.09,1.62,1.62,0,0,1,.41.27,1.46,1.46,0,0,1,.27.41,1.4,1.4,0,0,1,.1.51A1.36,1.36,0,0,1,64.53,43.38Zm4.74,0a1.33,1.33,0,0,1-.27.41,1.36,1.36,0,0,1-.41.26,1.25,1.25,0,0,1-.51.1,1.18,1.18,0,0,1-.5-.1,1.15,1.15,0,0,1-.4-.28,1.31,1.31,0,0,1-.36-.9,1.36,1.36,0,0,1,.36-.9,1.21,1.21,0,0,1,.39-.28,1.19,1.19,0,0,1,.51-.1,1.4,1.4,0,0,1,.51.09A1.33,1.33,0,0,1,69,42a1.13,1.13,0,0,1,.27.41,1.22,1.22,0,0,1,.1.51A1.19,1.19,0,0,1,69.27,43.38Z"/><path id="path250" class="cls-1" d="M1.25,44a2.76,2.76,0,0,0,.77.1h3.2V40.77H4.73V43.6H2.79V40.77H2a2.68,2.68,0,0,0-.83.13,1.88,1.88,0,0,0-.64.35,1.64,1.64,0,0,0-.41.53,1.58,1.58,0,0,0-.14.65,1.6,1.6,0,0,0,.17.75,1.36,1.36,0,0,0,.44.51A1.65,1.65,0,0,0,1.25,44ZM.49,42.43A1.13,1.13,0,0,1,.6,42a1.52,1.52,0,0,1,.3-.37,1.64,1.64,0,0,1,.43-.24,1.62,1.62,0,0,1,.49-.08H2.3V43.6H1.82a1.72,1.72,0,0,1-.52-.08,1.22,1.22,0,0,1-.42-.23,1.12,1.12,0,0,1-.29-.36A1.15,1.15,0,0,1,.49,42.43Z"/><rect id="rect252" class="cls-1" x="35.47" y="44.67" width="0.5" height="0.5"/><rect id="rect254" class="cls-1" x="34.62" y="44.67" width="0.5" height="0.5"/><path id="path256" class="cls-1" d="M39.66,44.71a2.78,2.78,0,0,0,.05-.52v-.1H46V39.71h-.49V43.6H43.43l.86-2a3.39,3.39,0,0,0-.42-.33,4.83,4.83,0,0,0-.45-.26A2.64,2.64,0,0,0,43,40.8a1.58,1.58,0,0,0-.47-.07,1.59,1.59,0,0,0-.48.07,3,3,0,0,0-.47.17,2.51,2.51,0,0,0-.45.26,3.29,3.29,0,0,0-.41.33l.86,2H39.71V40.77h-.49v3.42a3.16,3.16,0,0,1,0,.35.79.79,0,0,1-.07.23.31.31,0,0,1-.15.13.46.46,0,0,1-.22,0h-.12l-.14,0-.12.47a1.74,1.74,0,0,0,.39,0,1,1,0,0,0,.45-.09.67.67,0,0,0,.29-.24A1.13,1.13,0,0,0,39.66,44.71Zm1.62-3a1.87,1.87,0,0,1,.58-.35,1.84,1.84,0,0,1,.62-.11,1.64,1.64,0,0,1,.65.13,2,2,0,0,1,.55.33l-.76,1.87H42Z"/><rect id="rect258" class="cls-1" x="1.43" y="39.71" width="0.5" height="0.5"/><polygon id="polygon260" class="cls-1" points="3.51 47.3 2.75 47.3 1.09 49.05 1.09 47.3 0.48 47.3 0.48 50.78 1.09 50.78 1.09 49.77 1.64 49.21 2.83 50.78 3.57 50.78 2.06 48.8 3.51 47.3"/><rect id="rect262" class="cls-1" x="4.13" y="47.3" width="0.61" height="3.49"/><polygon id="polygon264" class="cls-1" points="8.13 49.71 6.26 47.3 5.69 47.3 5.69 50.78 6.3 50.78 6.3 48.3 8.22 50.78 8.74 50.78 8.74 47.3 8.13 47.3 8.13 49.71"/><path id="path266" class="cls-1" d="M11.28,49.37h.89V50a1.4,1.4,0,0,1-.84.26A1.16,1.16,0,0,1,10.14,49h0a1.18,1.18,0,0,1,1.14-1.23,1.35,1.35,0,0,1,1,.37l.39-.46a1.9,1.9,0,0,0-1.34-.47A1.77,1.77,0,0,0,9.5,49h0a1.73,1.73,0,0,0,1.81,1.79,2.27,2.27,0,0,0,1.46-.54V48.84H11.28v.53Z"/><path id="path268" class="cls-1" d="M14.92,47.3H13.61v3.48h1.31A1.74,1.74,0,0,0,16.77,49h0A1.73,1.73,0,0,0,14.92,47.3Zm1.21,1.75a1.14,1.14,0,0,1-1.21,1.18h-.69V47.85h.69A1.15,1.15,0,0,1,16.13,49Z"/><path id="path270" class="cls-1" d="M19.18,47.24A1.79,1.79,0,0,0,17.35,49h0A1.83,1.83,0,0,0,21,49h0A1.77,1.77,0,0,0,19.18,47.24Zm1.18,1.81a1.18,1.18,0,0,1-1.18,1.23A1.2,1.2,0,0,1,18,49h0a1.18,1.18,0,0,1,1.18-1.23A1.2,1.2,0,0,1,20.36,49Z"/><polygon id="polygon272" class="cls-1" points="23.48 48.95 22.42 47.3 21.77 47.3 21.77 50.78 22.37 50.78 22.37 48.29 23.46 49.93 23.48 49.93 24.59 48.28 24.59 50.78 25.2 50.78 25.2 47.3 24.55 47.3 23.48 48.95"/><path id="path274" class="cls-1" d="M29.27,47.24A1.79,1.79,0,0,0,27.44,49h0a1.77,1.77,0,0,0,1.82,1.79A1.79,1.79,0,0,0,31.1,49h0A1.77,1.77,0,0,0,29.27,47.24Zm1.18,1.81a1.18,1.18,0,0,1-1.18,1.23A1.19,1.19,0,0,1,28.09,49h0a1.17,1.17,0,0,1,1.17-1.23A1.19,1.19,0,0,1,30.45,49Z"/><polygon id="polygon276" class="cls-1" points="31.86 50.78 32.47 50.78 32.47 49.36 34.23 49.36 34.23 48.81 32.47 48.81 32.47 47.85 34.46 47.85 34.46 47.3 31.86 47.3 31.86 50.78"/><path id="path278" class="cls-1" d="M38,48.76c-.67-.16-.83-.28-.83-.55h0c0-.23.21-.41.57-.41a1.57,1.57,0,0,1,1,.36l.33-.47a2,2,0,0,0-1.27-.43,1.07,1.07,0,0,0-1.19,1h0c0,.64.42.86,1.16,1s.79.28.79.53h0c0,.27-.24.44-.62.44a1.58,1.58,0,0,1-1.1-.45l-.37.44a2.15,2.15,0,0,0,1.45.55c.74,0,1.25-.39,1.25-1h0C39.1,49.2,38.72,48.94,38,48.76Z"/><path id="path280" class="cls-1" d="M41,47.27l-1.53,3.51h.63l.35-.84h1.66l.35.84h.65l-1.54-3.51Zm-.32,2.13.6-1.4.6,1.4Z"/><path id="path282" class="cls-1" d="M45.83,49.3c0,.65-.34,1-.88,1s-.89-.35-.89-1v-2h-.61v2a1.38,1.38,0,0,0,1.49,1.54,1.4,1.4,0,0,0,1.5-1.57v-2h-.61v2Z"/><path id="path284" class="cls-1" d="M48.64,47.3h-1.3v3.48h1.3A1.75,1.75,0,0,0,50.5,49h0A1.74,1.74,0,0,0,48.64,47.3Zm1.21,1.75a1.14,1.14,0,0,1-1.21,1.18H48V47.85h.69A1.14,1.14,0,0,1,49.85,49Z"/><rect id="rect286" class="cls-1" x="51.28" y="47.3" width="0.61" height="3.49"/><path id="path288" class="cls-1" d="M55.56,47.27,54,50.78h.63l.36-.84h1.65l.36.84h.65l-1.54-3.51Zm-.33,2.13.6-1.4.61,1.4Z"/><path id="path290" class="cls-1" d="M61.1,48.41h0a1,1,0,0,0-.29-.76,1.44,1.44,0,0,0-1-.34H58.25v3.48h.61V49.57h.77l.86,1.21h.72l-.94-1.32A1,1,0,0,0,61.1,48.41ZM58.86,49V47.85h.89c.46,0,.73.21.73.58h0c0,.36-.28.58-.72.58Z"/><path id="path292" class="cls-1" d="M63.2,47.27l-1.54,3.51h.63l.36-.84H64.3l.36.84h.65l-1.54-3.51Zm-.33,2.13.6-1.4.61,1.4Z"/><path id="path294" class="cls-1" d="M68.1,49a.83.83,0,0,0,.5-.78h0a.78.78,0,0,0-.23-.57,1.28,1.28,0,0,0-.92-.31H65.89v3.48H67.5c.78,0,1.3-.33,1.3-1h0A.86.86,0,0,0,68.1,49Zm-1.61-1.13h.88c.4,0,.62.17.62.44h0c0,.32-.27.48-.66.48h-.84v-.93Zm1.69,1.92c0,.32-.25.48-.67.48h-1v-1h1c.49,0,.72.18.72.47Z"/><rect id="rect296" class="cls-1" x="69.56" y="47.3" width="0.61" height="3.49"/><path id="path298" class="cls-1" d="M72.86,47.27h-.57l-1.53,3.51h.62l.36-.84H73.4l.35.84h.65ZM72,49.4l.6-1.4.6,1.4Z"/></g></g></g></g></svg>